<?xml version="1.0" encoding="UTF-8" standalone="no"?>
<!-- Created with Inkscape (http://www.inkscape.org/) -->

<svg
   viewBox="0 0 500.00002 251.00002"
   version="1.1"
   id="svg3399"
   inkscape:version="1.2 (dc2aeda, 2022-05-15)"
   sodipodi:docname="01.svg"
   class="manual__2C__img"
   width="500"
   height="251"
   xmlns:inkscape="http://www.inkscape.org/namespaces/inkscape"
   xmlns:sodipodi="http://sodipodi.sourceforge.net/DTD/sodipodi-0.dtd"
   xmlns="http://www.w3.org/2000/svg"
   xmlns:svg="http://www.w3.org/2000/svg">
  <sodipodi:namedview
     id="namedview3401"
     pagecolor="#ffffff"
     bordercolor="#666666"
     borderopacity="1.0"
     inkscape:showpageshadow="2"
     inkscape:pageopacity="0.0"
     inkscape:pagecheckerboard="0"
     inkscape:deskcolor="#d1d1d1"
     inkscape:document-units="mm"
     showgrid="false"
     inkscape:zoom="2.6543859"
     inkscape:cx="247.51488"
     inkscape:cy="93.807008"
     inkscape:window-width="1920"
     inkscape:window-height="1007"
     inkscape:window-x="0"
     inkscape:window-y="0"
     inkscape:window-maximized="1"
     inkscape:current-layer="layer1" />
  <defs
     id="defs3396">
    <marker
       style="overflow:visible"
       id="Arrow2-4"
       refX="0"
       refY="0"
       orient="auto-start-reverse"
       inkscape:stockid="Arrow2"
       markerWidth="4.6999998"
       markerHeight="3.4181819"
       viewBox="0 0 7.7 5.6"
       inkscape:isstock="true"
       inkscape:collect="always"
       preserveAspectRatio="xMidYMid">
      <path
         transform="scale(0.7)"
         d="M -2,-4 9,0 -2,4 c 2,-2.33 2,-5.66 0,-8 z"
         style="fill:context-stroke;fill-rule:evenodd;stroke:none"
         id="arrow2L-3" />
    </marker>
  </defs>
  <g
     inkscape:label="Layer 1"
     inkscape:groupmode="layer"
     id="layer1"
     transform="translate(-58.272951,-88.964152)">
    <g
       id="drawing__outline_light"
       class="drawing__outline_light"
       transform="matrix(3.7246238,0,0,3.7246238,-93.491724,-235.0742)"
       style="stroke-width:0.80545;stroke-dasharray:none">
      <g
         id="g4569"
         transform="translate(-524.8402,-46.812105)"
         style="stroke-width:0.80545;stroke-dasharray:none">
        <path
           id="path4551"
           style="font-variation-settings:normal;fill-opacity:1;stroke-width:0.80545;stroke-dasharray:none;stop-color:#000000"
           d="m 596.76032,181.24373 -2e-5,2.97553" />
        <path
           id="path4553"
           style="font-variation-settings:normal;fill-opacity:1;stroke-width:0.80545;stroke-dasharray:none;stop-color:#000000"
           d="m 596.76032,178.65578 v 2.58795" />
        <path
           id="path4555"
           style="font-variation-settings:normal;fill-opacity:1;stroke-width:0.80545;stroke-dasharray:none;stop-color:#000000"
           d="m 596.76033,170.33381 -2e-5,2.93056" />
        <path
           id="path4557"
           style="font-variation-settings:normal;fill-opacity:1;stroke-width:0.80545;stroke-dasharray:none;stop-color:#000000"
           d="m 596.76034,166.72886 -1e-5,3.60495" />
        <path
           id="path4559"
           style="font-variation-settings:normal;fill-opacity:1;stroke-width:0.80545;stroke-dasharray:none;stop-color:#000000"
           d="m 596.76036,157.48499 -10e-6,2.97553" />
        <path
           id="path4561"
           style="font-variation-settings:normal;fill-opacity:1;stroke-width:0.80545;stroke-dasharray:none;stop-color:#000000"
           d="m 596.76035,157.48447 10e-6,5.2e-4" />
        <path
           id="path4563"
           style="font-variation-settings:normal;fill-opacity:1;stroke-width:0.80545;stroke-dasharray:none;stop-color:#000000"
           d="m 596.76033,154.89651 2e-5,2.58796" />
        <path
           id="path4565"
           style="font-variation-settings:normal;fill-opacity:1;stroke-width:0.80545;stroke-dasharray:none;stop-color:#000000"
           d="m 596.76034,146.71613 v 2.93057" />
        <path
           id="path4567"
           style="font-variation-settings:normal;fill-opacity:1;stroke-width:0.80545;stroke-dasharray:none;stop-color:#000000"
           d="m 596.76035,143.11119 -10e-6,3.60494" />
      </g>
      <g
         id="g4589"
         transform="translate(-531.99074,-46.812105)"
         style="stroke-width:0.80545;stroke-dasharray:none">
        <path
           id="path4571"
           style="font-variation-settings:normal;fill-opacity:1;stroke-width:0.80545;stroke-dasharray:none;stop-color:#000000"
           d="m 596.76032,181.24373 -2e-5,2.97553" />
        <path
           id="path4573"
           style="font-variation-settings:normal;fill-opacity:1;stroke-width:0.80545;stroke-dasharray:none;stop-color:#000000"
           d="m 596.76032,178.65578 v 2.58795" />
        <path
           id="path4575"
           style="font-variation-settings:normal;fill-opacity:1;stroke-width:0.80545;stroke-dasharray:none;stop-color:#000000"
           d="m 596.76033,170.33381 -2e-5,2.93056" />
        <path
           id="path4577"
           style="font-variation-settings:normal;fill-opacity:1;stroke-width:0.80545;stroke-dasharray:none;stop-color:#000000"
           d="m 596.76034,166.72886 -1e-5,3.60495" />
        <path
           id="path4579"
           style="font-variation-settings:normal;fill-opacity:1;stroke-width:0.80545;stroke-dasharray:none;stop-color:#000000"
           d="m 596.76036,157.48499 -10e-6,2.97553" />
        <path
           id="path4581"
           style="font-variation-settings:normal;fill-opacity:1;stroke-width:0.80545;stroke-dasharray:none;stop-color:#000000"
           d="m 596.76035,157.48447 10e-6,5.2e-4" />
        <path
           id="path4583"
           style="font-variation-settings:normal;fill-opacity:1;stroke-width:0.80545;stroke-dasharray:none;stop-color:#000000"
           d="m 596.76033,154.89651 2e-5,2.58796" />
        <path
           id="path4585"
           style="font-variation-settings:normal;fill-opacity:1;stroke-width:0.80545;stroke-dasharray:none;stop-color:#000000"
           d="m 596.76034,146.71613 v 2.93057" />
        <path
           id="path4587"
           style="font-variation-settings:normal;fill-opacity:1;stroke-width:0.80545;stroke-dasharray:none;stop-color:#000000"
           d="m 596.76035,143.11119 -10e-6,3.60494" />
      </g>
    </g>
    <text
       xml:space="preserve"
       style="font-style:normal;font-variant:normal;font-weight:bold;font-stretch:normal;font-size:20px;font-family:'Ink Free';-inkscape-font-specification:'Ink Free';font-variant-ligatures:normal;font-variant-position:normal;font-variant-caps:normal;font-variant-numeric:normal;font-variant-alternates:normal;font-variant-east-asian:normal;font-feature-settings:normal;font-variation-settings:normal;text-indent:0;text-align:start;text-decoration-line:none;text-decoration-style:solid;text-decoration-color:#000000;letter-spacing:0px;word-spacing:normal;text-transform:none;writing-mode:lr-tb;direction:ltr;text-orientation:mixed;dominant-baseline:auto;baseline-shift:baseline;white-space:normal;fill-opacity:1;stroke-width:1.00000006;stroke-dasharray:none;stop-color:#000000"
       x="278.94827"
       y="136.64081"
       id="text3852-9-7-3-3"
       class="drawing__annotation"><tspan
         sodipodi:role="line"
         style="font-style:normal;font-variant:normal;font-weight:bold;font-stretch:normal;font-size:20px;line-height:1.25;font-family:'Ink Free';-inkscape-font-specification:'Ink Free';font-variant-ligatures:normal;font-variant-position:normal;font-variant-caps:normal;font-variant-numeric:normal;font-variant-alternates:normal;font-variant-east-asian:normal;font-feature-settings:normal;font-variation-settings:normal;text-indent:0;text-align:start;text-decoration-line:none;text-decoration-style:solid;text-decoration-color:#000000;letter-spacing:0px;word-spacing:normal;text-transform:none;writing-mode:lr-tb;direction:ltr;text-orientation:mixed;dominant-baseline:auto;baseline-shift:baseline;white-space:normal;fill-opacity:1;stroke-width:1.00000006;stroke-dasharray:none;stop-color:#000000;stop-opacity:1"
         x="278.94827"
         y="136.64081"
         id="tspan19723-2">1</tspan></text>
    <g
       id="g1196"
       class="drawing__outline"
       style="stroke-width:1.00000006;stroke-dasharray:none">
      <g
         id="g11619"
         transform="matrix(0,3.7246238,-3.7246238,0,1001.9312,-1813.3324)"
         style="fill:#c4ffff;fill-opacity:0.287206;stroke-width:0.26848351;stroke-dasharray:none">
        <path
           id="path10273"
           style="font-variation-settings:normal;fill:#c4ffff;fill-opacity:0.287206;stop-color:#000000;stroke-width:0.26848351;stroke-dasharray:none"
           d="m 566.42307,215.97028 c 1.74986,0 3.36744,1.89293 4.24212,4.96507 0.43734,1.53607 0.65577,3.25072 0.65577,4.96507 0,1.71435 -0.21843,3.42849 -0.65577,4.96456 -0.87468,3.07213 -2.49226,4.96507 -4.24212,4.96507 h 2.93057 c 1.74986,0 3.36744,-1.89294 4.24212,-4.96507 0.43734,-1.53607 0.65577,-3.25021 0.65577,-4.96456 0,-1.71435 -0.21843,-3.429 -0.65577,-4.96507 -0.87468,-3.07214 -2.49226,-4.96507 -4.24212,-4.96507 z" />
        <path
           style="font-variation-settings:normal;fill:#c4ffff;fill-opacity:0.287206;stop-color:#000000;stroke-width:0.26848351;stroke-dasharray:none"
           d="m 571.32121,225.90017 c 0,-1.71435 -0.21868,-3.4288 -0.65602,-4.96487 -0.87468,-3.07214 -2.49204,-4.96486 -4.2419,-4.96486 -1.74986,0 -3.3667,1.89272 -4.24138,4.96486 -0.87518,3.07215 -0.87518,6.85759 0,9.92973 0.87468,3.07214 2.49152,4.96487 4.24138,4.96487 1.74986,0 3.36722,-1.89273 4.2419,-4.96487 0.43734,-1.53607 0.65602,-3.25051 0.65602,-4.96486 z"
           id="path10267" />
        <path
           style="font-variation-settings:normal;fill:#c4ffff;fill-opacity:0.287206;stop-color:#000000;stroke-width:0.26848351;stroke-dasharray:none"
           d="m 564.69171,225.91567 c -0.002,0.31753 -0.0636,0.62369 -0.17257,0.85313 -0.11675,0.24573 -0.27766,0.38407 -0.44586,0.38407 -0.33692,-0.012 -0.60694,-0.56972 -0.60694,-1.25275 0,-0.68404 0.27002,-1.24176 0.60694,-1.25379 0.33245,0 0.60555,0.53258 0.61792,1.20559 4.1e-4,0.0213 4.9e-4,0.0426 4.9e-4,0.0638 z"
           id="path10342" />
        <path
           style="font-variation-settings:normal;fill:#c4ffff;fill-opacity:0.287206;stop-color:#000000;stroke-width:0.26848351;stroke-dasharray:none"
           d="m 567.41244,229.43549 c -0.003,0.50848 -0.10126,0.99756 -0.27611,1.36522 -0.18652,0.39317 -0.44391,0.61575 -0.71304,0.61575 -0.26864,0 -0.52575,-0.22258 -0.71226,-0.61575 -0.18652,-0.39217 -0.28599,-0.92271 -0.2756,-1.46733 0.0203,-1.07721 0.45652,-1.92862 0.98786,-1.92862 0.50265,0 0.92511,0.76423 0.9825,1.77625 0.003,0.0502 0.005,0.10122 0.006,0.15237 4.9e-4,0.034 4.9e-4,0.0682 4.9e-4,0.10211 z"
           id="path10340" />
        <path
           style="font-variation-settings:normal;fill:#c4ffff;fill-opacity:0.287206;stop-color:#000000;stroke-width:0.26848351;stroke-dasharray:none"
           d="m 567.41244,222.4145 c -0.003,0.50848 -0.10126,0.99756 -0.27611,1.36522 -0.18652,0.39317 -0.44391,0.61575 -0.71304,0.61575 -0.54569,-10e-4 -0.98786,-0.89956 -0.98786,-2.00585 0,-1.1073 0.44217,-2.00485 0.98786,-2.00585 0.53184,0 0.96835,0.85142 0.98864,1.92862 4.9e-4,0.034 4.9e-4,0.0682 4.9e-4,0.10211 z"
           id="path10338" />
        <path
           style="font-variation-settings:normal;fill:#c4ffff;fill-opacity:0.287206;stop-color:#000000;stroke-width:0.26848351;stroke-dasharray:none"
           d="m 569.39201,225.91567 c -0.002,0.31753 -0.0634,0.62369 -0.17283,0.85313 -0.11675,0.24573 -0.27766,0.38407 -0.44587,0.38407 -0.33691,-0.012 -0.60693,-0.56972 -0.60693,-1.25275 0,-0.68404 0.27002,-1.24176 0.60693,-1.25379 0.33246,0 0.60558,0.53258 0.61844,1.20559 3.7e-4,0.0213 4.1e-4,0.0426 2.6e-4,0.0638 z"
           id="path10336" />
      </g>
      <g
         id="g11611"
         transform="matrix(0,3.7246238,-3.7246238,0,1001.9312,-1789.3688)"
         style="fill:#c4ffff;fill-opacity:0.287206;stroke-width:0.26848351;stroke-dasharray:none">
        <path
           id="path10436"
           style="font-variation-settings:normal;fill:#c4ffff;fill-opacity:0.287206;stop-color:#000000;stroke-width:0.26848351;stroke-dasharray:none"
           d="m 548.15827,217.87611 c 1.41393,0 2.72073,1.52978 3.4277,4.01215 0.35349,1.24119 0.5302,2.62679 0.5302,4.01216 0,1.38537 -0.17671,2.77097 -0.5302,4.01216 -0.70697,2.48239 -2.01377,4.01164 -3.4277,4.01164 h 2.97553 c 1.41393,0 2.72073,-1.52925 3.4277,-4.01164 0.35349,-1.24119 0.5302,-2.62679 0.5302,-4.01216 0,-1.38537 -0.17671,-2.77097 -0.5302,-4.01216 -0.70697,-2.48237 -2.01377,-4.01215 -3.4277,-4.01215 z" />
        <path
           style="font-variation-settings:normal;fill:#c4ffff;fill-opacity:0.287206;stop-color:#000000;stroke-width:0.26848351;stroke-dasharray:none"
           d="m 552.11606,225.90017 c 0,-1.38537 -0.17675,-2.77051 -0.53024,-4.0117 -0.70697,-2.48238 -2.01343,-4.01221 -3.42736,-4.01221 -1.41444,0 -2.72117,1.52983 -3.42814,4.01221 -0.70697,2.48239 -0.70697,5.54152 0,8.02391 0.70697,2.48239 2.0137,4.0117 3.42814,4.0117 1.41393,0 2.72039,-1.52931 3.42736,-4.0117 0.35349,-1.24119 0.53024,-2.62684 0.53024,-4.01221 z"
           id="path10263" />
        <path
           style="font-variation-settings:normal;fill:#c4ffff;fill-opacity:0.287206;stop-color:#000000;stroke-width:0.26848351;stroke-dasharray:none"
           d="m 546.42662,225.91567 c -0.002,0.31825 -0.0636,0.62379 -0.17308,0.85417 -0.11626,0.24573 -0.27739,0.38406 -0.4451,0.38406 -0.34136,-0.001 -0.61742,-0.56272 -0.61742,-1.25378 0,-0.69106 0.27606,-1.25278 0.61742,-1.25378 0.33196,0 0.60507,0.53257 0.61793,1.20558 4e-4,0.0214 3.8e-4,0.0425 2.5e-4,0.0638 z"
           id="path11423" />
        <path
           style="font-variation-settings:normal;fill:#c4ffff;fill-opacity:0.287206;stop-color:#000000;stroke-width:0.26848351;stroke-dasharray:none"
           d="m 549.14709,229.43549 c -0.003,0.50849 -0.10151,0.99756 -0.27637,1.36523 -0.18651,0.39317 -0.44362,0.61574 -0.71226,0.61574 -0.26913,0 -0.52652,-0.22257 -0.71304,-0.61574 -0.18651,-0.39217 -0.28598,-0.92271 -0.2756,-1.46733 0.0203,-1.07721 0.4568,-1.92862 0.98864,-1.92862 0.50215,0 0.92461,0.76422 0.9825,1.77624 0.002,0.0502 0.004,0.10123 0.005,0.15238 4.9e-4,0.034 9.9e-4,0.0682 9.9e-4,0.1021 z"
           id="path11421" />
        <path
           style="font-variation-settings:normal;fill:#c4ffff;fill-opacity:0.287206;stop-color:#000000;stroke-width:0.26848351;stroke-dasharray:none"
           d="m 549.14709,222.4145 c -0.003,0.5092 -0.10151,0.99756 -0.27637,1.36523 -0.18651,0.39317 -0.44362,0.61574 -0.71226,0.61574 -0.54618,-10e-4 -0.98864,-0.89956 -0.98864,-2.00585 0,-1.10729 0.44246,-2.00484 0.98864,-2.00584 0.53134,0 0.96807,0.85242 0.98786,1.92862 5e-4,0.0341 9.9e-4,0.0681 9.9e-4,0.1021 z"
           id="path11419" />
        <path
           style="font-variation-settings:normal;fill:#c4ffff;fill-opacity:0.287206;stop-color:#000000;stroke-width:0.26848351;stroke-dasharray:none"
           d="m 551.12666,225.91567 c -0.002,0.31825 -0.0636,0.62379 -0.17308,0.85417 -0.11626,0.24573 -0.27715,0.38406 -0.44536,0.38406 -0.34136,-0.001 -0.61742,-0.56272 -0.61742,-1.25378 0,-0.69106 0.27606,-1.25278 0.61742,-1.25378 0.33197,0 0.60507,0.53257 0.61793,1.20558 4e-4,0.0214 5e-4,0.0425 5e-4,0.0638 z"
           id="path11417" />
      </g>
      <g
         id="g13851"
         transform="matrix(0,3.7246238,-3.7246238,0,1001.9312,-1901.8255)"
         style="stroke-width:0.26848351;stroke-dasharray:none">
        <path
           id="path13839"
           style="font-variation-settings:normal;fill:#c4ffff;fill-opacity:0.287206;stop-color:#000000;stroke-width:0.26848351;stroke-dasharray:none"
           d="m 566.42307,215.97028 c 1.74986,0 3.36744,1.89293 4.24212,4.96507 0.43734,1.53607 0.65577,3.25072 0.65577,4.96507 0,1.71435 -0.21843,3.42849 -0.65577,4.96456 -0.87468,3.07213 -2.49226,4.96507 -4.24212,4.96507 h 2.93057 c 1.74986,0 3.36744,-1.89294 4.24212,-4.96507 0.43734,-1.53607 0.65577,-3.25021 0.65577,-4.96456 0,-1.71435 -0.21843,-3.429 -0.65577,-4.96507 -0.87468,-3.07214 -2.49226,-4.96507 -4.24212,-4.96507 z" />
        <path
           style="font-variation-settings:normal;fill:#c4ffff;fill-opacity:0.287206;stop-color:#000000;stroke-width:0.26848351;stroke-dasharray:none"
           d="m 571.32121,225.90017 c 0,-1.71435 -0.21868,-3.4288 -0.65602,-4.96487 -0.87468,-3.07214 -2.49204,-4.96486 -4.2419,-4.96486 -1.74986,0 -3.3667,1.89272 -4.24138,4.96486 -0.87518,3.07215 -0.87518,6.85759 0,9.92973 0.87468,3.07214 2.49152,4.96487 4.24138,4.96487 1.74986,0 3.36722,-1.89273 4.2419,-4.96487 0.43734,-1.53607 0.65602,-3.25051 0.65602,-4.96486 z"
           id="path13841" />
        <path
           style="font-variation-settings:normal;fill:#c4ffff;fill-opacity:0.287206;stop-color:#000000;stroke-width:0.26848351;stroke-dasharray:none"
           d="m 564.69171,225.91567 c -0.002,0.31753 -0.0636,0.62369 -0.17257,0.85313 -0.11675,0.24573 -0.27766,0.38407 -0.44586,0.38407 -0.33692,-0.012 -0.60694,-0.56972 -0.60694,-1.25275 0,-0.68404 0.27002,-1.24176 0.60694,-1.25379 0.33245,0 0.60555,0.53258 0.61792,1.20559 4.1e-4,0.0213 4.9e-4,0.0426 4.9e-4,0.0638 z"
           id="path13843" />
        <path
           style="font-variation-settings:normal;fill:#c4ffff;fill-opacity:0.287206;stop-color:#000000;stroke-width:0.26848351;stroke-dasharray:none"
           d="m 567.41244,229.43549 c -0.003,0.50848 -0.10126,0.99756 -0.27611,1.36522 -0.18652,0.39317 -0.44391,0.61575 -0.71304,0.61575 -0.26864,0 -0.52575,-0.22258 -0.71226,-0.61575 -0.18652,-0.39217 -0.28599,-0.92271 -0.2756,-1.46733 0.0203,-1.07721 0.45652,-1.92862 0.98786,-1.92862 0.50265,0 0.92511,0.76423 0.9825,1.77625 0.003,0.0502 0.005,0.10122 0.006,0.15237 4.9e-4,0.034 4.9e-4,0.0682 4.9e-4,0.10211 z"
           id="path13845" />
        <path
           style="font-variation-settings:normal;fill:#c4ffff;fill-opacity:0.287206;stop-color:#000000;stroke-width:0.26848351;stroke-dasharray:none"
           d="m 567.41244,222.4145 c -0.003,0.50848 -0.10126,0.99756 -0.27611,1.36522 -0.18652,0.39317 -0.44391,0.61575 -0.71304,0.61575 -0.54569,-10e-4 -0.98786,-0.89956 -0.98786,-2.00585 0,-1.1073 0.44217,-2.00485 0.98786,-2.00585 0.53184,0 0.96835,0.85142 0.98864,1.92862 4.9e-4,0.034 4.9e-4,0.0682 4.9e-4,0.10211 z"
           id="path13847" />
        <path
           style="font-variation-settings:normal;fill:#c4ffff;fill-opacity:0.287206;stop-color:#000000;stroke-width:0.26848351;stroke-dasharray:none"
           d="m 569.39201,225.91567 c -0.002,0.31753 -0.0634,0.62369 -0.17283,0.85313 -0.11675,0.24573 -0.27766,0.38407 -0.44587,0.38407 -0.33691,-0.012 -0.60693,-0.56972 -0.60693,-1.25275 0,-0.68404 0.27002,-1.24176 0.60693,-1.25379 0.33246,0 0.60558,0.53258 0.61844,1.20559 3.7e-4,0.0213 4.1e-4,0.0426 2.6e-4,0.0638 z"
           id="path13849" />
      </g>
      <g
         id="g13865"
         transform="matrix(0,3.7246238,-3.7246238,0,1001.9312,-1877.862)"
         style="fill:#c4ffff;fill-opacity:0.287206;stroke-width:0.26848351;stroke-dasharray:none">
        <path
           id="path13853"
           style="font-variation-settings:normal;fill:#c4ffff;fill-opacity:0.287206;stop-color:#000000;stroke-width:0.26848351;stroke-dasharray:none"
           d="m 548.15827,217.87611 c 1.41393,0 2.72073,1.52978 3.4277,4.01215 0.35349,1.24119 0.5302,2.62679 0.5302,4.01216 0,1.38537 -0.17671,2.77097 -0.5302,4.01216 -0.70697,2.48239 -2.01377,4.01164 -3.4277,4.01164 h 2.97553 c 1.41393,0 2.72073,-1.52925 3.4277,-4.01164 0.35349,-1.24119 0.5302,-2.62679 0.5302,-4.01216 0,-1.38537 -0.17671,-2.77097 -0.5302,-4.01216 -0.70697,-2.48237 -2.01377,-4.01215 -3.4277,-4.01215 z" />
        <path
           style="font-variation-settings:normal;fill:#c4ffff;fill-opacity:0.287206;stop-color:#000000;stroke-width:0.26848351;stroke-dasharray:none"
           d="m 552.11606,225.90017 c 0,-1.38537 -0.17675,-2.77051 -0.53024,-4.0117 -0.70697,-2.48238 -2.01343,-4.01221 -3.42736,-4.01221 -1.41444,0 -2.72117,1.52983 -3.42814,4.01221 -0.70697,2.48239 -0.70697,5.54152 0,8.02391 0.70697,2.48239 2.0137,4.0117 3.42814,4.0117 1.41393,0 2.72039,-1.52931 3.42736,-4.0117 0.35349,-1.24119 0.53024,-2.62684 0.53024,-4.01221 z"
           id="path13855" />
        <path
           style="font-variation-settings:normal;fill:#c4ffff;fill-opacity:0.287206;stop-color:#000000;stroke-width:0.26848351;stroke-dasharray:none"
           d="m 546.42662,225.91567 c -0.002,0.31825 -0.0636,0.62379 -0.17308,0.85417 -0.11626,0.24573 -0.27739,0.38406 -0.4451,0.38406 -0.34136,-0.001 -0.61742,-0.56272 -0.61742,-1.25378 0,-0.69106 0.27606,-1.25278 0.61742,-1.25378 0.33196,0 0.60507,0.53257 0.61793,1.20558 4e-4,0.0214 3.8e-4,0.0425 2.5e-4,0.0638 z"
           id="path13857" />
        <path
           style="font-variation-settings:normal;fill:#c4ffff;fill-opacity:0.287206;stop-color:#000000;stroke-width:0.26848351;stroke-dasharray:none"
           d="m 549.14709,229.43549 c -0.003,0.50849 -0.10151,0.99756 -0.27637,1.36523 -0.18651,0.39317 -0.44362,0.61574 -0.71226,0.61574 -0.26913,0 -0.52652,-0.22257 -0.71304,-0.61574 -0.18651,-0.39217 -0.28598,-0.92271 -0.2756,-1.46733 0.0203,-1.07721 0.4568,-1.92862 0.98864,-1.92862 0.50215,0 0.92461,0.76422 0.9825,1.77624 0.002,0.0502 0.004,0.10123 0.005,0.15238 4.9e-4,0.034 9.9e-4,0.0682 9.9e-4,0.1021 z"
           id="path13859" />
        <path
           style="font-variation-settings:normal;fill:#c4ffff;fill-opacity:0.287206;stop-color:#000000;stroke-width:0.26848351;stroke-dasharray:none"
           d="m 549.14709,222.4145 c -0.003,0.5092 -0.10151,0.99756 -0.27637,1.36523 -0.18651,0.39317 -0.44362,0.61574 -0.71226,0.61574 -0.54618,-10e-4 -0.98864,-0.89956 -0.98864,-2.00585 0,-1.10729 0.44246,-2.00484 0.98864,-2.00584 0.53134,0 0.96807,0.85242 0.98786,1.92862 5e-4,0.0341 9.9e-4,0.0681 9.9e-4,0.1021 z"
           id="path13861" />
        <path
           style="font-variation-settings:normal;fill:#c4ffff;fill-opacity:0.287206;stop-color:#000000;stroke-width:0.26848351;stroke-dasharray:none"
           d="m 551.12666,225.91567 c -0.002,0.31825 -0.0636,0.62379 -0.17308,0.85417 -0.11626,0.24573 -0.27715,0.38406 -0.44536,0.38406 -0.34136,-0.001 -0.61742,-0.56272 -0.61742,-1.25378 0,-0.69106 0.27606,-1.25278 0.61742,-1.25378 0.33197,0 0.60507,0.53257 0.61793,1.20558 4e-4,0.0214 5e-4,0.0425 5e-4,0.0638 z"
           id="path13863" />
      </g>
      <g
         id="g13879"
         transform="matrix(0,3.7246238,-3.7246238,0,1001.9312,-1989.7923)"
         style="fill:#c4ffff;fill-opacity:0.287206;stroke-width:0.26848351;stroke-dasharray:none">
        <path
           id="path13867"
           style="font-variation-settings:normal;fill:#c4ffff;fill-opacity:0.287206;stop-color:#000000;stroke-width:0.26848351;stroke-dasharray:none"
           d="m 566.42307,215.97028 c 1.74986,0 3.36744,1.89293 4.24212,4.96507 0.43734,1.53607 0.65577,3.25072 0.65577,4.96507 0,1.71435 -0.21843,3.42849 -0.65577,4.96456 -0.87468,3.07213 -2.49226,4.96507 -4.24212,4.96507 h 2.93057 c 1.74986,0 3.36744,-1.89294 4.24212,-4.96507 0.43734,-1.53607 0.65577,-3.25021 0.65577,-4.96456 0,-1.71435 -0.21843,-3.429 -0.65577,-4.96507 -0.87468,-3.07214 -2.49226,-4.96507 -4.24212,-4.96507 z" />
        <path
           style="font-variation-settings:normal;fill:#c4ffff;fill-opacity:0.287206;stop-color:#000000;stroke-width:0.26848351;stroke-dasharray:none"
           d="m 571.32121,225.90017 c 0,-1.71435 -0.21868,-3.4288 -0.65602,-4.96487 -0.87468,-3.07214 -2.49204,-4.96486 -4.2419,-4.96486 -1.74986,0 -3.3667,1.89272 -4.24138,4.96486 -0.87518,3.07215 -0.87518,6.85759 0,9.92973 0.87468,3.07214 2.49152,4.96487 4.24138,4.96487 1.74986,0 3.36722,-1.89273 4.2419,-4.96487 0.43734,-1.53607 0.65602,-3.25051 0.65602,-4.96486 z"
           id="path13869" />
        <path
           style="font-variation-settings:normal;fill:#c4ffff;fill-opacity:0.287206;stop-color:#000000;stroke-width:0.26848351;stroke-dasharray:none"
           d="m 564.69171,225.91567 c -0.002,0.31753 -0.0636,0.62369 -0.17257,0.85313 -0.11675,0.24573 -0.27766,0.38407 -0.44586,0.38407 -0.33692,-0.012 -0.60694,-0.56972 -0.60694,-1.25275 0,-0.68404 0.27002,-1.24176 0.60694,-1.25379 0.33245,0 0.60555,0.53258 0.61792,1.20559 4.1e-4,0.0213 4.9e-4,0.0426 4.9e-4,0.0638 z"
           id="path13871" />
        <path
           style="font-variation-settings:normal;fill:#c4ffff;fill-opacity:0.287206;stop-color:#000000;stroke-width:0.26848351;stroke-dasharray:none"
           d="m 567.41244,229.43549 c -0.003,0.50848 -0.10126,0.99756 -0.27611,1.36522 -0.18652,0.39317 -0.44391,0.61575 -0.71304,0.61575 -0.26864,0 -0.52575,-0.22258 -0.71226,-0.61575 -0.18652,-0.39217 -0.28599,-0.92271 -0.2756,-1.46733 0.0203,-1.07721 0.45652,-1.92862 0.98786,-1.92862 0.50265,0 0.92511,0.76423 0.9825,1.77625 0.003,0.0502 0.005,0.10122 0.006,0.15237 4.9e-4,0.034 4.9e-4,0.0682 4.9e-4,0.10211 z"
           id="path13873" />
        <path
           style="font-variation-settings:normal;fill:#c4ffff;fill-opacity:0.287206;stop-color:#000000;stroke-width:0.26848351;stroke-dasharray:none"
           d="m 567.41244,222.4145 c -0.003,0.50848 -0.10126,0.99756 -0.27611,1.36522 -0.18652,0.39317 -0.44391,0.61575 -0.71304,0.61575 -0.54569,-10e-4 -0.98786,-0.89956 -0.98786,-2.00585 0,-1.1073 0.44217,-2.00485 0.98786,-2.00585 0.53184,0 0.96835,0.85142 0.98864,1.92862 4.9e-4,0.034 4.9e-4,0.0682 4.9e-4,0.10211 z"
           id="path13875" />
        <path
           style="font-variation-settings:normal;fill:#c4ffff;fill-opacity:0.287206;stop-color:#000000;stroke-width:0.26848351;stroke-dasharray:none"
           d="m 569.39201,225.91567 c -0.002,0.31753 -0.0634,0.62369 -0.17283,0.85313 -0.11675,0.24573 -0.27766,0.38407 -0.44587,0.38407 -0.33691,-0.012 -0.60693,-0.56972 -0.60693,-1.25275 0,-0.68404 0.27002,-1.24176 0.60693,-1.25379 0.33246,0 0.60558,0.53258 0.61844,1.20559 3.7e-4,0.0213 4.1e-4,0.0426 2.6e-4,0.0638 z"
           id="path13877" />
      </g>
    </g>
    <g
       id="g14499"
       transform="matrix(3.7246238,0,0,3.7246238,-2074.9571,-409.43168)"
       style="stroke-width:0.80545;stroke-dasharray:none"
       class="drawing__outline">
      <path
         id="path14191"
         style="font-variation-settings:normal;fill:none;fill-opacity:1;stroke-width:0.80545;stroke-dasharray:none;marker-end:url(#Arrow2-4);stop-color:#000000"
         d="m 596.7603,184.90603 2e-5,2.96779" />
      <path
         id="path14266"
         style="font-variation-settings:normal;fill:none;fill-opacity:1;stroke-width:0.80545;stroke-dasharray:none;stop-color:#000000"
         d="m 596.7603,184.21926 v 0.68677" />
      <path
         id="path14260"
         style="font-variation-settings:normal;fill:none;fill-opacity:1;stroke-width:0.80545;stroke-dasharray:none;stop-color:#000000"
         d="m 596.76034,176.67967 -2e-5,1.97611" />
      <path
         id="path14258"
         style="font-variation-settings:normal;fill:none;fill-opacity:1;stroke-width:0.80545;stroke-dasharray:none;stop-color:#000000"
         d="m 596.76032,174.09171 2e-5,2.58796" />
      <path
         id="path14256"
         style="font-variation-settings:normal;fill:none;fill-opacity:1;stroke-width:0.80545;stroke-dasharray:none;stop-color:#000000"
         d="m 596.76031,173.26437 10e-6,0.82734" />
      <path
         id="path14250"
         style="font-variation-settings:normal;fill:none;fill-opacity:1;stroke-width:0.80545;stroke-dasharray:none;stop-color:#000000"
         d="m 596.76034,164.75224 v 1.97662" />
      <path
         id="path14248"
         style="font-variation-settings:normal;fill:none;fill-opacity:1;stroke-width:0.80545;stroke-dasharray:none;stop-color:#000000"
         d="m 596.76034,161.14729 v 3.60495" />
      <path
         id="path14246"
         style="font-variation-settings:normal;fill:none;fill-opacity:1;stroke-width:0.80545;stroke-dasharray:none;stop-color:#000000"
         d="m 596.76035,160.46052 -10e-6,0.68677" />
      <path
         id="path14238"
         style="font-variation-settings:normal;fill:none;fill-opacity:1;stroke-width:0.80545;stroke-dasharray:none;stop-color:#000000"
         d="m 596.76035,152.92041 -2e-5,1.9761" />
      <path
         id="path14236"
         style="font-variation-settings:normal;fill:none;fill-opacity:1;stroke-width:0.80545;stroke-dasharray:none;stop-color:#000000"
         d="m 596.76036,150.33297 -10e-6,2.58744" />
      <path
         id="path14234"
         style="font-variation-settings:normal;fill:none;fill-opacity:1;stroke-width:0.80545;stroke-dasharray:none;stop-color:#000000"
         d="m 596.76034,149.6467 2e-5,0.68627" />
      <path
         id="path14228"
         style="font-variation-settings:normal;fill:none;fill-opacity:1;stroke-width:0.80545;stroke-dasharray:none;stop-color:#000000"
         d="m 596.76034,141.13456 10e-6,1.97663" />
      <path
         id="path14226"
         style="font-variation-settings:normal;fill:none;fill-opacity:1;stroke-width:0.80545;stroke-dasharray:none;stop-color:#000000"
         d="m 596.76032,137.52961 2e-5,3.60495" />
      <path
         id="path14224"
         style="font-variation-settings:normal;fill:none;fill-opacity:1;stroke-width:0.80545;stroke-dasharray:none;stop-color:#000000"
         d="m 596.76032,135.77623 v 1.75338" />
    </g>
    <g
       id="g14555"
       transform="matrix(3.7246238,0,0,3.7246238,-2048.324,-409.43168)"
       style="stroke-width:0.80545;stroke-dasharray:none"
       class="drawing__outline">
      <path
         id="path14527"
         style="font-variation-settings:normal;fill:none;fill-opacity:1;stroke-width:0.80545;stroke-dasharray:none;marker-end:url(#Arrow2-4);stop-color:#000000"
         d="m 596.7603,184.90603 2e-5,2.96779" />
      <path
         id="path14529"
         style="font-variation-settings:normal;fill:none;fill-opacity:1;stroke-width:0.80545;stroke-dasharray:none;stop-color:#000000"
         d="m 596.7603,184.21926 v 0.68677" />
      <path
         id="path14531"
         style="font-variation-settings:normal;fill:none;fill-opacity:1;stroke-width:0.80545;stroke-dasharray:none;stop-color:#000000"
         d="m 596.76034,176.67967 -2e-5,1.97611" />
      <path
         id="path14533"
         style="font-variation-settings:normal;fill:none;fill-opacity:1;stroke-width:0.80545;stroke-dasharray:none;stop-color:#000000"
         d="m 596.76032,174.09171 2e-5,2.58796" />
      <path
         id="path14535"
         style="font-variation-settings:normal;fill:none;fill-opacity:1;stroke-width:0.80545;stroke-dasharray:none;stop-color:#000000"
         d="m 596.76031,173.26437 10e-6,0.82734" />
      <path
         id="path14537"
         style="font-variation-settings:normal;fill:none;fill-opacity:1;stroke-width:0.80545;stroke-dasharray:none;stop-color:#000000"
         d="m 596.76034,164.75224 v 1.97662" />
      <path
         id="path14539"
         style="font-variation-settings:normal;fill:none;fill-opacity:1;stroke-width:0.80545;stroke-dasharray:none;stop-color:#000000"
         d="m 596.76034,161.14729 v 3.60495" />
      <path
         id="path14541"
         style="font-variation-settings:normal;fill:none;fill-opacity:1;stroke-width:0.80545;stroke-dasharray:none;stop-color:#000000"
         d="m 596.76035,160.46052 -10e-6,0.68677" />
      <path
         id="path14543"
         style="font-variation-settings:normal;fill:none;fill-opacity:1;stroke-width:0.80545;stroke-dasharray:none;stop-color:#000000"
         d="m 596.76035,152.92041 -2e-5,1.9761" />
      <path
         id="path14545"
         style="font-variation-settings:normal;fill:none;fill-opacity:1;stroke-width:0.80545;stroke-dasharray:none;stop-color:#000000"
         d="m 596.76036,150.33297 -10e-6,2.58744" />
      <path
         id="path14547"
         style="font-variation-settings:normal;fill:none;fill-opacity:1;stroke-width:0.80545;stroke-dasharray:none;stop-color:#000000"
         d="m 596.76034,149.6467 2e-5,0.68627" />
      <path
         id="path14549"
         style="font-variation-settings:normal;fill:none;fill-opacity:1;stroke-width:0.80545;stroke-dasharray:none;stop-color:#000000"
         d="m 596.76034,141.13456 10e-6,1.97663" />
      <path
         id="path14551"
         style="font-variation-settings:normal;fill:none;fill-opacity:1;stroke-width:0.80545;stroke-dasharray:none;stop-color:#000000"
         d="m 596.76032,137.52961 2e-5,3.60495" />
      <path
         id="path14553"
         style="font-variation-settings:normal;fill:none;fill-opacity:1;stroke-width:0.80545;stroke-dasharray:none;stop-color:#000000"
         d="m 596.76032,135.77623 v 1.75338" />
    </g>
    <text
       xml:space="preserve"
       style="font-style:normal;font-variant:normal;font-weight:bold;font-stretch:normal;font-size:20px;font-family:'Ink Free';-inkscape-font-specification:'Ink Free';font-variant-ligatures:normal;font-variant-position:normal;font-variant-caps:normal;font-variant-numeric:normal;font-variant-alternates:normal;font-variant-east-asian:normal;font-feature-settings:normal;font-variation-settings:normal;text-indent:0;text-align:start;text-decoration-line:none;text-decoration-style:solid;text-decoration-color:#000000;letter-spacing:0px;word-spacing:normal;text-transform:none;writing-mode:lr-tb;direction:ltr;text-orientation:mixed;dominant-baseline:auto;baseline-shift:baseline;white-space:normal;fill-opacity:1;stroke-width:1.00000006;stroke-dasharray:none;stop-color:#000000"
       x="268.00879"
       y="185.34462"
       id="text3852-9-7-3"
       class="drawing__annotation"><tspan
         sodipodi:role="line"
         style="font-style:normal;font-variant:normal;font-weight:bold;font-stretch:normal;font-size:20px;line-height:1.25;font-family:'Ink Free';-inkscape-font-specification:'Ink Free';font-variant-ligatures:normal;font-variant-position:normal;font-variant-caps:normal;font-variant-numeric:normal;font-variant-alternates:normal;font-variant-east-asian:normal;font-feature-settings:normal;font-variation-settings:normal;text-indent:0;text-align:start;text-decoration-line:none;text-decoration-style:solid;text-decoration-color:#000000;letter-spacing:0px;word-spacing:normal;text-transform:none;writing-mode:lr-tb;direction:ltr;text-orientation:mixed;dominant-baseline:auto;baseline-shift:baseline;white-space:normal;fill-opacity:1;stroke-width:1.00000006;stroke-dasharray:none;stop-color:#000000;stop-opacity:1"
         x="268.00879"
         y="185.34462"
         id="tspan14709">Glue together three large</tspan><tspan
         sodipodi:role="line"
         style="font-style:normal;font-variant:normal;font-weight:bold;font-stretch:normal;font-size:20px;line-height:1.25;font-family:'Ink Free';-inkscape-font-specification:'Ink Free';font-variant-ligatures:normal;font-variant-position:normal;font-variant-caps:normal;font-variant-numeric:normal;font-variant-alternates:normal;font-variant-east-asian:normal;font-feature-settings:normal;font-variation-settings:normal;text-indent:0;text-align:start;text-decoration-line:none;text-decoration-style:solid;text-decoration-color:#000000;letter-spacing:0px;word-spacing:normal;text-transform:none;writing-mode:lr-tb;direction:ltr;text-orientation:mixed;dominant-baseline:auto;baseline-shift:baseline;white-space:normal;fill-opacity:1;stroke-width:1.00000006;stroke-dasharray:none;stop-color:#000000;stop-opacity:1"
         x="268.00879"
         y="210.34462"
         id="tspan14711">rings and two small rings.</tspan><tspan
         sodipodi:role="line"
         style="font-style:normal;font-variant:normal;font-weight:bold;font-stretch:normal;font-size:20px;line-height:1.25;font-family:'Ink Free';-inkscape-font-specification:'Ink Free';font-variant-ligatures:normal;font-variant-position:normal;font-variant-caps:normal;font-variant-numeric:normal;font-variant-alternates:normal;font-variant-east-asian:normal;font-feature-settings:normal;font-variation-settings:normal;text-indent:0;text-align:start;text-decoration-line:none;text-decoration-style:solid;text-decoration-color:#000000;letter-spacing:0px;word-spacing:normal;text-transform:none;writing-mode:lr-tb;direction:ltr;text-orientation:mixed;dominant-baseline:auto;baseline-shift:baseline;white-space:normal;fill-opacity:1;stroke-width:1.00000006;stroke-dasharray:none;stop-color:#000000;stop-opacity:1"
         x="268.00879"
         y="235.34462"
         id="tspan14719" /><tspan
         sodipodi:role="line"
         style="font-style:normal;font-variant:normal;font-weight:bold;font-stretch:normal;font-size:20px;line-height:1.25;font-family:'Ink Free';-inkscape-font-specification:'Ink Free';font-variant-ligatures:normal;font-variant-position:normal;font-variant-caps:normal;font-variant-numeric:normal;font-variant-alternates:normal;font-variant-east-asian:normal;font-feature-settings:normal;font-variation-settings:normal;text-indent:0;text-align:start;text-decoration-line:none;text-decoration-style:solid;text-decoration-color:#000000;letter-spacing:0px;word-spacing:normal;text-transform:none;writing-mode:lr-tb;direction:ltr;text-orientation:mixed;dominant-baseline:auto;baseline-shift:baseline;white-space:normal;fill-opacity:1;stroke-width:1.00000006;stroke-dasharray:none;stop-color:#000000;stop-opacity:1"
         x="268.00879"
         y="260.34464"
         id="tspan14713">You can pass drill bits</tspan><tspan
         sodipodi:role="line"
         style="font-style:normal;font-variant:normal;font-weight:bold;font-stretch:normal;font-size:20px;line-height:1.25;font-family:'Ink Free';-inkscape-font-specification:'Ink Free';font-variant-ligatures:normal;font-variant-position:normal;font-variant-caps:normal;font-variant-numeric:normal;font-variant-alternates:normal;font-variant-east-asian:normal;font-feature-settings:normal;font-variation-settings:normal;text-indent:0;text-align:start;text-decoration-line:none;text-decoration-style:solid;text-decoration-color:#000000;letter-spacing:0px;word-spacing:normal;text-transform:none;writing-mode:lr-tb;direction:ltr;text-orientation:mixed;dominant-baseline:auto;baseline-shift:baseline;white-space:normal;fill-opacity:1;stroke-width:1.00000006;stroke-dasharray:none;stop-color:#000000;stop-opacity:1"
         x="268.00879"
         y="285.34464"
         id="tspan14715">through the openings</tspan><tspan
         sodipodi:role="line"
         style="font-style:normal;font-variant:normal;font-weight:bold;font-stretch:normal;font-size:20px;line-height:1.25;font-family:'Ink Free';-inkscape-font-specification:'Ink Free';font-variant-ligatures:normal;font-variant-position:normal;font-variant-caps:normal;font-variant-numeric:normal;font-variant-alternates:normal;font-variant-east-asian:normal;font-feature-settings:normal;font-variation-settings:normal;text-indent:0;text-align:start;text-decoration-line:none;text-decoration-style:solid;text-decoration-color:#000000;letter-spacing:0px;word-spacing:normal;text-transform:none;writing-mode:lr-tb;direction:ltr;text-orientation:mixed;dominant-baseline:auto;baseline-shift:baseline;white-space:normal;fill-opacity:1;stroke-width:1.00000006;stroke-dasharray:none;stop-color:#000000;stop-opacity:1"
         x="268.00879"
         y="310.34464"
         id="tspan19723">to get a good alignment</tspan></text>
    <text
       xml:space="preserve"
       style="font-size:9.29113px;line-height:1.25;font-family:'Titillium Web';-inkscape-font-specification:'Titillium Web';letter-spacing:0px;stroke-width:0.633486"
       x="254.0069"
       y="188.89406"
       id="text12930"><tspan
         sodipodi:role="line"
         id="tspan12928"
         style="stroke-width:0.633486"
         x="254.0069"
         y="188.89406" /></text>
    <path
       id="path69849-0-6"
       style="font-variation-settings:normal;fill:none;fill-opacity:0.287206;fill-rule:evenodd;stop-color:#000000;stroke-width:3.00000018;stroke-dasharray:none"
       d="m 302.29011,130.14004 c 6e-5,9.96223 -9.65275,23.06156 -19.8808,20.65799 -8.72344,-2.0501 -17.44205,-9.89465 -19.02397,-18.0382 -1.89965,-9.77943 8.51736,-18.03819 19.02397,-18.03819 10.50668,0 19.88086,5.45617 19.8808,15.4184 z"
       sodipodi:nodetypes="sssss"
       class="drawing__outline" />
  </g>
</svg>
