<?xml version="1.0" encoding="UTF-8" standalone="no"?>
<!-- Created with Inkscape (http://www.inkscape.org/) -->

<svg
   width="500"
   height="240"
   viewBox="0 0 132.29166 63.500001"
   version="1.1"
   id="svg56561"
   inkscape:version="1.2 (dc2aeda, 2022-05-15)"
   sodipodi:docname="03.svg"
   class="manual__2C__img"
   xmlns:inkscape="http://www.inkscape.org/namespaces/inkscape"
   xmlns:sodipodi="http://sodipodi.sourceforge.net/DTD/sodipodi-0.dtd"
   xmlns="http://www.w3.org/2000/svg"
   xmlns:svg="http://www.w3.org/2000/svg">
  <sodipodi:namedview
     id="namedview56563"
     pagecolor="#ffffff"
     bordercolor="#666666"
     borderopacity="1.0"
     inkscape:showpageshadow="2"
     inkscape:pageopacity="0.0"
     inkscape:pagecheckerboard="0"
     inkscape:deskcolor="#d1d1d1"
     inkscape:document-units="mm"
     showgrid="false"
     inkscape:zoom="2.011531"
     inkscape:cx="151.12867"
     inkscape:cy="55.181848"
     inkscape:window-width="1920"
     inkscape:window-height="1007"
     inkscape:window-x="0"
     inkscape:window-y="0"
     inkscape:window-maximized="1"
     inkscape:current-layer="annotations" />
  <defs
     id="defs56558">
    <rect
       x="241.53913"
       y="107.59286"
       width="28.325789"
       height="30.85069"
       id="rect516" />
    <marker
       style="overflow:visible"
       id="Arrow2-4-5"
       refX="0"
       refY="0"
       orient="auto-start-reverse"
       inkscape:stockid="Arrow2"
       markerWidth="4.6999998"
       markerHeight="3.4181819"
       viewBox="0 0 7.7 5.6"
       inkscape:isstock="true"
       inkscape:collect="always"
       preserveAspectRatio="xMidYMid">
      <path
         transform="scale(0.7)"
         d="M -2,-4 9,0 -2,4 c 2,-2.33 2,-5.66 0,-8 z"
         style="fill:context-stroke;fill-rule:evenodd;stroke:none"
         id="arrow2L-3-8" />
    </marker>
  </defs>
  <g
     inkscape:label="Layer 1"
     inkscape:groupmode="layer"
     id="layer1">
    <g
       id="annotations"
       class="drawing__annotation"
       transform="translate(0,2.7148653)">
      <text
         xml:space="preserve"
         style="font-style:normal;font-variant:normal;font-weight:bold;font-stretch:normal;font-size:5.29167px;line-height:1.25;font-family:'Ink Free';-inkscape-font-specification:'Ink Free';font-variant-ligatures:normal;font-variant-position:normal;font-variant-caps:normal;font-variant-numeric:normal;font-variant-alternates:normal;font-variant-east-asian:normal;font-feature-settings:normal;font-variation-settings:normal;text-indent:0;text-align:start;text-decoration-line:none;text-decoration-style:solid;text-decoration-color:#000000;letter-spacing:0px;word-spacing:normal;text-transform:none;writing-mode:lr-tb;direction:ltr;text-orientation:mixed;dominant-baseline:auto;baseline-shift:baseline;white-space:normal;fill-opacity:1;stroke-width:0.26458333;stroke-dasharray:none;stop-color:#000000"
         x="53.108749"
         y="17.189175"
         id="text45650"><tspan
           sodipodi:role="line"
           style="font-style:normal;font-variant:normal;font-weight:bold;font-stretch:normal;font-size:5.29167px;line-height:1.25;font-family:'Ink Free';-inkscape-font-specification:'Ink Free';font-variant-ligatures:normal;font-variant-position:normal;font-variant-caps:normal;font-variant-numeric:normal;font-variant-alternates:normal;font-variant-east-asian:normal;font-feature-settings:normal;font-variation-settings:normal;text-indent:0;text-align:start;text-decoration-line:none;text-decoration-style:solid;text-decoration-color:#000000;letter-spacing:0px;word-spacing:normal;text-transform:none;writing-mode:lr-tb;direction:ltr;text-orientation:mixed;dominant-baseline:auto;baseline-shift:baseline;white-space:normal;fill-opacity:1;stroke-width:0.26458333;stroke-dasharray:none;stop-color:#000000;stop-opacity:1"
           x="53.108749"
           y="17.189175"
           id="tspan45648">Thread also the smaller </tspan><tspan
           sodipodi:role="line"
           style="font-style:normal;font-variant:normal;font-weight:bold;font-stretch:normal;font-size:5.29167px;line-height:1.25;font-family:'Ink Free';-inkscape-font-specification:'Ink Free';font-variant-ligatures:normal;font-variant-position:normal;font-variant-caps:normal;font-variant-numeric:normal;font-variant-alternates:normal;font-variant-east-asian:normal;font-feature-settings:normal;font-variation-settings:normal;text-indent:0;text-align:start;text-decoration-line:none;text-decoration-style:solid;text-decoration-color:#000000;letter-spacing:0px;word-spacing:normal;text-transform:none;writing-mode:lr-tb;direction:ltr;text-orientation:mixed;dominant-baseline:auto;baseline-shift:baseline;white-space:normal;fill-opacity:1;stroke-width:0.26458333;stroke-dasharray:none;stop-color:#000000;stop-opacity:1"
           x="53.108749"
           y="23.803762"
           id="tspan74739">opening of the dispersion plate. </tspan></text>
      <text
         xml:space="preserve"
         style="font-style:normal;font-variant:normal;font-weight:bold;font-stretch:normal;font-size:5.29167px;line-height:1.25;font-family:'Ink Free';-inkscape-font-specification:'Ink Free';font-variant-ligatures:normal;font-variant-position:normal;font-variant-caps:normal;font-variant-numeric:normal;font-variant-alternates:normal;font-variant-east-asian:normal;font-feature-settings:normal;font-variation-settings:normal;text-indent:0;text-align:start;text-decoration-line:none;text-decoration-style:solid;text-decoration-color:#000000;letter-spacing:0px;word-spacing:normal;text-transform:none;writing-mode:lr-tb;direction:ltr;text-orientation:mixed;dominant-baseline:auto;baseline-shift:baseline;white-space:normal;fill-opacity:1;stroke-width:0.26458333;stroke-dasharray:none;stop-color:#000000"
         x="54.365032"
         y="5.798759"
         id="text23457-0-6-7-8-6-0"><tspan
           sodipodi:role="line"
           style="font-style:normal;font-variant:normal;font-weight:bold;font-stretch:normal;font-size:5.29167px;line-height:1.25;font-family:'Ink Free';-inkscape-font-specification:'Ink Free';font-variant-ligatures:normal;font-variant-position:normal;font-variant-caps:normal;font-variant-numeric:normal;font-variant-alternates:normal;font-variant-east-asian:normal;font-feature-settings:normal;font-variation-settings:normal;text-indent:0;text-align:start;text-decoration-line:none;text-decoration-style:solid;text-decoration-color:#000000;letter-spacing:0px;word-spacing:normal;text-transform:none;writing-mode:lr-tb;direction:ltr;text-orientation:mixed;dominant-baseline:auto;baseline-shift:baseline;white-space:normal;fill-opacity:1;stroke-width:0.26458333;stroke-dasharray:none;stop-color:#000000;stop-opacity:1"
           x="54.365032"
           y="5.798759"
           id="tspan55804-7-5-2">3</tspan></text>
      <text
         xml:space="preserve"
         style="font-style:normal;font-variant:normal;font-weight:bold;font-stretch:normal;font-size:5.29167px;line-height:1.25;font-family:'Ink Free';-inkscape-font-specification:'Ink Free';font-variant-ligatures:normal;font-variant-position:normal;font-variant-caps:normal;font-variant-numeric:normal;font-variant-alternates:normal;font-variant-east-asian:normal;font-feature-settings:normal;font-variation-settings:normal;text-indent:0;text-align:start;text-decoration-line:none;text-decoration-style:solid;text-decoration-color:#000000;letter-spacing:0px;word-spacing:normal;text-transform:none;writing-mode:lr-tb;direction:ltr;text-orientation:mixed;dominant-baseline:auto;baseline-shift:baseline;white-space:normal;fill-opacity:1;stroke-width:0.26458333;stroke-dasharray:none;stop-color:#000000"
         x="53.108749"
         y="33.791595"
         id="text512"><tspan
           sodipodi:role="line"
           style="font-style:normal;font-variant:normal;font-weight:bold;font-stretch:normal;font-size:5.29167px;line-height:1.25;font-family:'Ink Free';-inkscape-font-specification:'Ink Free';font-variant-ligatures:normal;font-variant-position:normal;font-variant-caps:normal;font-variant-numeric:normal;font-variant-alternates:normal;font-variant-east-asian:normal;font-feature-settings:normal;font-variation-settings:normal;text-indent:0;text-align:start;text-decoration-line:none;text-decoration-style:solid;text-decoration-color:#000000;letter-spacing:0px;word-spacing:normal;text-transform:none;writing-mode:lr-tb;direction:ltr;text-orientation:mixed;dominant-baseline:auto;baseline-shift:baseline;white-space:normal;fill-opacity:1;stroke-width:0.26458333;stroke-dasharray:none;stop-color:#000000;stop-opacity:1"
           x="53.108749"
           y="33.791595"
           id="tspan504">The tap should run freely on</tspan><tspan
           sodipodi:role="line"
           style="font-style:normal;font-variant:normal;font-weight:bold;font-stretch:normal;font-size:5.29167px;line-height:1.25;font-family:'Ink Free';-inkscape-font-specification:'Ink Free';font-variant-ligatures:normal;font-variant-position:normal;font-variant-caps:normal;font-variant-numeric:normal;font-variant-alternates:normal;font-variant-east-asian:normal;font-feature-settings:normal;font-variation-settings:normal;text-indent:0;text-align:start;text-decoration-line:none;text-decoration-style:solid;text-decoration-color:#000000;letter-spacing:0px;word-spacing:normal;text-transform:none;writing-mode:lr-tb;direction:ltr;text-orientation:mixed;dominant-baseline:auto;baseline-shift:baseline;white-space:normal;fill-opacity:1;stroke-width:0.26458333;stroke-dasharray:none;stop-color:#000000;stop-opacity:1"
           x="53.108749"
           y="40.406181"
           id="tspan506">the other opening! If that is </tspan><tspan
           sodipodi:role="line"
           style="font-style:normal;font-variant:normal;font-weight:bold;font-stretch:normal;font-size:5.29167px;line-height:1.25;font-family:'Ink Free';-inkscape-font-specification:'Ink Free';font-variant-ligatures:normal;font-variant-position:normal;font-variant-caps:normal;font-variant-numeric:normal;font-variant-alternates:normal;font-variant-east-asian:normal;font-feature-settings:normal;font-variation-settings:normal;text-indent:0;text-align:start;text-decoration-line:none;text-decoration-style:solid;text-decoration-color:#000000;letter-spacing:0px;word-spacing:normal;text-transform:none;writing-mode:lr-tb;direction:ltr;text-orientation:mixed;dominant-baseline:auto;baseline-shift:baseline;white-space:normal;fill-opacity:1;stroke-width:0.26458333;stroke-dasharray:none;stop-color:#000000;stop-opacity:1"
           x="53.108749"
           y="47.020771"
           id="tspan508">not the case, enlarge that </tspan><tspan
           sodipodi:role="line"
           style="font-style:normal;font-variant:normal;font-weight:bold;font-stretch:normal;font-size:5.29167px;line-height:1.25;font-family:'Ink Free';-inkscape-font-specification:'Ink Free';font-variant-ligatures:normal;font-variant-position:normal;font-variant-caps:normal;font-variant-numeric:normal;font-variant-alternates:normal;font-variant-east-asian:normal;font-feature-settings:normal;font-variation-settings:normal;text-indent:0;text-align:start;text-decoration-line:none;text-decoration-style:solid;text-decoration-color:#000000;letter-spacing:0px;word-spacing:normal;text-transform:none;writing-mode:lr-tb;direction:ltr;text-orientation:mixed;dominant-baseline:auto;baseline-shift:baseline;white-space:normal;fill-opacity:1;stroke-width:0.26458333;stroke-dasharray:none;stop-color:#000000;stop-opacity:1"
           x="53.108749"
           y="53.635357"
           id="tspan510">opening a bit further.</tspan></text>
      <text
         xml:space="preserve"
         transform="scale(0.26458333)"
         id="text514"
         style="font-size:20px;line-height:1.25;font-family:'Titillium Web';-inkscape-font-specification:'Titillium Web';letter-spacing:0px;white-space:pre;shape-inside:url(#rect516);display:inline;stroke-width:1.00000001;stroke-dasharray:none" />
    </g>
    <g
       id="g44708"
       transform="matrix(1.7914698,0,0,1.7914698,-1282.1128,-122.01405)"
       class="drawing__outline"
       style="stroke-width:0.14769065;stroke-dasharray:none">
      <path
         style="font-variation-settings:normal;fill:#c4ffff;fill-opacity:0.287206;stroke-width:0.14769065;stop-color:#000000;stroke-dasharray:none"
         d="m 740.3017,90.546117 a 9.9295735,4.8978414 0 0 0 -9.92301,-4.71896 9.9297459,4.8979265 0 0 0 0,9.79585 9.9295735,4.8978414 0 0 0 9.92301,-5.07689 z"
         id="path9600-7" />
      <path
         id="path44542"
         style="font-variation-settings:normal;fill:#c4ffff;fill-opacity:0.287206;stroke-width:0.14769065;stop-color:#000000;stroke-dasharray:none"
         d="m 740.31649,90.725087 c 0,1.74986 -1.89293,3.36744 -4.96507,4.24212 -1.53607,0.43734 -3.25072,0.65577 -4.96507,0.65577 -1.71435,0 -3.42849,-0.21843 -4.96456,-0.65577 -3.07213,-0.87468 -4.96507,-2.49226 -4.96507,-4.24212 v 2.93057 c 0,1.74986 1.89294,3.36744 4.96507,4.24212 1.53607,0.43734 3.25021,0.65577 4.96456,0.65577 1.71435,0 3.429,-0.21843 4.96507,-0.65577 3.07214,-0.87468 4.96507,-2.49226 4.96507,-4.24212 z" />
      <path
         style="font-variation-settings:normal;fill:#c4ffff;fill-opacity:0.287206;stroke-width:0.14769065;stop-color:#000000;stroke-dasharray:none"
         d="m 722.22253,90.710257 a 0.37612024,0.18552432 0 0 1 -0.37525,0.19276 0.37612024,0.18552432 0 0 1 0,-0.37095 0.37612024,0.18552432 0 0 1 0.37525,0.17819 z"
         id="path44651" />
      <path
         style="font-variation-settings:normal;fill:#c4ffff;fill-opacity:0.287206;stroke-width:0.14769065;stop-color:#000000;stroke-dasharray:none"
         d="m 722.50968,91.799617 a 0.37612024,0.18552432 0 0 1 -0.37578,0.19277 0.37612024,0.18552432 0 0 1 0,-0.37096 0.37612024,0.18552432 0 0 1 0.37578,0.17819 z"
         id="path44649" />
      <path
         style="font-variation-settings:normal;fill:#c4ffff;fill-opacity:0.287206;stroke-width:0.14769065;stop-color:#000000;stroke-dasharray:none"
         d="m 722.51768,89.621407 a 0.37612024,0.18552432 0 0 1 -0.37578,0.19276 0.37612024,0.18552432 0 0 1 0,-0.37095 0.37612024,0.18552432 0 0 1 0.37578,0.17819 z"
         id="path44647" />
      <path
         style="font-variation-settings:normal;fill:#c4ffff;fill-opacity:0.287206;stroke-width:0.14769065;stop-color:#000000;stroke-dasharray:none"
         d="m 723.35836,92.815357 a 0.37612024,0.18552432 0 0 1 -0.37577,0.19276 0.37629161,0.18560884 0 0 1 0,-0.37121 0.37612024,0.18552432 0 0 1 0.37577,0.17845 z"
         id="path44645" />
      <path
         style="font-variation-settings:normal;fill:#c4ffff;fill-opacity:0.287206;stroke-width:0.14769065;stop-color:#000000;stroke-dasharray:none"
         d="m 723.37336,88.607457 a 0.37612024,0.18552432 0 0 1 -0.37526,0.19251 0.37612024,0.18552432 0 0 1 0,-0.37096 0.37612024,0.18552432 0 0 1 0.37526,0.17845 z"
         id="path44643" />
      <path
         style="font-variation-settings:normal;fill:#c4ffff;fill-opacity:0.287206;stroke-width:0.14769065;stop-color:#000000;stroke-dasharray:none"
         d="m 724.6738,92.449257 a 0.37612024,0.18552432 0 0 1 -0.37577,0.19276 0.37629161,0.18560884 0 0 1 0,-0.37121 0.37612024,0.18552432 0 0 1 0.37577,0.17845 z"
         id="path44641" />
      <path
         style="font-variation-settings:normal;fill:#c4ffff;fill-opacity:0.287206;stroke-width:0.14769065;stop-color:#000000;stroke-dasharray:none"
         d="m 724.6738,88.986087 a 0.37612024,0.18552432 0 0 1 -0.37577,0.19277 0.37612024,0.18552432 0 0 1 0,-0.37097 0.37612024,0.18552432 0 0 1 0.37577,0.1782 z"
         id="path44639" />
      <path
         style="font-variation-settings:normal;fill:#c4ffff;fill-opacity:0.287206;stroke-width:0.14769065;stop-color:#000000;stroke-dasharray:none"
         d="m 725.11591,87.970867 a 0.37612024,0.18552432 0 0 1 -0.37577,0.19277 0.37612024,0.18552432 0 0 1 0,-0.37097 0.37612024,0.18552432 0 0 1 0.37577,0.1782 z"
         id="path44637" />
      <path
         style="font-variation-settings:normal;fill:#c4ffff;fill-opacity:0.287206;stroke-width:0.14769065;stop-color:#000000;stroke-dasharray:none"
         d="m 725.17191,93.492087 a 0.37612024,0.18552432 0 0 1 -0.37578,0.19276 0.37629161,0.18560884 0 0 1 0,-0.37121 0.37612024,0.18552432 0 0 1 0.37578,0.17845 z"
         id="path44635" />
      <path
         style="font-variation-settings:normal;fill:#c4ffff;fill-opacity:0.287206;stroke-width:0.14769065;stop-color:#000000;stroke-dasharray:none"
         d="m 726.31685,88.538937 a 0.37612024,0.18552432 0 0 1 -0.37577,0.19277 0.37629161,0.18560884 0 0 1 0,-0.37121 0.37612024,0.18552432 0 0 1 0.37577,0.17844 z"
         id="path44633" />
      <path
         style="font-variation-settings:normal;fill:#c4ffff;fill-opacity:0.287206;stroke-width:0.14769065;stop-color:#000000;stroke-dasharray:none"
         d="m 726.33655,92.906627 a 0.37612522,0.18552677 0 0 1 -0.37576,0.19251 0.37612522,0.18552677 0 0 1 0,-0.37096 0.37612522,0.18552677 0 0 1 0.37576,0.17845 z"
         id="path44631" />
      <path
         style="font-variation-settings:normal;fill:#c4ffff;fill-opacity:0.287206;stroke-width:0.14769065;stop-color:#000000;stroke-dasharray:none"
         d="m 726.47495,94.358517 a 0.37612024,0.18552432 0 0 1 -0.37526,0.19251 0.37612024,0.18552432 0 0 1 0,-0.37096 0.37612024,0.18552432 0 0 1 0.37526,0.17845 z"
         id="path44629" />
      <path
         style="font-variation-settings:normal;fill:#c4ffff;fill-opacity:0.287206;stroke-width:0.14769065;stop-color:#000000;stroke-dasharray:none"
         d="m 726.50195,87.069917 a 0.37612024,0.18552432 0 0 1 -0.37578,0.19252 0.37612024,0.18552432 0 0 1 0,-0.37096 0.37612024,0.18552432 0 0 1 0.37578,0.17844 z"
         id="path44627" />
      <path
         style="font-variation-settings:normal;fill:#c4ffff;fill-opacity:0.287206;stroke-width:0.14769065;stop-color:#000000;stroke-dasharray:none"
         d="m 727.11822,90.746307 a 1.5044809,0.74209719 0 0 1 -1.50414,0.7207 1.5046482,0.74217971 0 0 1 0,-1.48435 1.5044809,0.74209719 0 0 1 1.50362,0.7138 1.5044809,0.74209719 0 0 1 5.2e-4,0.0499 z"
         id="path44625" />
      <path
         style="font-variation-settings:normal;fill:#c4ffff;fill-opacity:0.287206;stroke-width:0.14769065;stop-color:#000000;stroke-dasharray:none"
         d="m 727.24364,93.716817 a 0.37612024,0.18552432 0 0 1 -0.37577,0.19277 0.3763041,0.185615 0 0 1 0,-0.37123 0.37612024,0.18552432 0 0 1 0.37577,0.17846 z"
         id="path44623" />
      <path
         style="font-variation-settings:normal;fill:#c4ffff;fill-opacity:0.287206;stroke-width:0.14769065;stop-color:#000000;stroke-dasharray:none"
         d="m 727.24364,87.718527 a 0.37612024,0.18552432 0 0 1 -0.37577,0.19278 0.37630407,0.185615 0 0 1 0,-0.37123 0.37612024,0.18552432 0 0 1 0.37577,0.17845 z"
         id="path44621" />
      <path
         style="font-variation-settings:normal;fill:#c4ffff;fill-opacity:0.287206;stroke-width:0.14769065;stop-color:#000000;stroke-dasharray:none"
         d="m 727.99571,93.074337 a 0.37612024,0.18552432 0 0 1 -0.37578,0.19251 0.37612024,0.18552432 0 0 1 0,-0.37095 0.37612024,0.18552432 0 0 1 0.37578,0.17844 z"
         id="path44619" />
      <path
         style="font-variation-settings:normal;fill:#c4ffff;fill-opacity:0.287206;stroke-width:0.14769065;stop-color:#000000;stroke-dasharray:none"
         d="m 727.99571,88.361257 a 0.37612024,0.18552432 0 0 1 -0.37578,0.19277 0.37629536,0.18561069 0 0 1 0,-0.37122 0.37612024,0.18552432 0 0 1 0.37578,0.17845 z"
         id="path44617" />
      <path
         style="font-variation-settings:normal;fill:#c4ffff;fill-opacity:0.287206;stroke-width:0.14769065;stop-color:#000000;stroke-dasharray:none"
         d="m 728.58244,91.336107 a 0.37612024,0.18552432 0 0 1 -0.37577,0.19277 0.37629161,0.18560884 0 0 1 0,-0.37121 0.37612024,0.18552432 0 0 1 0.37577,0.17844 z"
         id="path44615" />
      <path
         style="font-variation-settings:normal;fill:#c4ffff;fill-opacity:0.287206;stroke-width:0.14769065;stop-color:#000000;stroke-dasharray:none"
         d="m 728.58244,90.099237 a 0.37612024,0.18552432 0 0 1 -0.37577,0.19276 0.37612024,0.18552432 0 0 1 0,-0.37096 0.37612024,0.18552432 0 0 1 0.37577,0.1782 z"
         id="path44613" />
      <path
         style="font-variation-settings:normal;fill:#c4ffff;fill-opacity:0.287206;stroke-width:0.14769065;stop-color:#000000;stroke-dasharray:none"
         d="m 728.64984,86.949247 a 0.37612024,0.18552432 0 0 1 -0.37577,0.19276 0.37629161,0.18560884 0 0 1 0,-0.37121 0.37612024,0.18552432 0 0 1 0.37577,0.17845 z"
         id="path44611" />
      <path
         style="font-variation-settings:normal;fill:#c4ffff;fill-opacity:0.287206;stroke-width:0.14769065;stop-color:#000000;stroke-dasharray:none"
         d="m 728.72604,94.496317 a 0.37612024,0.18552432 0 0 1 -0.37576,0.19276 0.37629161,0.18560884 0 0 1 0,-0.37121 0.37612024,0.18552432 0 0 1 0.37576,0.17845 z"
         id="path44609" />
      <path
         style="font-variation-settings:normal;fill:#c4ffff;fill-opacity:0.287206;stroke-width:0.14769065;stop-color:#000000;stroke-dasharray:none"
         d="m 729.12048,87.736687 a 0.37612024,0.18552432 0 0 1 -0.37577,0.19251 0.37612024,0.18552432 0 0 1 0,-0.37097 0.37612024,0.18552432 0 0 1 0.37577,0.17846 z"
         id="path44607" />
      <path
         style="font-variation-settings:normal;fill:#c4ffff;fill-opacity:0.287206;stroke-width:0.14769065;stop-color:#000000;stroke-dasharray:none"
         d="m 729.14698,93.702757 a 0.37612024,0.18552432 0 0 1 -0.37577,0.19276 0.37612024,0.18552432 0 0 1 0,-0.37096 0.37612024,0.18552432 0 0 1 0.37577,0.1782 z"
         id="path44605" />
      <path
         style="font-variation-settings:normal;fill:#c4ffff;fill-opacity:0.287206;stroke-width:0.14769065;stop-color:#000000;stroke-dasharray:none"
         d="m 730.73871,94.926087 a 0.37612024,0.18552432 0 0 1 -0.37577,0.19251 0.37612024,0.18552432 0 0 1 0,-0.37097 0.37612024,0.18552432 0 0 1 0.37577,0.17846 z"
         id="path44603" />
      <path
         style="font-variation-settings:normal;fill:#c4ffff;fill-opacity:0.287206;stroke-width:0.14769065;stop-color:#000000;stroke-dasharray:none"
         d="m 730.75421,94.180837 a 0.37612024,0.18552432 0 0 1 -0.37577,0.19277 0.37629161,0.18560884 0 0 1 0,-0.37121 0.37612024,0.18552432 0 0 1 0.37577,0.17844 z"
         id="path44601" />
      <path
         style="font-variation-settings:normal;fill:#c4ffff;fill-opacity:0.287206;stroke-width:0.14769065;stop-color:#000000;stroke-dasharray:none"
         d="m 730.75421,90.717677 a 0.37612024,0.18552432 0 0 1 -0.37577,0.19277 0.3763041,0.185615 0 0 1 0,-0.37123 0.37612024,0.18552432 0 0 1 0.37577,0.17846 z"
         id="path44599" />
      <path
         style="font-variation-settings:normal;fill:#c4ffff;fill-opacity:0.287206;stroke-width:0.14769065;stop-color:#000000;stroke-dasharray:none"
         d="m 730.75421,87.254507 a 0.37612024,0.18552432 0 0 1 -0.37577,0.19276 0.37612024,0.18552432 0 0 1 0,-0.37096 0.37612024,0.18552432 0 0 1 0.37577,0.1782 z"
         id="path44597" />
      <path
         style="font-variation-settings:normal;fill:#c4ffff;fill-opacity:0.287206;stroke-width:0.14769065;stop-color:#000000;stroke-dasharray:none"
         d="m 730.76971,86.510027 a 0.37612024,0.18552432 0 0 1 -0.37578,0.19251 0.37612024,0.18552432 0 0 1 0,-0.37096 0.37612024,0.18552432 0 0 1 0.37578,0.17845 z"
         id="path44595" />
      <path
         style="font-variation-settings:normal;fill:#c4ffff;fill-opacity:0.287206;stroke-width:0.14769065;stop-color:#000000;stroke-dasharray:none"
         d="m 732.36143,87.733107 a 0.37612024,0.18552432 0 0 1 -0.37578,0.19251 0.37612024,0.18552432 0 0 1 0,-0.37097 0.37612024,0.18552432 0 0 1 0.37578,0.17846 z"
         id="path44593" />
      <path
         style="font-variation-settings:normal;fill:#c4ffff;fill-opacity:0.287206;stroke-width:0.14769065;stop-color:#000000;stroke-dasharray:none"
         d="m 732.38793,93.699427 a 0.37612522,0.18552677 0 0 1 -0.37576,0.19251 0.37612522,0.18552677 0 0 1 0,-0.37096 0.37612522,0.18552677 0 0 1 0.37576,0.17845 z"
         id="path44591" />
      <path
         style="font-variation-settings:normal;fill:#c4ffff;fill-opacity:0.287206;stroke-width:0.14769065;stop-color:#000000;stroke-dasharray:none"
         d="m 732.74557,86.934427 a 0.37612024,0.18552432 0 0 1 -0.37577,0.19251 0.37612024,0.18552432 0 0 1 0,-0.37097 0.37612024,0.18552432 0 0 1 0.37577,0.17846 z"
         id="path44589" />
      <path
         style="font-variation-settings:normal;fill:#c4ffff;fill-opacity:0.287206;stroke-width:0.14769065;stop-color:#000000;stroke-dasharray:none"
         d="m 732.82177,94.491207 a 0.37612024,0.18552432 0 0 1 -0.37578,0.19251 0.37612024,0.18552432 0 0 1 0,-0.37096 0.37612024,0.18552432 0 0 1 0.37578,0.17845 z"
         id="path44587" />
      <path
         style="font-variation-settings:normal;fill:#c4ffff;fill-opacity:0.287206;stroke-width:0.14769065;stop-color:#000000;stroke-dasharray:none"
         d="m 732.92595,91.336107 a 0.37612024,0.18552432 0 0 1 -0.37578,0.19277 0.37629161,0.18560884 0 0 1 0,-0.37121 0.37612024,0.18552432 0 0 1 0.37578,0.17844 z"
         id="path44585" />
      <path
         style="font-variation-settings:normal;fill:#c4ffff;fill-opacity:0.287206;stroke-width:0.14769065;stop-color:#000000;stroke-dasharray:none"
         d="m 732.92595,90.099237 a 0.37612024,0.18552432 0 0 1 -0.37578,0.19276 0.37612024,0.18552432 0 0 1 0,-0.37096 0.37612024,0.18552432 0 0 1 0.37578,0.1782 z"
         id="path44583" />
      <path
         style="font-variation-settings:normal;fill:#c4ffff;fill-opacity:0.287206;stroke-width:0.14769065;stop-color:#000000;stroke-dasharray:none"
         d="m 733.51216,93.074337 a 0.37612024,0.18552432 0 0 1 -0.37526,0.19251 0.37612024,0.18552432 0 0 1 0,-0.37095 0.37612024,0.18552432 0 0 1 0.37526,0.17844 z"
         id="path44581" />
      <path
         style="font-variation-settings:normal;fill:#c4ffff;fill-opacity:0.287206;stroke-width:0.14769065;stop-color:#000000;stroke-dasharray:none"
         d="m 733.51216,88.361257 a 0.37612024,0.18552432 0 0 1 -0.37526,0.19277 0.37629536,0.18561069 0 0 1 0,-0.37122 0.37612024,0.18552432 0 0 1 0.37526,0.17845 z"
         id="path44579" />
      <path
         style="font-variation-settings:normal;fill:#c4ffff;fill-opacity:0.287206;stroke-width:0.14769065;stop-color:#000000;stroke-dasharray:none"
         d="m 734.26474,93.716817 a 0.37612024,0.18552432 0 0 1 -0.37578,0.19277 0.3763041,0.185615 0 0 1 0,-0.37123 0.37612024,0.18552432 0 0 1 0.37578,0.17846 z"
         id="path44577" />
      <path
         style="font-variation-settings:normal;fill:#c4ffff;fill-opacity:0.287206;stroke-width:0.14769065;stop-color:#000000;stroke-dasharray:none"
         d="m 734.26474,87.718527 a 0.37612024,0.18552432 0 0 1 -0.37578,0.19278 0.37630407,0.185615 0 0 1 0,-0.37123 0.37612024,0.18552432 0 0 1 0.37578,0.17845 z"
         id="path44575" />
      <path
         style="font-variation-settings:normal;fill:#c4ffff;fill-opacity:0.287206;stroke-width:0.14769065;stop-color:#000000;stroke-dasharray:none"
         d="m 735.00643,94.365927 a 0.37612024,0.18552432 0 0 1 -0.37577,0.19278 0.3763041,0.185615 0 0 1 0,-0.37123 0.37612024,0.18552432 0 0 1 0.37577,0.17845 z"
         id="path44573" />
      <path
         style="font-variation-settings:normal;fill:#c4ffff;fill-opacity:0.287206;stroke-width:0.14769065;stop-color:#000000;stroke-dasharray:none"
         d="m 735.03293,87.077597 a 0.37612024,0.18552432 0 0 1 -0.37525,0.19251 0.37612024,0.18552432 0 0 1 0,-0.37097 0.37612024,0.18552432 0 0 1 0.37525,0.17846 z"
         id="path44571" />
      <path
         style="font-variation-settings:normal;fill:#c4ffff;fill-opacity:0.287206;stroke-width:0.14769065;stop-color:#000000;stroke-dasharray:none"
         d="m 735.17185,88.529477 a 0.37612024,0.18552432 0 0 1 -0.37578,0.19251 0.37612024,0.18552432 0 0 1 0,-0.37095 0.37612024,0.18552432 0 0 1 0.37578,0.17844 z"
         id="path44569" />
      <path
         style="font-variation-settings:normal;fill:#c4ffff;fill-opacity:0.287206;stroke-width:0.14769065;stop-color:#000000;stroke-dasharray:none"
         d="m 735.19095,92.896917 a 0.37612024,0.18552432 0 0 1 -0.37525,0.19277 0.37630407,0.185615 0 0 1 0,-0.37123 0.37612024,0.18552432 0 0 1 0.37525,0.17846 z"
         id="path44567" />
      <path
         style="font-variation-settings:normal;fill:#c4ffff;fill-opacity:0.287206;stroke-width:0.14769065;stop-color:#000000;stroke-dasharray:none"
         d="m 736.30946,87.930217 a 0.37612024,0.18552432 0 0 1 -0.37578,0.19251 0.37612024,0.18552432 0 0 1 0,-0.37096 0.37612024,0.18552432 0 0 1 0.37578,0.17845 z"
         id="path44565" />
      <path
         style="font-variation-settings:normal;fill:#c4ffff;fill-opacity:0.287206;stroke-width:0.14769065;stop-color:#000000;stroke-dasharray:none"
         d="m 736.36546,93.477777 a 0.37612024,0.18552432 0 0 1 -0.37577,0.19276 0.37612024,0.18552432 0 0 1 0,-0.37096 0.37612024,0.18552432 0 0 1 0.37577,0.1782 z"
         id="path44563" />
      <path
         style="font-variation-settings:normal;fill:#c4ffff;fill-opacity:0.287206;stroke-width:0.14769065;stop-color:#000000;stroke-dasharray:none"
         d="m 736.39556,90.701057 a 1.253734,0.61841433 0 0 1 -1.25275,0.64222 1.2537963,0.618445 0 0 1 0,-1.23689 1.253734,0.61841433 0 0 1 1.25275,0.59467 z"
         id="path44561" />
      <path
         style="font-variation-settings:normal;fill:#c4ffff;fill-opacity:0.287206;stroke-width:0.14769065;stop-color:#000000;stroke-dasharray:none"
         d="m 736.83457,92.449257 a 0.37612024,0.18552432 0 0 1 -0.37578,0.19276 0.37629161,0.18560884 0 0 1 0,-0.37121 0.37612024,0.18552432 0 0 1 0.37578,0.17845 z"
         id="path44559" />
      <path
         style="font-variation-settings:normal;fill:#c4ffff;fill-opacity:0.287206;stroke-width:0.14769065;stop-color:#000000;stroke-dasharray:none"
         d="m 736.83457,88.986087 a 0.37612024,0.18552432 0 0 1 -0.37578,0.19277 0.37612024,0.18552432 0 0 1 0,-0.37097 0.37612024,0.18552432 0 0 1 0.37578,0.1782 z"
         id="path44557" />
      <path
         style="font-variation-settings:normal;fill:#c4ffff;fill-opacity:0.287206;stroke-width:0.14769065;stop-color:#000000;stroke-dasharray:none"
         d="m 738.13448,92.828657 a 0.37612024,0.18552432 0 0 1 -0.37576,0.19251 0.37612024,0.18552432 0 0 1 0,-0.37096 0.37612024,0.18552432 0 0 1 0.37576,0.17845 z"
         id="path44555" />
      <path
         style="font-variation-settings:normal;fill:#c4ffff;fill-opacity:0.287206;stroke-width:0.14769065;stop-color:#000000;stroke-dasharray:none"
         d="m 738.14998,88.620497 a 0.37612024,0.18552432 0 0 1 -0.37577,0.19277 0.37629536,0.18561069 0 0 1 0,-0.37122 0.37612024,0.18552432 0 0 1 0.37577,0.17845 z"
         id="path44553" />
      <path
         style="font-variation-settings:normal;fill:#c4ffff;fill-opacity:0.287206;stroke-width:0.14769065;stop-color:#000000;stroke-dasharray:none"
         d="m 738.99068,91.814447 a 0.37612024,0.18552432 0 0 1 -0.37577,0.19251 0.37612024,0.18552432 0 0 1 0,-0.37096 0.37612024,0.18552432 0 0 1 0.37577,0.17845 z"
         id="path44551" />
      <path
         style="font-variation-settings:normal;fill:#c4ffff;fill-opacity:0.287206;stroke-width:0.14769065;stop-color:#000000;stroke-dasharray:none"
         d="m 738.99868,89.636227 a 0.37612024,0.18552432 0 0 1 -0.37578,0.19252 0.37612024,0.18552432 0 0 1 0,-0.37097 0.37612024,0.18552432 0 0 1 0.37578,0.17845 z"
         id="path44549" />
      <path
         style="font-variation-settings:normal;fill:#c4ffff;fill-opacity:0.287206;stroke-width:0.14769065;stop-color:#000000;stroke-dasharray:none"
         d="m 739.2853,90.725597 a 0.37612024,0.18552432 0 0 1 -0.37578,0.19251 0.37612024,0.18552432 0 0 1 0,-0.37096 0.37612024,0.18552432 0 0 1 0.37578,0.17845 z"
         id="path44547" />
    </g>
    <path
       style="font-variation-settings:normal;display:inline;fill:none;fill-opacity:1;stroke-width:0.79375;stroke-dasharray:none;marker-end:url(#Arrow2-4-5);stop-color:#000000"
       d="m 34.909636,10.345799 v 5.215468 c 0,1.159137 0.632855,1.949013 0.890522,2.113721 1.855999,1.186419 1.6376,4.61006 -1.534358,4.61006 -1.982064,0 -1.983426,-2.011335 0.02669,-2.011335 3.585645,0 3.596538,4.955222 0.01845,4.955222 -2.029593,0 -2.040503,-1.988012 -0.03744,-1.988012 3.604957,0 3.615867,4.949688 0.02007,4.949688 -2.012017,0 -2.023197,-1.997579 -0.0072,-1.997579 3.591359,0 3.591359,5.053432 -0.01433,5.053432 -2.003381,0 -2.003381,-1.997613 0.01613,-1.997613 3.027226,0 3.345964,3.047055 1.68203,4.320559 -0.308886,0.236384 -1.127319,0.64045 -1.126943,1.337906 l 0.0013,2.309166"
       id="path4550-3-7"
       inkscape:connector-curvature="0"
       sodipodi:nodetypes="cssssssssssssc"
       class="drawing__outline" />
    <path
       id="path69849-0-8"
       style="font-variation-settings:normal;fill:none;fill-opacity:1;fill-rule:evenodd;stroke-width:0.79375;stroke-dasharray:none;stop-color:#000000"
       d="m 61.422993,6.4806753 c 1.5e-5,2.6788517 -2.595633,6.2012727 -5.345964,5.5549487 -2.34574,-0.551273 -4.690182,-2.6606759 -5.11556,-4.8504831 -0.51082,-2.6296968 2.290324,-4.8504838 5.11556,-4.8504838 2.825253,0 5.345979,1.4671661 5.345964,4.1460182 z"
       sodipodi:nodetypes="sssss"
       class="drawing__outline" />
    <g
       id="g45663"
       transform="matrix(1.7914698,0,0,1.7914698,-1282.1273,-119.18118)"
       style="stroke-width:0.44307194;stroke-dasharray:none">
      <path
         style="font-variation-settings:normal;opacity:1;fill:none;fill-opacity:1;stroke:#ff0000;stroke-width:0.44307194;stroke-linecap:butt;stroke-linejoin:miter;stroke-miterlimit:4;stroke-dasharray:none;stroke-dashoffset:0;stroke-opacity:1;stop-color:#000000;stop-opacity:1"
         d="m 726.90299,87.452403 -2.27132,1.676863"
         id="path45091" />
      <path
         style="font-variation-settings:normal;opacity:1;fill:none;fill-opacity:1;stroke:#ff0000;stroke-width:0.44307194;stroke-linecap:butt;stroke-linejoin:miter;stroke-miterlimit:4;stroke-dasharray:none;stroke-dashoffset:0;stroke-opacity:1;stop-color:#000000;stop-opacity:1"
         d="m 724.88737,87.187041 1.75992,2.207587"
         id="path45642" />
    </g>
  </g>
</svg>
