<?xml version="1.0" encoding="UTF-8" standalone="no"?>
<!-- Created with Inkscape (http://www.inkscape.org/) -->

<svg
   width="500"
   height="250"
   viewBox="0 0 132.29166 66.145833"
   version="1.1"
   id="svg102651"
   inkscape:version="1.2 (dc2aeda, 2022-05-15)"
   sodipodi:docname="05.svg"
   class="manual__2C__img"
   xmlns:inkscape="http://www.inkscape.org/namespaces/inkscape"
   xmlns:sodipodi="http://sodipodi.sourceforge.net/DTD/sodipodi-0.dtd"
   xmlns="http://www.w3.org/2000/svg"
   xmlns:svg="http://www.w3.org/2000/svg">
  <sodipodi:namedview
     id="namedview102653"
     pagecolor="#ffffff"
     bordercolor="#666666"
     borderopacity="1.0"
     inkscape:showpageshadow="2"
     inkscape:pageopacity="0.0"
     inkscape:pagecheckerboard="0"
     inkscape:deskcolor="#d1d1d1"
     inkscape:document-units="mm"
     showgrid="false"
     inkscape:zoom="0.94868994"
     inkscape:cx="75.894132"
     inkscape:cy="132.81473"
     inkscape:window-width="1920"
     inkscape:window-height="1007"
     inkscape:window-x="0"
     inkscape:window-y="0"
     inkscape:window-maximized="1"
     inkscape:current-layer="layer1" />
  <defs
     id="defs102648">
    <marker
       style="overflow:visible"
       id="Arrow2-4-7-8"
       refX="0"
       refY="0"
       orient="auto-start-reverse"
       inkscape:stockid="Arrow2"
       markerWidth="4.6999998"
       markerHeight="3.4181819"
       viewBox="0 0 7.7 5.6"
       inkscape:isstock="true"
       inkscape:collect="always"
       preserveAspectRatio="xMidYMid">
      <path
         transform="scale(0.7)"
         d="M -2,-4 9,0 -2,4 c 2,-2.33 2,-5.66 0,-8 z"
         style="fill:context-stroke;fill-rule:evenodd;stroke:none"
         id="arrow2L-3-6-5" />
    </marker>
    <inkscape:path-effect
       effect="perspective-envelope"
       up_left_point="23.053774,48.277583"
       up_right_point="38.234344,48.307901"
       down_left_point="22.685416,50.597654"
       down_right_point="38.626372,50.597654"
       id="path-effect31215"
       is_visible="true"
       lpeversion="1"
       deform_type="perspective"
       horizontal_mirror="false"
       vertical_mirror="false"
       overflow_perspective="false" />
  </defs>
  <g
     inkscape:label="Layer 1"
     inkscape:groupmode="layer"
     id="layer1">
    <g
       id="drawing"
       transform="matrix(1.1445151,0,0,1.1445151,-769.02799,-96.274139)"
       class="drawing__outline"
       style="stroke-width:0.23117505;stroke-dasharray:none">
      <path
         style="font-variation-settings:normal;opacity:1;fill:#c4ffff;fill-opacity:0.287206;stop-color:#000000;stop-opacity:1;stroke-width:0.23117505;stroke-dasharray:none"
         d="m 679.4968,105.1155 c -2.07813,4.9e-4 -3.6846,0.8835 -3.76279,1.96738 l -1.49004,20.6534 c -0.0782,1.08345 1.79139,1.96713 4.00118,1.96713 h 42.01492 c 2.21078,0 4.07986,-0.88368 4.00169,-1.96713 l -1.49004,-20.6534 c -0.0782,-1.08388 -1.68421,-1.96689 -3.76327,-1.96738 z"
         id="path23485" />
      <path
         style="font-variation-settings:normal;opacity:1;fill:#c4ffff;fill-opacity:0.287206;stop-color:#000000;stop-opacity:1;stroke-width:0.23117505;stroke-dasharray:none"
         d="m 709.30801,115.40497 c 1.0402,0.006 2.03948,0.20702 2.79255,0.56338 0.80429,0.38007 1.25722,0.90438 1.25722,1.45253 10e-4,0.73876 -0.82124,1.41853 -2.14171,1.77146 -1.32047,0.35293 -2.92687,0.32258 -4.18832,-0.079 -1.16741,-0.37167 -1.87289,-1.0088 -1.87289,-1.69243 0,-0.73875 0.82227,-1.41832 2.14274,-1.77119 0.5542,-0.14821 1.17134,-0.2316 1.80157,-0.24345 0.0696,-0.001 0.1395,-0.001 0.20884,-0.001 z"
         id="path23487" />
      <path
         style="font-variation-settings:normal;opacity:1;fill:#c4ffff;fill-opacity:0.287206;stop-color:#000000;stop-opacity:1;stroke-width:0.23117505;stroke-dasharray:none"
         d="m 689.30162,115.40497 c 1.03948,0.006 2.03947,0.20702 2.79255,0.56338 0.80328,0.38007 1.25773,0.90438 1.25773,1.45253 0,0.72032 -0.78227,1.38589 -2.05072,1.74605 -1.26946,0.36015 -2.83302,0.36015 -4.10147,0 -1.26945,-0.36016 -2.05073,-1.02573 -2.05073,-1.74605 0,-1.08346 1.74153,-1.97314 3.94431,-2.01464 0.0696,-10e-4 0.13903,-10e-4 0.20833,-10e-4 z"
         id="path23489" />
      <path
         id="path23491"
         style="font-variation-settings:normal;opacity:1;fill:#c4ffff;fill-opacity:0.287206;stop-color:#000000;stop-opacity:1;stroke-width:0.23117505;stroke-dasharray:none"
         d="m 724.26174,127.85369 c -0.0593,1.02908 -1.87159,1.8495 -4.00183,1.8495 h -42.015 c -2.12607,0 -3.93625,-0.81795 -4.00079,-1.84484 v 5.87767 c -0.0782,1.08345 1.791,1.96732 4.00079,1.96732 h 42.015 c 2.21078,0 4.07999,-0.88387 4.00183,-1.96732 z" />
    </g>
    <g
       id="annotations"
       class="drawing__annotation">
      <path
         id="path31211"
         style="font-weight:bold;font-size:3.88056px;line-height:1.25;font-family:'Ink Free';-inkscape-font-specification:'Ink Free';letter-spacing:0px;baseline-shift:baseline;stop-color:#000000;stroke-width:0.26458333;stroke-dasharray:none"
         d="m 38.395516,49.249444 c 0.0054,0.03178 -0.0042,0.05608 -0.02908,0.07288 -0.023,0.01682 -0.06885,0.02989 -0.137568,0.03919 -0.165291,0.02987 -0.257918,0.04669 -0.277688,0.05045 l -0.175777,0.03088 c 0.01544,0.09815 0.03267,0.201455 0.05169,0.309984 0.02099,0.10903 0.0408,0.205084 0.05942,0.288005 0.02523,0.112297 0.05208,0.198817 0.08052,0.259277 0.02851,0.06061 0.04436,0.09489 0.04751,0.102734 0.0031,0.01961 -0.0064,0.03729 -0.02845,0.05304 -0.01995,0.01768 -0.04036,0.02652 -0.06122,0.02652 -0.01138,-10e-7 -0.02147,-0.0039 -0.03027,-0.01179 -0.0085,-0.0059 -0.01682,-0.01668 -0.02499,-0.03244 -0.01565,-0.02747 -0.03494,-0.07842 -0.05783,-0.152716 -0.02093,-0.07405 -0.04113,-0.155628 -0.06059,-0.244656 -0.01784,-0.07908 -0.03664,-0.170368 -0.0564,-0.273721 -0.01814,-0.104806 -0.03465,-0.205364 -0.04954,-0.301725 -0.101351,0.01686 -0.205011,0.03753 -0.311008,0.06203 -0.09552,0.02073 -0.152624,0.03109 -0.171237,0.03107 -0.02235,-2e-5 -0.04469,-0.0067 -0.06701,-0.01997 -0.02049,-0.01328 -0.03234,-0.03124 -0.03555,-0.05388 -0.0035,-0.02451 0.0026,-0.04054 0.01821,-0.04809 0.01562,-0.0075 0.04292,-0.01124 0.08191,-0.0112 0.02783,2.8e-5 0.06797,-0.0046 0.120402,-0.014 0.05212,-0.01124 0.0853,-0.01872 0.09958,-0.02243 0.120474,-0.02432 0.202297,-0.04019 0.24557,-0.04763 -0.0061,-0.03936 -0.01592,-0.0908 -0.02949,-0.15424 -0.01698,-0.08557 -0.02887,-0.150461 -0.03572,-0.194852 -0.0111,-0.07196 -0.01774,-0.127156 -0.01995,-0.165714 -7.78e-4,-0.04034 0.0028,-0.07601 0.01086,-0.107052 0.0089,-0.03647 0.03346,-0.05465 0.07361,-0.05458 0.0164,2.8e-5 0.02778,0.0028 0.03414,0.0082 0.0063,0.0055 0.0106,0.01554 0.0129,0.03011 0.0017,0.01096 0.0022,0.04293 0.0014,0.09598 -7.87e-4,0.05319 0.0058,0.124003 0.01967,0.212595 0.01076,0.06852 0.02475,0.145624 0.042,0.231384 l 0.01479,0.07577 c 0.08114,-0.01304 0.240045,-0.04746 0.476259,-0.103171 0.01409,-0.0038 0.02387,-0.01682 0.02934,-0.03906 0.0073,-0.02233 0.01646,-0.03347 0.02751,-0.03346 0.02025,2.6e-5 0.04257,0.01212 0.06695,0.03632 0.02594,0.02239 0.041,0.0457 0.04515,0.06994 z m -1.294753,1.138504 c 0.0044,0.03141 -6.79e-4,0.05596 -0.01526,0.07364 -0.01459,0.0177 -0.03708,0.02655 -0.06746,0.02654 -0.03797,-3e-6 -0.07874,-0.04133 -0.12221,-0.123782 -0.04143,-0.08217 -0.07179,-0.166982 -0.09112,-0.254404 -0.01874,-0.08324 -0.04693,-0.250761 -0.08433,-0.500807 -0.0073,-0.03985 -0.01361,-0.07962 -0.01895,-0.119315 -0.0056,-0.04154 -0.01124,-0.0764 -0.01696,-0.104617 -0.03648,0.130081 -0.09039,0.278953 -0.161951,0.446977 -0.07208,0.169249 -0.148693,0.315435 -0.229756,0.438118 -0.07959,0.12334 -0.149944,0.185252 -0.210749,0.185244 -0.06271,-8e-6 -0.108543,-0.03444 -0.137426,-0.103152 -0.0269,-0.06852 -0.04889,-0.176766 -0.06595,-0.324206 -0.01584,-0.136919 -0.01685,-0.291199 -0.0032,-0.462486 0.01545,-0.170043 0.04019,-0.298624 0.0742,-0.386413 0.01381,-0.03913 0.0264,-0.06517 0.03779,-0.07816 0.01116,-0.01483 0.02503,-0.02223 0.04163,-0.02221 0.04614,6.1e-5 0.07034,0.0094 0.07262,0.02796 0.0011,0.0093 -0.0055,0.0307 -0.01984,0.06424 -0.03863,0.09336 -0.06865,0.205907 -0.09004,0.337928 -0.0215,0.132771 -0.01897,0.31228 0.0079,0.539577 0.01813,0.153388 0.04807,0.230458 0.08974,0.23047 0.04922,1.4e-5 0.108695,-0.05559 0.178174,-0.166407 0.07079,-0.112222 0.13761,-0.245034 0.200406,-0.398084 0.06239,-0.152042 0.107479,-0.283331 0.135474,-0.394213 0.0098,-0.03747 0.01873,-0.09543 0.02674,-0.173737 0.0013,-0.03164 0.0038,-0.05392 0.0077,-0.06688 0.0036,-0.01482 0.009,-0.02222 0.0164,-0.02221 0.02028,2.7e-5 0.04351,0.0084 0.06972,0.02512 0.02627,0.01673 0.04069,0.0344 0.04323,0.053 0.01225,0.08949 0.03617,0.244088 0.07199,0.465097 0.03779,0.221181 0.06746,0.375892 0.08881,0.462814 0.01793,0.07559 0.0393,0.134874 0.0641,0.177734 0.02674,0.04295 0.05136,0.07715 0.07382,0.102578 0.02221,0.02352 0.03374,0.03822 0.03456,0.04409 z m -1.47798,-0.55345 c 0.0083,0.07495 -0.0094,0.161705 -0.05325,0.260409 -0.04405,0.09912 -0.112483,0.184971 -0.205393,0.257401 -0.09341,0.07069 -0.204934,0.106116 -0.334381,0.106101 -0.127567,-1.6e-5 -0.225201,-0.03646 -0.292734,-0.109177 -0.06733,-0.0725 -0.105717,-0.162339 -0.115266,-0.269301 -0.0083,-0.09295 -0.0025,-0.207664 0.01718,-0.343816 0.02144,-0.135366 0.05713,-0.255756 0.107011,-0.361392 0.0031,-0.0075 0.01544,-0.03479 0.03699,-0.08173 0.02325,-0.04871 0.0504,-0.08516 0.08145,-0.109409 0.03082,-0.02608 0.06474,-0.03908 0.101801,-0.03904 0.01665,2.1e-5 0.03193,0.0047 0.04584,0.01404 0.01554,0.0075 0.02396,0.01775 0.02527,0.03084 3.81e-4,0.0038 -0.0043,0.01315 -0.01391,0.02801 -0.008,0.0131 -0.01439,0.02339 -0.01924,0.03086 -0.05559,0.07683 -0.09936,0.152997 -0.13124,0.228485 -0.04309,0.0966 -0.0752,0.192658 -0.09628,0.288164 -0.01928,0.0959 -0.0237,0.200892 -0.01317,0.315082 0.01418,0.153764 0.112441,0.23104 0.294666,0.231086 0.0854,2.1e-5 0.161569,-0.0254 0.2284,-0.07619 0.06857,-0.05067 0.120746,-0.111913 0.156553,-0.183652 0.03551,-0.07345 0.05001,-0.139953 0.04358,-0.19956 -0.0072,-0.06712 -0.03509,-0.125466 -0.08349,-0.175113 -0.04825,-0.04955 -0.112604,-0.101861 -0.193002,-0.156917 -0.05218,-0.03599 -0.09057,-0.06533 -0.115209,-0.08802 -0.02463,-0.02267 -0.03769,-0.04153 -0.0392,-0.05658 -0.0023,-0.02259 0.01177,-0.04043 0.04207,-0.05352 0.03009,-0.01496 0.06647,-0.02242 0.109175,-0.02237 0.02412,2.7e-5 0.04011,0.002 0.04798,0.0058 0.0076,0.002 0.01182,0.0067 0.0126,0.01409 4.01e-4,0.0038 -0.0026,0.01042 -0.0091,0.01974 -0.0048,0.0075 -0.0068,0.01409 -0.0063,0.01976 5.9e-4,0.0057 0.02115,0.02451 0.06172,0.05655 0.08111,0.06238 0.150393,0.125845 0.207821,0.190418 0.05757,0.06474 0.09128,0.141104 0.101046,0.229208 z m -2.040249,-0.139336 c 0.01317,10e-6 0.02073,0.01435 0.0227,0.04304 0.0024,0.03451 -0.01788,0.110339 -0.06089,0.227896 -0.04134,0.11818 -0.110034,0.228164 -0.206251,0.329841 -0.09474,0.102126 -0.216737,0.15335 -0.365719,0.153331 -0.122268,-1.6e-5 -0.226459,-0.03947 -0.312351,-0.118186 -0.08562,-0.07846 -0.132005,-0.198589 -0.139323,-0.359745 -0.0068,-0.150458 0.02032,-0.298032 0.08114,-0.442753 0.06035,-0.145715 0.142201,-0.263277 0.24552,-0.353101 0.1028,-0.09133 0.211519,-0.136779 0.326454,-0.136624 0.06858,9.3e-5 0.127023,0.01598 0.175389,0.0477 0.05016,0.02989 0.07717,0.07378 0.08096,0.131764 0.0043,0.06564 -0.02881,0.129542 -0.0995,0.191691 -0.069,0.06233 -0.16113,0.117218 -0.276427,0.164615 -0.115558,0.04749 -0.235826,0.08173 -0.360715,0.102643 -0.01828,0.08805 -0.02538,0.174514 -0.02126,0.259373 0.0055,0.11232 0.03535,0.19984 0.08975,0.262283 0.05644,0.0626 0.133277,0.09398 0.230393,0.094 0.146588,3.9e-5 0.262291,-0.05377 0.34684,-0.16106 0.08415,-0.106786 0.151934,-0.226587 0.20341,-0.359206 0.0033,-0.0077 0.009,-0.02202 0.01687,-0.04308 0.0078,-0.02296 0.01551,-0.03443 0.02301,-0.03442 z m -0.276011,-0.446078 c -0.0019,-0.03 -0.01917,-0.05341 -0.05183,-0.07027 -0.03078,-0.01685 -0.06659,-0.02529 -0.107466,-0.02534 -0.07062,-8.8e-5 -0.13713,0.02319 -0.199634,0.06991 -0.06264,0.04681 -0.114647,0.103159 -0.15602,0.169099 -0.03965,0.06613 -0.06477,0.124866 -0.0753,0.176159 0.08581,-0.0094 0.175431,-0.03405 0.268784,-0.07381 0.09318,-0.03969 0.170088,-0.08309 0.230746,-0.130188 0.0624,-0.047 0.0926,-0.08549 0.09071,-0.115529 z m -1.166658,-0.754988 c 0.0014,0.03638 0.0023,0.108391 0.0027,0.216376 3.27e-4,0.106651 0.0026,0.21472 0.0068,0.324221 0.0082,0.213045 0.02129,0.432785 0.03943,0.659376 0.01823,0.226843 0.03165,0.377012 0.04014,0.449039 4.59e-4,0.01171 0.0019,0.02438 0.0045,0.03801 0.0025,0.01369 0.005,0.02641 0.0073,0.03815 0.0098,0.05483 0.0149,0.08817 0.01536,0.09995 7.77e-4,0.01964 -0.0128,0.03831 -0.04075,0.05601 -0.02605,0.0177 -0.04674,0.02656 -0.06206,0.02656 -0.02103,-3e-6 -0.03565,-0.0079 -0.04386,-0.02361 -0.0063,-0.0177 -0.01004,-0.04129 -0.01111,-0.07075 -0.0039,-0.107734 -0.0052,-0.219849 -0.0037,-0.33628 l -0.003,-0.162051 c -0.002,-0.05377 -0.0055,-0.123689 -0.01059,-0.209604 -0.0051,-0.0875 -0.01059,-0.160489 -0.01635,-0.219099 -0.08474,0.311628 -0.185623,0.57322 -0.302595,0.783044 -0.116167,0.209758 -0.246502,0.315336 -0.390247,0.315322 -0.06517,-7e-6 -0.121355,-0.03165 -0.168454,-0.09482 -0.04504,-0.063 -0.06847,-0.153267 -0.07038,-0.270496 -0.0025,-0.153475 0.0449,-0.319399 0.141609,-0.497479 0.09785,-0.176722 0.208611,-0.32763 0.332335,-0.453207 0.124895,-0.124882 0.217697,-0.18702 0.27892,-0.186934 0.05936,8.4e-5 0.08972,0.01962 0.09107,0.05867 9.04e-4,0.02605 -0.0073,0.05679 -0.02471,0.09225 -0.0156,0.03365 -0.03413,0.06452 -0.05559,0.09258 -0.01961,0.02812 -0.0313,0.04219 -0.03505,0.04219 -0.0038,-4e-6 -0.0085,-9.87e-4 -0.01409,-0.0029 -0.0039,-0.0038 -0.006,-0.0076 -0.0061,-0.01126 -2.97e-4,-0.0094 0.0039,-0.02534 0.01247,-0.04784 0.0086,-0.02248 0.01278,-0.03745 0.01253,-0.04492 -3.01e-4,-0.0094 -0.0015,-0.01591 -0.0035,-0.01966 -0.0021,-0.0038 -0.0077,-0.0057 -0.01695,-0.0058 -0.0391,-5e-5 -0.108248,0.05411 -0.207803,0.162874 -0.09821,0.107399 -0.186081,0.236224 -0.263628,0.386824 -0.07806,0.15158 -0.116034,0.293521 -0.113532,0.425624 8.86e-4,0.04678 0.01124,0.09074 0.0311,0.131861 0.01989,0.04118 0.05181,0.0618 0.09574,0.06182 0.13938,3.6e-5 0.264964,-0.120365 0.375925,-0.359364 0.111664,-0.238488 0.20519,-0.505815 0.280709,-0.800972 l -0.01413,-0.234295 c -0.01284,-0.204469 -0.01945,-0.312423 -0.01991,-0.325195 -0.0039,-0.109209 -0.0021,-0.187149 0.0054,-0.234132 0.0031,-0.01804 0.0063,-0.03066 0.0096,-0.03785 0.0052,-0.0072 0.01511,-0.01077 0.02977,-0.01074 0.01827,3.7e-5 0.03679,0.0064 0.05555,0.01907 0.0187,0.01087 0.02843,0.02624 0.0292,0.04611 z m -1.404392,0.156289 c 2.25e-4,0.0275 -0.03015,0.0412 -0.09113,0.04111 -0.03143,-5.2e-5 -0.06384,-0.01295 -0.09719,-0.03866 -0.0315,-0.02568 -0.04726,-0.04674 -0.04731,-0.06318 -6.3e-5,-0.0201 0.0091,-0.03925 0.02745,-0.05746 0.02019,-0.01818 0.04041,-0.02725 0.06067,-0.02721 l 0.0194,0.0082 c 0.01478,0.0038 0.03143,0.01561 0.04997,0.0356 0.01482,0.0146 0.03153,0.03381 0.05015,0.05763 0.01863,0.02384 0.02797,0.03851 0.02802,0.04399 z m 0.08661,1.795645 c 1.91e-4,0.01977 -0.0083,0.03461 -0.02546,0.04451 -0.01528,0.01189 -0.03347,0.01685 -0.05456,0.01485 -0.02688,-0.0021 -0.04736,-0.04661 -0.06139,-0.133414 -0.01206,-0.08657 -0.0255,-0.249993 -0.04023,-0.488718 -0.0085,-0.155917 -0.01597,-0.307002 -0.02246,-0.453339 -0.0064,-0.147317 -0.01074,-0.260016 -0.01306,-0.338585 -1.09e-4,-0.02054 0.0026,-0.03546 0.0081,-0.04477 0.0074,-0.01118 0.02037,-0.01676 0.03898,-0.01673 0.04279,5.8e-5 0.06991,0.01779 0.0814,0.05323 0.01149,0.03549 0.01766,0.103833 0.01852,0.205305 l -1.07e-4,0.335665 c 0.0016,0.193691 0.0086,0.350182 0.02107,0.468721 5.1e-5,0.0058 0.0092,0.06824 0.02741,0.187739 0.01418,0.0826 0.02143,0.137826 0.0217,0.165481 z m -0.506033,-0.420562 c -7.1e-5,0.08566 -0.0345,0.168675 -0.103471,0.249027 -0.06729,0.07866 -0.156776,0.141783 -0.26848,0.189236 -0.111961,0.04953 -0.228659,0.07433 -0.349924,0.07432 -0.08279,-5e-6 -0.138478,-0.0079 -0.167052,-0.0238 -0.02855,-0.01585 -0.04254,-0.03767 -0.04198,-0.06544 3.58e-4,-0.01779 0.02304,-0.04843 0.06799,-0.09186 0.0449,-0.04532 0.075,-0.06795 0.09035,-0.06795 0.023,6e-6 0.03442,0.0049 0.03426,0.01476 -1.27e-4,0.0079 -0.005,0.01572 -0.01476,0.02358 -0.0097,0.0079 -0.01463,0.01477 -0.01473,0.02071 -1.33e-4,0.0079 0.01125,0.01575 0.03416,0.02363 0.02479,0.0079 0.05448,0.01184 0.08904,0.01184 0.08058,1.5e-5 0.161304,-0.01476 0.24211,-0.04431 0.08262,-0.03148 0.14987,-0.07174 0.201759,-0.120755 0.05177,-0.04891 0.07771,-0.100653 0.0779,-0.155227 1.78e-4,-0.0525 -0.01584,-0.09423 -0.04803,-0.125245 -0.03215,-0.03099 -0.07283,-0.05326 -0.12205,-0.06683 -0.0473,-0.01545 -0.127703,-0.03673 -0.241159,-0.06383 -0.124682,-0.02896 -0.221842,-0.05403 -0.291535,-0.07522 -0.06771,-0.02311 -0.122016,-0.05096 -0.162927,-0.08355 -0.04083,-0.03449 -0.06063,-0.07748 -0.05945,-0.128921 0.0021,-0.09122 0.04816,-0.174478 0.137961,-0.249851 0.08951,-0.07513 0.191534,-0.134068 0.306135,-0.17695 0.114363,-0.04282 0.202212,-0.06416 0.263716,-0.06407 0.06336,8.6e-5 0.09492,0.01877 0.09469,0.05609 -1.37e-4,0.02244 -0.0078,0.04768 -0.02293,0.07575 -0.01511,0.02622 -0.03763,0.03932 -0.06756,0.03928 -0.01123,-1.3e-5 -0.02335,-0.0038 -0.03634,-0.01129 -0.01303,-0.0094 -0.02606,-0.0141 -0.03912,-0.01412 -0.03739,-4.6e-5 -0.09643,0.01206 -0.177198,0.03635 -0.08086,0.02432 -0.154523,0.06093 -0.221026,0.109904 -0.06664,0.04906 -0.100726,0.108691 -0.102142,0.178964 -9.2e-4,0.04568 0.02387,0.08003 0.0744,0.103009 0.0525,0.02107 0.149356,0.04794 0.290656,0.0806 0.01693,0.0057 0.03388,0.01053 0.05084,0.01442 0.01698,0.002 0.03208,0.0049 0.0453,0.0086 0.145337,0.03463 0.256754,0.07412 0.33422,0.118488 0.0776,0.04439 0.116422,0.111106 0.116348,0.200349 z m -2.092447,-0.001 c -0.0038,0.08581 -0.04203,0.168978 -0.114785,0.249476 -0.07099,0.0788 -0.163574,0.14204 -0.277766,0.189579 -0.114549,0.04962 -0.232767,0.07446 -0.354481,0.07446 -0.08309,-4e-6 -0.138631,-0.008 -0.166613,-0.02384 -0.02796,-0.01588 -0.04104,-0.03774 -0.03926,-0.06556 0.0011,-0.01783 0.02526,-0.04852 0.07228,-0.09203 0.04711,-0.04541 0.07831,-0.06807 0.09367,-0.06807 0.02308,6e-6 0.03433,0.0049 0.03373,0.01479 -4.73e-4,0.0079 -0.0058,0.01575 -0.01585,0.02362 -0.0101,0.0079 -0.01533,0.0148 -0.01569,0.02075 -4.78e-4,0.0079 0.0106,0.01578 0.03324,0.02368 0.02454,0.0079 0.05416,0.01186 0.08884,0.01186 0.08087,1.5e-5 0.162542,-0.01479 0.244937,-0.04439 0.08431,-0.03153 0.153574,-0.07187 0.207802,-0.120973 0.05412,-0.04899 0.08243,-0.100834 0.08501,-0.155506 0.0025,-0.05259 -0.01176,-0.09439 -0.0427,-0.12547 -0.0309,-0.03104 -0.07076,-0.05335 -0.119567,-0.06695 -0.04679,-0.01548 -0.126553,-0.0368 -0.239228,-0.06395 -0.123862,-0.02902 -0.220275,-0.05413 -0.289291,-0.07536 -0.06694,-0.02315 -0.120221,-0.05105 -0.159848,-0.0837 -0.03946,-0.03455 -0.05745,-0.07762 -0.054,-0.129148 0.0061,-0.09138 0.05601,-0.174783 0.149451,-0.250287 0.09313,-0.07525 0.198115,-0.134299 0.315009,-0.177254 0.116663,-0.0429 0.205766,-0.06427 0.267484,-0.06418 0.06358,8.6e-5 0.09444,0.0188 0.09257,0.05619 -0.0011,0.02248 -0.0099,0.04777 -0.02626,0.07588 -0.01631,0.02626 -0.0395,0.03939 -0.06953,0.03935 -0.01127,-1.4e-5 -0.02327,-0.0038 -0.03598,-0.01131 -0.01266,-0.0094 -0.02554,-0.01413 -0.03864,-0.01414 -0.03753,-4.7e-5 -0.09732,0.01208 -0.179443,0.03641 -0.08222,0.02436 -0.157753,0.06104 -0.226649,0.110095 -0.06905,0.04915 -0.105875,0.108879 -0.110384,0.179276 -0.0029,0.04576 0.02044,0.08017 0.07015,0.103189 0.05176,0.02111 0.14779,0.04802 0.288163,0.08075 0.01674,0.0057 0.03354,0.01055 0.0504,0.01445 0.01696,0.002 0.03198,0.0049 0.04509,0.0086 0.144351,0.03469 0.254442,0.07425 0.330242,0.118698 0.07593,0.04446 0.111959,0.111304 0.107966,0.200707 z m -1.364017,-1.380586 c -0.0021,0.02758 -0.03382,0.04134 -0.09521,0.04124 -0.03164,-5.2e-5 -0.06319,-0.01299 -0.09461,-0.03878 -0.02956,-0.02577 -0.04367,-0.04689 -0.04234,-0.06339 0.0016,-0.02017 0.01245,-0.03938 0.03246,-0.05765 0.02186,-0.01824 0.04297,-0.02734 0.06337,-0.0273 l 0.01885,0.0082 c 0.01451,0.0038 0.03029,0.01566 0.04733,0.03572 0.01369,0.01465 0.0289,0.03392 0.04564,0.05782 0.01676,0.02392 0.02493,0.03863 0.02452,0.04413 z m -0.06348,1.801656 c -0.0015,0.01984 -0.01125,0.03473 -0.02937,0.04467 -0.01633,0.01194 -0.03506,0.01691 -0.05619,0.01491 -0.0269,-0.0021 -0.04378,-0.04677 -0.05063,-0.133878 -0.0049,-0.08687 -0.0047,-0.250856 5.06e-4,-0.490396 0.0045,-0.156444 0.0097,-0.308038 0.01544,-0.454863 0.0059,-0.147807 0.01101,-0.260877 0.01527,-0.339705 0.0016,-0.0206 0.0056,-0.03558 0.012,-0.04492 0.0084,-0.01122 0.02192,-0.01681 0.04065,-0.01678 0.04313,5.8e-5 0.06896,0.01785 0.0775,0.0534 0.0086,0.03561 0.0091,0.104174 0.0014,0.205981 l -0.02828,0.336784 c -0.01462,0.194344 -0.02069,0.351367 -0.01812,0.470312 -4.37e-4,0.0058 0.0035,0.06847 0.01185,0.188385 0.0074,0.08289 0.01001,0.138303 0.008,0.166054 z m -0.622923,0.0327 c -0.0021,0.02387 -0.01153,0.04377 -0.02838,0.05969 -0.01704,0.01792 -0.03817,0.02689 -0.0634,0.02689 -0.01937,0 -0.03541,-0.005 -0.0481,-0.01496 -0.01287,-0.008 -0.01858,-0.01993 -0.01714,-0.03588 l 0.02437,-0.205151 c 0.0313,-0.24154 0.0536,-0.437096 0.0671,-0.587772 0.01957,-0.218517 0.01799,-0.36973 -0.0045,-0.454917 -0.02227,-0.08677 -0.05313,-0.130063 -0.09262,-0.130112 -0.08841,-1.12e-4 -0.212765,0.137318 -0.374491,0.414774 -0.163486,0.278884 -0.326939,0.587608 -0.490628,0.927281 -0.01271,0.02785 -0.02919,0.05475 -0.04946,0.0807 -0.01839,0.02594 -0.03633,0.03892 -0.0538,0.03892 -0.04276,0 -0.06258,-0.01398 -0.05947,-0.04193 0.01352,-0.121442 0.03378,-0.346766 0.06056,-0.673067 0.02664,-0.323811 0.04262,-0.534406 0.04822,-0.634754 0.02078,-0.335774 0.02794,-0.54068 0.02173,-0.618106 -0.0061,-0.07717 -0.0089,-0.118406 -0.0083,-0.123896 0.0021,-0.01829 0.01385,-0.03198 0.03532,-0.04108 0.02146,-0.0091 0.04796,-0.01361 0.07951,-0.01355 0.02597,4.8e-5 0.03808,0.05857 0.03631,0.176023 3.1e-4,0.116193 -0.0068,0.266432 -0.02146,0.451373 l -0.0057,0.0789 c -0.0025,0.05841 -0.01813,0.226903 -0.04704,0.507872 -0.02885,0.28239 -0.05078,0.492475 -0.0656,0.628299 0.113022,-0.225909 0.216677,-0.425445 0.311243,-0.599251 0.09577,-0.172516 0.20103,-0.332362 0.315759,-0.47978 0.114172,-0.14835 0.213178,-0.222106 0.297563,-0.221989 0.07125,9.9e-5 0.125887,0.06 0.16406,0.180166 0.03853,0.118877 0.04746,0.298261 0.02648,0.539544 -0.0094,0.108036 -0.0206,0.259333 -0.03365,0.454714 z m -1.261992,-1.796166 c -0.0017,0.01474 -0.01012,0.03043 -0.02517,0.04707 -0.01484,0.01475 -0.03255,0.02211 -0.05312,0.02207 -0.0056,-9e-6 -0.02465,-0.0047 -0.05723,-0.01397 -0.03045,-0.01115 -0.05967,-0.01675 -0.08769,-0.01679 -0.08971,-1.45e-4 -0.192159,0.0043 -0.307401,0.01337 -0.115307,0.0091 -0.211521,0.02187 -0.288642,0.0384 -0.0064,0.08912 -0.0208,0.230911 -0.04327,0.426341 -0.02058,0.195175 -0.0456,0.402533 -0.07511,0.622375 -0.01251,0.09317 -0.02848,0.197456 -0.04794,0.312994 -0.01761,0.116094 -0.03117,0.188199 -0.04062,0.215913 -0.0069,0.0218 -0.02286,0.03966 -0.04791,0.05357 -0.02323,0.01392 -0.04647,0.02088 -0.06971,0.02088 -0.0136,-2e-6 -0.02443,-0.006 -0.03248,-0.0179 -0.0081,-0.01192 -0.01099,-0.02581 -0.0088,-0.04165 l 0.01733,-0.103844 c 0.03272,-0.153449 0.06429,-0.340971 0.09464,-0.561757 0.02166,-0.157545 0.04424,-0.335915 0.0677,-0.534631 0.02352,-0.198914 0.03658,-0.32099 0.03932,-0.367422 -0.380924,0.04029 -0.637339,0.07806 -0.768727,0.113279 -0.02374,0.0074 -0.04972,0.01111 -0.07794,0.01107 -0.03385,-4.9e-5 -0.06489,-0.01221 -0.09307,-0.03648 -0.02816,-0.02424 -0.04001,-0.05031 -0.03558,-0.07822 0.0029,-0.01856 0.01064,-0.03154 0.02309,-0.03893 0.01273,-0.0093 0.02753,-0.01387 0.0444,-0.01384 0.107758,-0.0054 0.198597,-0.01084 0.272532,-0.01626 0.168943,-0.01451 0.381975,-0.03728 0.638867,-0.06827 0.0079,-0.05712 0.01445,-0.09758 0.01968,-0.121446 0.0071,-0.02382 0.01527,-0.03571 0.02452,-0.03569 0.03538,6.4e-5 0.06517,0.01387 0.08939,0.04143 0.0048,0.0055 0.0075,0.02018 0.008,0.04413 8.27e-4,0.0221 7.44e-4,0.03684 -2.51e-4,0.0442 0.04136,-0.0018 0.109799,-0.01094 0.205268,-0.02727 0.20542,-0.03092 0.345258,-0.0463 0.419767,-0.04617 0.08939,1.56e-4 0.147671,0.01128 0.174867,0.03339 0.01877,0.01477 0.02589,0.04147 0.02135,0.08015 z"
         inkscape:path-effect="#path-effect31215"
         inkscape:original-d="m 38.626327,49.247219 q 0,0.04908 -0.04328,0.07503 -0.04038,0.02595 -0.150058,0.04038 -0.265484,0.04618 -0.297229,0.05198 l -0.187567,0.03175 q 0,0.150057 0.003,0.314541 0.0059,0.164484 0.01443,0.288574 0.01153,0.167369 0.04038,0.256828 0.02885,0.08945 0.03175,0.101 0,0.02885 -0.03748,0.05198 -0.03465,0.02595 -0.06641,0.02595 -0.01733,0 -0.02885,-0.01153 -0.01153,-0.0086 -0.02023,-0.03175 -0.01733,-0.04038 -0.03465,-0.150057 -0.01443,-0.109656 -0.02313,-0.242394 -0.0086,-0.11832 -0.01443,-0.274148 -0.003,-0.158713 -0.003,-0.305885 -0.161598,0.02595 -0.331853,0.06351 -0.152942,0.03175 -0.181803,0.03175 -0.03465,0 -0.06633,-0.02023 -0.02885,-0.02023 -0.02885,-0.05481 0,-0.03748 0.02595,-0.04908 0.02595,-0.01153 0.08657,-0.01153 0.04328,0 0.126976,-0.01443 0.08369,-0.01733 0.10677,-0.02305 0.193344,-0.03755 0.262599,-0.04908 0,-0.06061 -0.0059,-0.158713 -0.0059,-0.132746 -0.0059,-0.202 0,-0.112541 0.0059,-0.17314 0.0086,-0.06351 0.02885,-0.112549 0.02305,-0.05771 0.08657,-0.05771 0.02595,0 0.03465,0.0086 0.0086,0.0087 0.0086,0.03175 0,0.01733 -0.01443,0.101 -0.01443,0.08369 -0.01443,0.222197 0,0.106771 0.0059,0.239516 l 0.003,0.07792 q 0.129853,-0.02023 0.513656,-0.106778 0.02305,-0.0059 0.03748,-0.04038 0.01733,-0.03465 0.03465,-0.03465 0.03175,0 0.06351,0.03748 0.03465,0.03465 0.03465,0.07213 z m -1.514993,1.145624 q 0,0.04618 -0.02595,0.07213 -0.02595,0.02595 -0.07213,0.02595 -0.05771,0 -0.106771,-0.121197 -0.04618,-0.121197 -0.05771,-0.251057 -0.01153,-0.124083 -0.01733,-0.502115 -0.003,-0.06061 -0.003,-0.121197 0,-0.06351 -0.003,-0.106771 -0.08369,0.199115 -0.227976,0.453058 -0.144286,0.253943 -0.291459,0.435738 -0.144279,0.181803 -0.236623,0.181803 -0.09523,0 -0.126975,-0.101 -0.02885,-0.101 -0.02885,-0.320319 0,-0.204886 0.0519,-0.464599 0.05481,-0.259713 0.124083,-0.395337 0.02885,-0.06061 0.04908,-0.0808 0.02023,-0.02305 0.04618,-0.02305 0.07213,0 0.07213,0.02885 0,0.01443 -0.02885,0.06641 -0.07792,0.144279 -0.135631,0.346279 -0.0577,0.202 -0.0577,0.542517 0,0.227968 0.06351,0.227968 0.07503,0 0.202,-0.164484 0.12986,-0.16737 0.256828,-0.39823 0.126975,-0.230853 0.193344,-0.401107 0.02305,-0.05771 0.05191,-0.178918 0.0086,-0.04908 0.01733,-0.06923 0.0087,-0.02305 0.02023,-0.02305 0.03175,0 0.06923,0.02595 0.03755,0.02595 0.03755,0.05481 0,0.138516 0.0086,0.476139 0.01153,0.334746 0.02595,0.464599 0.01153,0.112541 0.04038,0.176033 0.03175,0.06351 0.06061,0.101 0.02885,0.03465 0.02885,0.04328 z m -1.437083,-0.548279 q 0,0.112541 -0.08368,0.259713 -0.08369,0.147172 -0.236631,0.253943 -0.152943,0.103885 -0.349172,0.103885 -0.193337,0 -0.285681,-0.10677 -0.09234,-0.106771 -0.09234,-0.265492 0,-0.138509 0.04908,-0.343394 0.05191,-0.204885 0.144287,-0.366484 0.0059,-0.01153 0.04618,-0.08369 0.04328,-0.07503 0.09523,-0.112541 0.05191,-0.04038 0.109656,-0.04038 0.02595,0 0.04618,0.01443 0.02305,0.01153 0.02305,0.03175 0,0.0059 -0.01733,0.02885 -0.01443,0.02023 -0.02313,0.03175 -0.09811,0.118312 -0.158714,0.233746 -0.0808,0.147172 -0.126967,0.291451 -0.04328,0.144287 -0.04328,0.314541 0,0.227976 0.277025,0.227976 0.129861,0 0.239517,-0.07503 0.112541,-0.07503 0.17891,-0.181795 0.06641,-0.109656 0.06641,-0.199115 0,-0.101 -0.06641,-0.176025 -0.06633,-0.07503 -0.181796,-0.158714 -0.07503,-0.05481 -0.109656,-0.08946 -0.03465,-0.03465 -0.03465,-0.05771 0,-0.03465 0.04908,-0.05481 0.04908,-0.02305 0.115426,-0.02305 0.03748,0 0.04908,0.0059 0.01153,0.003 0.01153,0.01443 0,0.0059 -0.01153,0.02023 -0.0086,0.01153 -0.0086,0.02023 0,0.0087 0.05771,0.05771 0.115426,0.09523 0.193344,0.193345 0.07791,0.09811 0.07791,0.23086 z m -2.077699,-0.138516 q 0.02023,0 0.02023,0.04328 0,0.05198 -0.07791,0.227968 -0.07503,0.176032 -0.23086,0.32609 -0.152943,0.150057 -0.378026,0.150057 -0.18468,0 -0.30877,-0.115434 -0.124083,-0.115427 -0.124083,-0.354943 0,-0.225082 0.103886,-0.444394 0.103885,-0.222205 0.271254,-0.360713 0.167369,-0.141402 0.346287,-0.141402 0.106771,0 0.17891,0.04908 0.07503,0.04618 0.07503,0.135631 0,0.101 -0.115434,0.196222 -0.112541,0.09523 -0.294337,0.167376 -0.181803,0.07213 -0.375147,0.103886 -0.03465,0.132738 -0.03465,0.259713 0,0.167369 0.07791,0.259713 0.0808,0.09235 0.227975,0.09235 0.222197,0 0.360713,-0.158721 0.138509,-0.158713 0.230853,-0.357821 0.0059,-0.01153 0.02023,-0.04328 0.01443,-0.03465 0.02595,-0.03465 z M 33.342609,49.25299 q 0,-0.04618 -0.04908,-0.07213 -0.04618,-0.02595 -0.109656,-0.02595 -0.109656,0 -0.210656,0.07213 -0.101,0.07213 -0.170254,0.17314 -0.06641,0.101 -0.08657,0.178918 0.132746,-0.01443 0.279911,-0.07503 0.147172,-0.06061 0.245286,-0.132738 0.101,-0.07213 0.101,-0.118319 z m -1.174477,-0.784911 q 0,0.05771 -0.0059,0.227968 -0.0059,0.167377 -0.0059,0.337631 0,0.328968 0.01443,0.67237 0.01443,0.340516 0.02305,0.447287 0,0.01733 0.003,0.03748 0.003,0.02023 0.0059,0.03755 0.01153,0.0808 0.01153,0.09811 0,0.02885 -0.04328,0.05481 -0.04038,0.02595 -0.06351,0.02595 -0.03175,0 -0.04328,-0.02305 -0.0086,-0.02595 -0.0086,-0.06923 0,-0.158713 0.0086,-0.33186 l 0.003,-0.161599 q 0,-0.0808 -0.003,-0.210656 -0.003,-0.132738 -0.0086,-0.222197 -0.147172,0.473255 -0.334746,0.784911 -0.184681,0.308771 -0.401115,0.308771 -0.09811,0 -0.167369,-0.09235 -0.06633,-0.09234 -0.06633,-0.265484 0,-0.227967 0.152943,-0.496336 0.155828,-0.268377 0.352057,-0.461714 0.199115,-0.193344 0.294337,-0.193344 0.09234,0 0.09234,0.06061 0,0.04038 -0.02885,0.09523 -0.02595,0.05198 -0.06061,0.09523 -0.03175,0.04328 -0.03755,0.04328 -0.0059,0 -0.01443,-0.003 -0.0059,-0.0059 -0.0059,-0.01153 0,-0.01443 0.01443,-0.04908 0.01443,-0.03465 0.01443,-0.04618 0,-0.01443 -0.003,-0.02023 -0.003,-0.0059 -0.01733,-0.0059 -0.06061,0 -0.219319,0.16737 -0.155828,0.164483 -0.279911,0.392459 -0.124089,0.227967 -0.124089,0.424197 0,0.06923 0.02885,0.129853 0.02885,0.06061 0.09523,0.06061 0.210656,0 0.389566,-0.354943 0.181803,-0.357828 0.314549,-0.810886 l -0.0059,-0.242401 q -0.0086,-0.320312 -0.0086,-0.340509 0,-0.173147 0.01443,-0.248172 0.0059,-0.02885 0.01153,-0.04038 0.0086,-0.01153 0.03175,-0.01153 0.02885,0 0.05771,0.02023 0.02885,0.01733 0.02885,0.04908 z m -1.471707,0.16737 q 0,0.04328 -0.09523,0.04328 -0.04908,0 -0.101,-0.04038 -0.04908,-0.04038 -0.04908,-0.06633 0,-0.03175 0.02885,-0.06061 0.03175,-0.02885 0.06351,-0.02885 0,0 0.02023,0.0086 0.02313,0.0059 0.05198,0.03748 0.02305,0.02305 0.05191,0.06061 0.02885,0.03755 0.02885,0.04618 z m 0.07213,1.815108 q 0,0.02885 -0.02595,0.04328 -0.02313,0.01733 -0.05481,0.01443 -0.04038,-0.003 -0.06061,-0.12986 -0.01733,-0.126968 -0.03748,-0.48191 -0.01153,-0.233746 -0.02023,-0.455943 -0.0086,-0.225083 -0.01153,-0.346287 0,-0.03175 0.0086,-0.04618 0.01153,-0.01733 0.04038,-0.01733 0.06633,0 0.08369,0.05481 0.01733,0.05481 0.01733,0.210656 l -0.003,0.340517 q 0,0.291451 0.01733,0.467484 0,0.0086 0.02595,0.184681 0.02023,0.121204 0.02023,0.161598 z m -0.507871,-0.412656 q 0,0.126975 -0.103885,0.245286 -0.101,0.115427 -0.268377,0.184689 -0.167369,0.07213 -0.349165,0.07213 -0.124089,0 -0.167376,-0.02305 -0.04328,-0.02305 -0.04328,-0.06351 0,-0.02595 0.06633,-0.08946 0.06633,-0.06641 0.08946,-0.06641 0.03465,0 0.03465,0.01443 0,0.01153 -0.01443,0.02305 -0.01443,0.01153 -0.01443,0.02023 0,0.01153 0.03465,0.02305 0.03748,0.01153 0.08946,0.01153 0.121197,0 0.242401,-0.04328 0.124083,-0.04618 0.202,-0.118312 0.07791,-0.07213 0.07791,-0.152943 0,-0.07791 -0.04908,-0.124082 -0.04908,-0.04618 -0.124082,-0.06641 -0.07213,-0.02305 -0.245287,-0.06351 -0.190459,-0.04328 -0.29723,-0.07502 -0.103885,-0.03465 -0.167369,-0.08369 -0.06351,-0.05198 -0.06351,-0.129853 0,-0.138516 0.135623,-0.253943 0.135631,-0.115434 0.311664,-0.181803 0.176025,-0.06641 0.271254,-0.06641 0.09811,0 0.09811,0.05771 0,0.03465 -0.02313,0.07792 -0.02305,0.04038 -0.06923,0.04038 -0.01733,0 -0.03748,-0.01153 -0.02023,-0.01443 -0.04038,-0.01443 -0.05771,0 -0.181796,0.03748 -0.12409,0.03748 -0.22509,0.112541 -0.100992,0.07503 -0.100992,0.181796 0,0.06923 0.07791,0.103885 0.0808,0.03175 0.29723,0.0808 0.02595,0.0086 0.05191,0.01443 0.02595,0.003 0.04618,0.0086 0.222197,0.0519 0.340508,0.118319 0.11832,0.06633 0.11832,0.199107 z m -2.112338,0 q 0,0.126975 -0.103885,0.245286 -0.101,0.115427 -0.268369,0.184689 -0.167369,0.07213 -0.349172,0.07213 -0.124083,0 -0.167369,-0.02305 -0.04328,-0.02305 -0.04328,-0.06351 0,-0.02595 0.06633,-0.08946 0.06641,-0.06641 0.08946,-0.06641 0.03465,0 0.03465,0.01443 0,0.01153 -0.01443,0.02305 -0.01443,0.01153 -0.01443,0.02023 0,0.01153 0.03465,0.02305 0.03748,0.01153 0.08946,0.01153 0.121198,0 0.242395,-0.04328 0.124089,-0.04618 0.202,-0.118312 0.07792,-0.07213 0.07792,-0.152943 0,-0.07791 -0.04908,-0.124082 -0.04908,-0.04618 -0.12409,-0.06641 -0.07213,-0.02305 -0.24528,-0.06351 -0.190458,-0.04328 -0.297229,-0.07502 -0.103885,-0.03465 -0.167369,-0.08369 -0.06351,-0.05198 -0.06351,-0.129853 0,-0.138516 0.135631,-0.253943 0.135631,-0.115434 0.311656,-0.181803 0.176032,-0.06641 0.271254,-0.06641 0.09811,0 0.09811,0.05771 0,0.03465 -0.02305,0.07792 -0.02305,0.04038 -0.06923,0.04038 -0.01733,0 -0.03748,-0.01153 -0.02023,-0.01443 -0.04038,-0.01443 -0.05771,0 -0.181803,0.03748 -0.124082,0.03748 -0.225083,0.112541 -0.101,0.07503 -0.101,0.181796 0,0.06923 0.07792,0.103885 0.0808,0.03175 0.297222,0.0808 0.02595,0.0086 0.05191,0.01443 0.02595,0.003 0.04618,0.0086 0.222205,0.0519 0.340517,0.118319 0.118311,0.06633 0.118311,0.199107 z m -1.477477,-1.402452 q 0,0.04328 -0.09523,0.04328 -0.04908,0 -0.101,-0.04038 -0.04908,-0.04038 -0.04908,-0.06633 0,-0.03175 0.02885,-0.06061 0.03175,-0.02885 0.06351,-0.02885 0,0 0.02023,0.0086 0.02305,0.0059 0.05198,0.03748 0.02305,0.02305 0.0519,0.06061 0.02885,0.03755 0.02885,0.04618 z m 0.07213,1.815108 q 0,0.02885 -0.02595,0.04328 -0.02305,0.01733 -0.05481,0.01443 -0.04038,-0.003 -0.06061,-0.12986 -0.01733,-0.126968 -0.03748,-0.48191 -0.01153,-0.233746 -0.02023,-0.455943 -0.0086,-0.225083 -0.01153,-0.346287 0,-0.03175 0.0087,-0.04618 0.01153,-0.01733 0.04038,-0.01733 0.06641,0 0.08369,0.05481 0.01733,0.05481 0.01733,0.210656 l -0.003,0.340517 q 0,0.291451 0.01733,0.467484 0,0.0086 0.02595,0.184681 0.02023,0.121204 0.02023,0.161598 z m -0.617527,0.03175 q 0,0.03465 -0.02305,0.05771 -0.02305,0.02595 -0.06061,0.02595 -0.02885,0 -0.04908,-0.01443 -0.02023,-0.01153 -0.02023,-0.03465 l 0.0059,-0.199115 q 0.01443,-0.354943 0.01443,-0.580025 0,-0.328976 -0.04618,-0.458829 -0.04618,-0.132745 -0.10677,-0.132745 -0.135631,0 -0.340517,0.421312 -0.204885,0.418426 -0.395344,0.914771 -0.01443,0.04038 -0.04038,0.07792 -0.02313,0.03748 -0.04908,0.03748 -0.06351,0 -0.06351,-0.04038 0,-0.176032 -0.01443,-0.657943 -0.01443,-0.484803 -0.02305,-0.637746 -0.02595,-0.516541 -0.04908,-0.637738 -0.02305,-0.121197 -0.02305,-0.129853 0,-0.02885 0.03175,-0.04328 0.03175,-0.01443 0.0808,-0.01443 0.04038,0 0.0577,0.184689 0.02023,0.181795 0.02885,0.467484 l 0.003,0.0808 q 0.0059,0.08945 0.0086,0.513656 0.003,0.421312 0.003,0.620426 0.132738,-0.33186 0.248164,-0.591573 0.118319,-0.259714 0.271262,-0.484796 0.152943,-0.227975 0.282796,-0.227975 0.109656,0 0.184688,0.184688 0.07503,0.181796 0.07503,0.545394 0,0.161606 0.0059,0.450173 z m -1.46305,-1.803567 q 0,0.02305 -0.02023,0.04908 -0.02023,0.02305 -0.05198,0.02305 -0.0086,0 -0.06061,-0.01443 -0.04908,-0.01733 -0.09234,-0.01733 -0.138516,0 -0.314548,0.01443 -0.176025,0.01443 -0.291452,0.04038 0.0086,0.138516 0.01443,0.438623 0.0086,0.29723 0.0086,0.626205 0,0.138509 -0.0059,0.308771 -0.003,0.170254 -0.01153,0.210656 -0.0059,0.03175 -0.04038,0.05198 -0.03175,0.02023 -0.06633,0.02023 -0.02023,0 -0.03465,-0.01733 -0.01443,-0.01733 -0.01443,-0.04038 l 0.003,-0.101001 q 0.01733,-0.225082 0.01733,-0.554057 0,-0.236624 -0.0059,-0.539624 -0.0059,-0.305885 -0.01153,-0.378032 -0.57714,0.06351 -0.770484,0.118319 -0.03465,0.01153 -0.07792,0.01153 -0.05191,0 -0.100992,-0.03748 -0.04908,-0.03748 -0.04908,-0.0808 0,-0.02885 0.01733,-0.04038 0.01733,-0.01443 0.04328,-0.01443 0.164484,-0.0087 0.277025,-0.01733 0.256828,-0.02305 0.646402,-0.07213 0,-0.08946 0.003,-0.126975 0.0059,-0.03748 0.02023,-0.03748 0.05481,0 0.09811,0.04328 0.0086,0.0086 0.01443,0.04618 0.0059,0.03465 0.0059,0.04618 0.06351,-0.003 0.207771,-0.02885 0.311656,-0.04908 0.42709,-0.04908 0.138509,0 0.184681,0.03465 0.03175,0.02313 0.03175,0.08369 z" />
      <text
         xml:space="preserve"
         style="font-style:normal;font-variant:normal;font-weight:bold;font-stretch:normal;font-size:5.29167px;line-height:1.25;font-family:'Ink Free';-inkscape-font-specification:'Ink Free';font-variant-ligatures:normal;font-variant-position:normal;font-variant-caps:normal;font-variant-numeric:normal;font-variant-alternates:normal;font-variant-east-asian:normal;font-feature-settings:normal;font-variation-settings:normal;text-indent:0;text-align:start;text-decoration-line:none;text-decoration-style:solid;text-decoration-color:#000000;letter-spacing:0px;word-spacing:normal;text-transform:none;writing-mode:lr-tb;direction:ltr;text-orientation:mixed;dominant-baseline:auto;baseline-shift:baseline;white-space:normal;fill-opacity:1;stop-color:#000000;stroke-width:0.26458333;stroke-dasharray:none"
         x="69.678093"
         y="20.452209"
         id="text36607"><tspan
           sodipodi:role="line"
           style="font-style:normal;font-variant:normal;font-weight:bold;font-stretch:normal;font-size:5.29167px;line-height:1.25;font-family:'Ink Free';-inkscape-font-specification:'Ink Free';font-variant-ligatures:normal;font-variant-position:normal;font-variant-caps:normal;font-variant-numeric:normal;font-variant-alternates:normal;font-variant-east-asian:normal;font-feature-settings:normal;font-variation-settings:normal;text-indent:0;text-align:start;text-decoration-line:none;text-decoration-style:solid;text-decoration-color:#000000;letter-spacing:0px;word-spacing:normal;text-transform:none;writing-mode:lr-tb;direction:ltr;text-orientation:mixed;dominant-baseline:auto;baseline-shift:baseline;white-space:normal;fill-opacity:1;stop-color:#000000;stop-opacity:1;stroke-width:0.26458333;stroke-dasharray:none"
           x="69.678093"
           y="20.452209"
           id="tspan36620">Thread the two openings</tspan><tspan
           sodipodi:role="line"
           style="font-style:normal;font-variant:normal;font-weight:bold;font-stretch:normal;font-size:5.29167px;line-height:1.25;font-family:'Ink Free';-inkscape-font-specification:'Ink Free';font-variant-ligatures:normal;font-variant-position:normal;font-variant-caps:normal;font-variant-numeric:normal;font-variant-alternates:normal;font-variant-east-asian:normal;font-feature-settings:normal;font-variation-settings:normal;text-indent:0;text-align:start;text-decoration-line:none;text-decoration-style:solid;text-decoration-color:#000000;letter-spacing:0px;word-spacing:normal;text-transform:none;writing-mode:lr-tb;direction:ltr;text-orientation:mixed;dominant-baseline:auto;baseline-shift:baseline;white-space:normal;fill-opacity:1;stop-color:#000000;stop-opacity:1;stroke-width:0.26458333;stroke-dasharray:none"
           x="69.678093"
           y="27.066793"
           id="tspan36622">on the back plate.</tspan></text>
      <text
         xml:space="preserve"
         style="font-style:normal;font-variant:normal;font-weight:bold;font-stretch:normal;font-size:5.29167px;line-height:1.25;font-family:'Ink Free';-inkscape-font-specification:'Ink Free';font-variant-ligatures:normal;font-variant-position:normal;font-variant-caps:normal;font-variant-numeric:normal;font-variant-alternates:normal;font-variant-east-asian:normal;font-feature-settings:normal;font-variation-settings:normal;text-indent:0;text-align:start;text-decoration-line:none;text-decoration-style:solid;text-decoration-color:#000000;letter-spacing:0px;word-spacing:normal;text-transform:none;writing-mode:lr-tb;direction:ltr;text-orientation:mixed;dominant-baseline:auto;baseline-shift:baseline;white-space:normal;fill-opacity:1;stop-color:#000000;stroke-width:0.26458333;stroke-dasharray:none"
         x="69.834908"
         y="41.872726"
         id="text36632"><tspan
           sodipodi:role="line"
           style="font-style:normal;font-variant:normal;font-weight:bold;font-stretch:normal;font-size:5.29167px;line-height:1.25;font-family:'Ink Free';-inkscape-font-specification:'Ink Free';font-variant-ligatures:normal;font-variant-position:normal;font-variant-caps:normal;font-variant-numeric:normal;font-variant-alternates:normal;font-variant-east-asian:normal;font-feature-settings:normal;font-variation-settings:normal;text-indent:0;text-align:start;text-decoration-line:none;text-decoration-style:solid;text-decoration-color:#000000;letter-spacing:0px;word-spacing:normal;text-transform:none;writing-mode:lr-tb;direction:ltr;text-orientation:mixed;dominant-baseline:auto;baseline-shift:baseline;white-space:normal;fill-opacity:1;stop-color:#000000;stop-opacity:1;stroke-width:0.26458333;stroke-dasharray:none"
           x="69.834908"
           y="41.872726"
           id="tspan36630">Note: Mark the side from</tspan><tspan
           sodipodi:role="line"
           style="font-style:normal;font-variant:normal;font-weight:bold;font-stretch:normal;font-size:5.29167px;line-height:1.25;font-family:'Ink Free';-inkscape-font-specification:'Ink Free';font-variant-ligatures:normal;font-variant-position:normal;font-variant-caps:normal;font-variant-numeric:normal;font-variant-alternates:normal;font-variant-east-asian:normal;font-feature-settings:normal;font-variation-settings:normal;text-indent:0;text-align:start;text-decoration-line:none;text-decoration-style:solid;text-decoration-color:#000000;letter-spacing:0px;word-spacing:normal;text-transform:none;writing-mode:lr-tb;direction:ltr;text-orientation:mixed;dominant-baseline:auto;baseline-shift:baseline;white-space:normal;fill-opacity:1;stop-color:#000000;stop-opacity:1;stroke-width:0.26458333;stroke-dasharray:none"
           x="69.834908"
           y="48.487309"
           id="tspan36643">where you started! You'll </tspan><tspan
           sodipodi:role="line"
           style="font-style:normal;font-variant:normal;font-weight:bold;font-stretch:normal;font-size:5.29167px;line-height:1.25;font-family:'Ink Free';-inkscape-font-specification:'Ink Free';font-variant-ligatures:normal;font-variant-position:normal;font-variant-caps:normal;font-variant-numeric:normal;font-variant-alternates:normal;font-variant-east-asian:normal;font-feature-settings:normal;font-variation-settings:normal;text-indent:0;text-align:start;text-decoration-line:none;text-decoration-style:solid;text-decoration-color:#000000;letter-spacing:0px;word-spacing:normal;text-transform:none;writing-mode:lr-tb;direction:ltr;text-orientation:mixed;dominant-baseline:auto;baseline-shift:baseline;white-space:normal;fill-opacity:1;stop-color:#000000;stop-opacity:1;stroke-width:0.26458333;stroke-dasharray:none"
           x="69.834908"
           y="55.101894"
           id="tspan36645">want to have that side </tspan><tspan
           sodipodi:role="line"
           style="font-style:normal;font-variant:normal;font-weight:bold;font-stretch:normal;font-size:5.29167px;line-height:1.25;font-family:'Ink Free';-inkscape-font-specification:'Ink Free';font-variant-ligatures:normal;font-variant-position:normal;font-variant-caps:normal;font-variant-numeric:normal;font-variant-alternates:normal;font-variant-east-asian:normal;font-feature-settings:normal;font-variation-settings:normal;text-indent:0;text-align:start;text-decoration-line:none;text-decoration-style:solid;text-decoration-color:#000000;letter-spacing:0px;word-spacing:normal;text-transform:none;writing-mode:lr-tb;direction:ltr;text-orientation:mixed;dominant-baseline:auto;baseline-shift:baseline;white-space:normal;fill-opacity:1;stop-color:#000000;stop-opacity:1;stroke-width:0.26458333;stroke-dasharray:none"
           x="69.834908"
           y="61.716476"
           id="tspan102943">facing the connectors</tspan></text>
      <text
         xml:space="preserve"
         style="font-style:normal;font-variant:normal;font-weight:bold;font-stretch:normal;font-size:5.29167px;line-height:1.25;font-family:'Ink Free';-inkscape-font-specification:'Ink Free';font-variant-ligatures:normal;font-variant-position:normal;font-variant-caps:normal;font-variant-numeric:normal;font-variant-alternates:normal;font-variant-east-asian:normal;font-feature-settings:normal;font-variation-settings:normal;text-indent:0;text-align:start;text-decoration-line:none;text-decoration-style:solid;text-decoration-color:#000000;letter-spacing:0px;word-spacing:normal;text-transform:none;writing-mode:lr-tb;direction:ltr;text-orientation:mixed;dominant-baseline:auto;baseline-shift:baseline;white-space:normal;fill-opacity:1;stop-color:#000000;stroke-width:0.26458333;stroke-dasharray:none"
         x="71.833794"
         y="7.360188"
         id="text23457-0-6-7-8-6-0-7"><tspan
           sodipodi:role="line"
           style="font-style:normal;font-variant:normal;font-weight:bold;font-stretch:normal;font-size:5.29167px;line-height:1.25;font-family:'Ink Free';-inkscape-font-specification:'Ink Free';font-variant-ligatures:normal;font-variant-position:normal;font-variant-caps:normal;font-variant-numeric:normal;font-variant-alternates:normal;font-variant-east-asian:normal;font-feature-settings:normal;font-variation-settings:normal;text-indent:0;text-align:start;text-decoration-line:none;text-decoration-style:solid;text-decoration-color:#000000;letter-spacing:0px;word-spacing:normal;text-transform:none;writing-mode:lr-tb;direction:ltr;text-orientation:mixed;dominant-baseline:auto;baseline-shift:baseline;white-space:normal;fill-opacity:1;stop-color:#000000;stop-opacity:1;stroke-width:0.26458333;stroke-dasharray:none"
           x="71.833794"
           y="7.360188"
           id="tspan55804-7-5-2-1">5</tspan></text>
    </g>
    <g
       id="lines"
       class="drawing__outline"
       style="stroke-width:0.79375;stroke-dasharray:none">
      <path
         style="font-variation-settings:normal;display:inline;fill:none;fill-opacity:1;marker-end:url(#Arrow2-4-7-8);stop-color:#000000;stroke-width:0.79375;stroke-dasharray:none"
         d="m 20.019583,9.5088411 v 5.2445459 c 0,1.165597 1.048342,1.959856 1.475177,2.125502 3.074569,1.193008 2.712798,4.635755 -2.54175,4.635755 -3.283385,0 -3.28564,-2.022541 0.04418,-2.022541 5.939828,0 5.957854,4.98283 0.03067,4.98283 -3.362117,0 -3.380189,-1.999079 -0.06203,-1.999079 5.971805,0 5.989877,4.977256 0.03307,4.977256 -3.333022,0 -3.351551,-2.008693 -0.01144,-2.008693 5.94927,0 5.94927,5.08159 -0.02392,5.08159 -3.318704,0 -3.318704,-2.008761 0.02689,-2.008761 5.014773,0 5.542761,3.064062 2.786367,4.344659 -0.511701,0.237705 -1.867459,0.644007 -1.866841,1.345355 l 0.0023,2.322027"
         id="path4550-3-5"
         inkscape:connector-curvature="0"
         sodipodi:nodetypes="cssssssssssssc" />
      <path
         style="font-variation-settings:normal;display:inline;fill:none;fill-opacity:1;marker-end:url(#Arrow2-4-7-8);stop-color:#000000;stroke-width:0.79375;stroke-dasharray:none"
         d="m 42.873261,9.5088411 v 5.2445459 c 0,1.165597 1.048342,1.959856 1.475178,2.125502 3.074568,1.193008 2.712798,4.635755 -2.541751,4.635755 -3.283385,0 -3.28564,-2.022541 0.04418,-2.022541 5.939827,0 5.957853,4.98283 0.03067,4.98283 -3.362116,0 -3.380188,-1.999079 -0.06203,-1.999079 5.971805,0 5.989877,4.977256 0.03307,4.977256 -3.333023,0 -3.351553,-2.008693 -0.01144,-2.008693 5.94927,0 5.94927,5.08159 -0.02392,5.08159 -3.318705,0 -3.318705,-2.008761 0.02689,-2.008761 5.014773,0 5.54276,3.064062 2.786367,4.344659 -0.511701,0.237705 -1.867459,0.644007 -1.866841,1.345355 l 0.0023,2.322027"
         id="path25525"
         inkscape:connector-curvature="0"
         sodipodi:nodetypes="cssssssssssssc" />
      <path
         style="font-variation-settings:normal;fill:none;fill-opacity:1;stroke-width:0.79375;stroke-dasharray:none;marker-end:url(#Arrow2-4-7-8);stop-color:#000000"
         d="M 64.114512,46.751924 C 56.636113,47.554241 45.715782,40.380936 41.18507,46.245855"
         id="path36647"
         sodipodi:nodetypes="cc" />
      <path
         id="path69849-0-8-5"
         style="font-variation-settings:normal;fill:none;fill-opacity:1;fill-rule:evenodd;stop-color:#000000;stroke-width:0.79375;stroke-dasharray:none"
         d="M 77.742274,5.5555052 C 77.742287,7.7839259 75.58308,10.714077 73.2952,10.176427 71.343879,9.7178483 69.39364,7.9631252 69.039786,6.1415198 68.614857,3.953989 70.945008,2.1066125 73.2952,2.1066125 c 2.350204,0 4.447087,1.220472 4.447074,3.4488927 z"
         sodipodi:nodetypes="sssss" />
    </g>
  </g>
</svg>
