<?xml version="1.0" encoding="UTF-8" standalone="no"?>
<!-- Created with Inkscape (http://www.inkscape.org/) -->

<svg
   width="500"
   height="300"
   viewBox="0 0 132.29166 79.375"
   version="1.1"
   id="svg5546"
   inkscape:version="1.2 (dc2aeda, 2022-05-15)"
   sodipodi:docname="07.svg"
   class="manual__2C__img"
   xmlns:inkscape="http://www.inkscape.org/namespaces/inkscape"
   xmlns:sodipodi="http://sodipodi.sourceforge.net/DTD/sodipodi-0.dtd"
   xmlns:xlink="http://www.w3.org/1999/xlink"
   xmlns="http://www.w3.org/2000/svg"
   xmlns:svg="http://www.w3.org/2000/svg">
  <sodipodi:namedview
     id="namedview5548"
     pagecolor="#ffffff"
     bordercolor="#666666"
     borderopacity="1.0"
     inkscape:showpageshadow="2"
     inkscape:pageopacity="0.0"
     inkscape:pagecheckerboard="0"
     inkscape:deskcolor="#d1d1d1"
     inkscape:document-units="px"
     showgrid="false"
     inkscape:zoom="2.2000923"
     inkscape:cx="234.30835"
     inkscape:cy="134.99434"
     inkscape:window-width="1920"
     inkscape:window-height="1007"
     inkscape:window-x="0"
     inkscape:window-y="0"
     inkscape:window-maximized="1"
     inkscape:current-layer="layer1" />
  <defs
     id="defs5543">
    <linearGradient
       inkscape:collect="always"
       id="linearGradient12308">
      <stop
         style="stop-color:#000000;stop-opacity:1;"
         offset="0"
         id="stop12304" />
      <stop
         style="stop-color:#000000;stop-opacity:0;"
         offset="1"
         id="stop12306" />
    </linearGradient>
    <linearGradient
       inkscape:collect="always"
       id="linearGradient12265">
      <stop
         style="stop-color:#000000;stop-opacity:1;"
         offset="0"
         id="stop12261" />
      <stop
         style="stop-color:#000000;stop-opacity:0;"
         offset="1"
         id="stop12263" />
    </linearGradient>
    <linearGradient
       id="linearGradient11401"
       inkscape:swatch="solid">
      <stop
         style="stop-color:#000000;stop-opacity:1;"
         offset="0"
         id="stop11399" />
    </linearGradient>
    <linearGradient
       id="linearGradient9899"
       inkscape:swatch="solid">
      <stop
         style="stop-color:#000000;stop-opacity:1;"
         offset="0"
         id="stop9897" />
    </linearGradient>
    <linearGradient
       id="linearGradient9133"
       inkscape:swatch="solid">
      <stop
         style="stop-color:#000000;stop-opacity:1;"
         offset="0"
         id="stop9131" />
    </linearGradient>
    <inkscape:path-effect
       effect="perspective-envelope"
       up_left_point="867.53596,234.21883"
       up_right_point="887.95006,234.2596"
       down_left_point="867.04061,237.33875"
       down_right_point="888.47724,237.33875"
       id="path-effect40248"
       is_visible="true"
       lpeversion="1"
       deform_type="perspective"
       horizontal_mirror="false"
       vertical_mirror="false"
       overflow_perspective="false" />
    <marker
       style="overflow:visible"
       id="Arrow2-4-7-2"
       refX="0"
       refY="0"
       orient="auto-start-reverse"
       inkscape:stockid="Arrow2"
       markerWidth="4.6999998"
       markerHeight="3.4181819"
       viewBox="0 0 7.7 5.6"
       inkscape:isstock="true"
       inkscape:collect="always"
       preserveAspectRatio="xMidYMid">
      <path
         transform="scale(0.7)"
         d="M -2,-4 9,0 -2,4 c 2,-2.33 2,-5.66 0,-8 z"
         style="fill:context-stroke;fill-rule:evenodd;stroke:none"
         id="arrow2L-3-6-8" />
    </marker>
    <radialGradient
       inkscape:collect="always"
       xlink:href="#linearGradient12265"
       id="radialGradient12267"
       cx="96.753659"
       cy="38.718799"
       fx="96.753659"
       fy="38.718799"
       r="26.824783"
       gradientTransform="matrix(1,0,0,1.0289862,0,-1.1223094)"
       gradientUnits="userSpaceOnUse" />
    <linearGradient
       inkscape:collect="always"
       xlink:href="#linearGradient12308"
       id="linearGradient12310"
       x1="69.928876"
       y1="38.718799"
       x2="123.57844"
       y2="38.718799"
       gradientUnits="userSpaceOnUse" />
  </defs>
  <g
     inkscape:label="Layer 1"
     inkscape:groupmode="layer"
     id="layer1">
    <g
       aria-label="This side out"
       id="g40204"
       style="font-weight:bold;font-size:3.88056px;line-height:1.25;font-family:'Ink Free';-inkscape-font-specification:'Ink Free';letter-spacing:0px;baseline-shift:baseline;stop-color:#000000;stroke-width:0.40721726;stroke-dasharray:none"
       transform="matrix(-0.64973505,0,0,0.64973505,602.22795,-89.146563)"
       class="drawing__annotation">
      <path
         id="path40202"
         style="baseline-shift:baseline;stop-color:#000000;stop-opacity:1;stroke-width:0.40721726;stroke-dasharray:none"
         d="m 888.16678,235.52576 c 0.007,0.0427 -0.006,0.0754 -0.0391,0.098 -0.0309,0.0226 -0.0926,0.0402 -0.18499,0.0527 -0.22227,0.0402 -0.34683,0.0628 -0.37342,0.0678 l -0.23637,0.0415 c 0.0208,0.13199 0.0439,0.27091 0.0695,0.41685 0.0283,0.14662 0.0549,0.27579 0.0799,0.38729 0.0339,0.15101 0.07,0.26736 0.10827,0.34866 0.0383,0.0815 0.0597,0.1276 0.0639,0.13815 0.004,0.0264 -0.009,0.0502 -0.0383,0.0713 -0.0268,0.0238 -0.0543,0.0357 -0.0823,0.0357 -0.0153,-1e-5 -0.0289,-0.005 -0.0407,-0.0159 -0.0114,-0.008 -0.0226,-0.0225 -0.0336,-0.0436 -0.0211,-0.0369 -0.047,-0.10546 -0.0778,-0.20537 -0.0281,-0.0996 -0.0553,-0.20928 -0.0815,-0.329 -0.024,-0.10634 -0.0493,-0.2291 -0.0758,-0.36808 -0.0244,-0.14094 -0.0466,-0.27616 -0.0666,-0.40574 -0.13629,0.0227 -0.27568,0.0505 -0.41822,0.0834 -0.12845,0.0279 -0.20524,0.0418 -0.23027,0.0418 -0.0301,-2e-5 -0.0601,-0.009 -0.0901,-0.0268 -0.0276,-0.0179 -0.0435,-0.042 -0.0478,-0.0725 -0.005,-0.033 0.003,-0.0545 0.0245,-0.0647 0.021,-0.0101 0.0577,-0.0151 0.11014,-0.0151 0.0374,4e-5 0.0914,-0.006 0.16191,-0.0188 0.0701,-0.0151 0.11471,-0.0252 0.1339,-0.0302 0.16201,-0.0327 0.27204,-0.0541 0.33023,-0.0641 -0.008,-0.0529 -0.0214,-0.1221 -0.0397,-0.20741 -0.0229,-0.11507 -0.0389,-0.20233 -0.0481,-0.26203 -0.0149,-0.0968 -0.0238,-0.17099 -0.0268,-0.22284 -0.001,-0.0542 0.004,-0.10222 0.0146,-0.14396 0.012,-0.049 0.045,-0.0735 0.099,-0.0734 0.0221,4e-5 0.0374,0.004 0.0459,0.0111 0.009,0.007 0.0143,0.0209 0.0174,0.0405 0.002,0.0147 0.003,0.0577 0.002,0.12908 -0.001,0.0715 0.008,0.16675 0.0265,0.28588 0.0145,0.0922 0.0333,0.19583 0.0566,0.31116 l 0.0199,0.10189 c 0.10911,-0.0175 0.3228,-0.0638 0.64045,-0.13874 0.0189,-0.005 0.0321,-0.0227 0.0394,-0.0525 0.01,-0.03 0.0221,-0.045 0.037,-0.045 0.0272,3e-5 0.0572,0.0163 0.09,0.0488 0.0349,0.0301 0.0551,0.0615 0.0607,0.0941 z m -1.74111,1.53099 c 0.006,0.0422 -9.2e-4,0.0753 -0.0205,0.099 -0.0196,0.0238 -0.0499,0.0357 -0.0907,0.0357 -0.0511,0 -0.10589,-0.0556 -0.16434,-0.16645 -0.0557,-0.1105 -0.0965,-0.22455 -0.12254,-0.34211 -0.0252,-0.11193 -0.0631,-0.33721 -0.1134,-0.67346 -0.01,-0.0536 -0.0183,-0.10706 -0.0254,-0.16045 -0.008,-0.0558 -0.0151,-0.10273 -0.0228,-0.14068 -0.0491,0.17493 -0.12155,0.37512 -0.21778,0.60107 -0.0969,0.2276 -0.19996,0.42418 -0.30896,0.58916 -0.10703,0.16586 -0.20164,0.24911 -0.28341,0.2491 -0.0843,-1e-5 -0.14596,-0.0463 -0.1848,-0.13871 -0.0362,-0.0921 -0.0658,-0.2377 -0.0887,-0.43597 -0.0213,-0.18412 -0.0227,-0.39159 -0.004,-0.62193 0.0208,-0.22866 0.054,-0.40157 0.0998,-0.51963 0.0186,-0.0526 0.0355,-0.0876 0.0508,-0.10511 0.015,-0.0199 0.0337,-0.0299 0.056,-0.0299 0.062,8e-5 0.0946,0.0126 0.0977,0.0376 0.002,0.0125 -0.007,0.0413 -0.0267,0.0864 -0.0519,0.12554 -0.0923,0.27689 -0.12108,0.45443 -0.0289,0.17854 -0.0255,0.41993 0.0106,0.72559 0.0244,0.20627 0.0646,0.30991 0.12067,0.30992 0.0662,2e-5 0.14617,-0.0747 0.2396,-0.22377 0.0952,-0.15091 0.18505,-0.32951 0.2695,-0.53532 0.0839,-0.20446 0.14453,-0.38101 0.18217,-0.53012 0.0132,-0.0504 0.0252,-0.12832 0.0359,-0.23363 0.002,-0.0425 0.005,-0.0725 0.0103,-0.0899 0.005,-0.0199 0.0121,-0.0299 0.022,-0.0299 0.0273,4e-5 0.0585,0.0113 0.0938,0.0338 0.0353,0.0225 0.0547,0.0463 0.0581,0.0713 0.0165,0.12033 0.0486,0.32824 0.0968,0.62544 0.0508,0.29743 0.0907,0.50547 0.11943,0.62236 0.0241,0.10165 0.0528,0.18137 0.0862,0.23901 0.036,0.0577 0.0691,0.10374 0.0993,0.13794 0.0299,0.0316 0.0454,0.0514 0.0465,0.0593 z m -1.98751,-0.74425 c 0.0112,0.10079 -0.0126,0.21746 -0.0716,0.35019 -0.0592,0.13329 -0.15126,0.24874 -0.2762,0.34613 -0.12561,0.0951 -0.27559,0.1427 -0.44966,0.14268 -0.17154,-2e-5 -0.30284,-0.049 -0.39365,-0.14681 -0.0905,-0.0975 -0.14217,-0.21831 -0.15501,-0.36214 -0.0112,-0.125 -0.003,-0.27926 0.0231,-0.46235 0.0288,-0.18203 0.0768,-0.34392 0.1439,-0.48598 0.004,-0.0101 0.0208,-0.0468 0.0497,-0.1099 0.0313,-0.0655 0.0678,-0.11451 0.10953,-0.14713 0.0414,-0.0351 0.0871,-0.0525 0.1369,-0.0525 0.0224,3e-5 0.0429,0.006 0.0616,0.0189 0.0209,0.0101 0.0322,0.0239 0.034,0.0415 5.1e-4,0.005 -0.006,0.0177 -0.0187,0.0377 -0.0107,0.0176 -0.0194,0.0315 -0.0259,0.0415 -0.0748,0.10332 -0.13362,0.20574 -0.17649,0.30725 -0.0579,0.1299 -0.10112,0.25908 -0.12947,0.38751 -0.0259,0.12896 -0.0319,0.27015 -0.0177,0.4237 0.0191,0.20678 0.1512,0.31069 0.39625,0.31075 0.11484,3e-5 0.21727,-0.0342 0.30714,-0.10245 0.0922,-0.0681 0.16237,-0.15049 0.21052,-0.24696 0.0478,-0.0988 0.0673,-0.1882 0.0586,-0.26836 -0.01,-0.0903 -0.0472,-0.16872 -0.11227,-0.23548 -0.0649,-0.0666 -0.15142,-0.13698 -0.25954,-0.21102 -0.0702,-0.0484 -0.12179,-0.0878 -0.15492,-0.11836 -0.0331,-0.0305 -0.0507,-0.0558 -0.0527,-0.0761 -0.003,-0.0304 0.0158,-0.0544 0.0566,-0.072 0.0405,-0.0201 0.0894,-0.0301 0.14681,-0.0301 0.0324,4e-5 0.0539,0.003 0.0645,0.008 0.0103,0.003 0.0159,0.009 0.0169,0.0189 5.5e-4,0.005 -0.004,0.0141 -0.0122,0.0265 -0.006,0.0101 -0.009,0.0189 -0.008,0.0266 7.9e-4,0.008 0.0284,0.033 0.083,0.076 0.10907,0.0839 0.20225,0.16923 0.27947,0.25607 0.0774,0.0871 0.12276,0.18975 0.13588,0.30822 z m -2.74361,-0.18737 c 0.0177,10e-6 0.0279,0.0193 0.0305,0.0579 0.003,0.0464 -0.024,0.14838 -0.0819,0.30646 -0.0556,0.15893 -0.14797,0.30683 -0.27735,0.44355 -0.12739,0.13734 -0.29146,0.20622 -0.4918,0.2062 -0.16442,-2e-5 -0.30453,-0.0531 -0.42003,-0.15893 -0.11513,-0.10551 -0.17751,-0.26705 -0.18735,-0.48377 -0.009,-0.20233 0.0273,-0.40077 0.10911,-0.59539 0.0812,-0.19595 0.19123,-0.35404 0.33017,-0.47483 0.13824,-0.12281 0.28444,-0.18393 0.43899,-0.18372 0.0922,1.2e-4 0.17082,0.0215 0.23586,0.0641 0.0675,0.0402 0.10377,0.0992 0.10888,0.17719 0.006,0.0883 -0.0387,0.1742 -0.1338,0.25778 -0.0928,0.0838 -0.21668,0.15763 -0.37172,0.22136 -0.1554,0.0639 -0.31713,0.10991 -0.48507,0.13803 -0.0246,0.1184 -0.0341,0.23468 -0.0286,0.34879 0.007,0.15104 0.0475,0.26874 0.12068,0.3527 0.0759,0.0842 0.17923,0.12637 0.30982,0.12641 0.19712,5e-5 0.35271,-0.0723 0.46641,-0.21659 0.11317,-0.1436 0.20431,-0.3047 0.27354,-0.48304 0.005,-0.0103 0.0121,-0.0296 0.0227,-0.0579 0.0106,-0.0309 0.0209,-0.0463 0.031,-0.0463 z m -0.37116,-0.59986 c -0.003,-0.0403 -0.0258,-0.0718 -0.0697,-0.0945 -0.0414,-0.0227 -0.0896,-0.034 -0.14451,-0.0341 -0.095,-1.2e-4 -0.1844,0.0312 -0.26846,0.094 -0.0842,0.063 -0.15417,0.13873 -0.2098,0.2274 -0.0533,0.0889 -0.0871,0.16791 -0.10127,0.23689 0.11538,-0.0127 0.23591,-0.0458 0.36144,-0.0993 0.12531,-0.0534 0.22873,-0.11174 0.3103,-0.17507 0.0839,-0.0632 0.12452,-0.11497 0.12198,-0.15536 z m -1.56886,-1.01526 c 0.002,0.0489 0.003,0.14575 0.004,0.29097 4e-4,0.14341 0.003,0.28874 0.009,0.43599 0.011,0.28649 0.0286,0.58198 0.053,0.88669 0.0245,0.30505 0.0426,0.50699 0.054,0.60384 6.2e-4,0.0157 0.003,0.0328 0.006,0.0511 0.003,0.0184 0.007,0.0355 0.01,0.0513 0.0131,0.0737 0.02,0.11857 0.0207,0.13441 0.001,0.0264 -0.0172,0.0515 -0.0548,0.0753 -0.035,0.0238 -0.0629,0.0357 -0.0834,0.0357 -0.0283,0 -0.0479,-0.0106 -0.059,-0.0317 -0.009,-0.0238 -0.0135,-0.0555 -0.015,-0.0951 -0.005,-0.14487 -0.007,-0.29564 -0.005,-0.45221 l -0.004,-0.21792 c -0.003,-0.0723 -0.007,-0.16632 -0.0142,-0.28186 -0.007,-0.11766 -0.0142,-0.21581 -0.022,-0.29463 -0.11394,0.41906 -0.24961,0.77083 -0.40691,1.05299 -0.15622,0.28207 -0.33148,0.42405 -0.52478,0.42403 -0.0876,-10e-6 -0.16319,-0.0426 -0.22653,-0.1275 -0.0606,-0.0847 -0.0921,-0.20611 -0.0946,-0.36375 -0.003,-0.20638 0.0604,-0.42951 0.19042,-0.66898 0.13158,-0.23765 0.28053,-0.44058 0.44691,-0.60945 0.16795,-0.16793 0.29275,-0.25149 0.37508,-0.25138 0.0798,1.2e-4 0.12065,0.0264 0.12247,0.0789 0.001,0.035 -0.01,0.0764 -0.0332,0.12405 -0.021,0.0453 -0.0459,0.0867 -0.0748,0.12449 -0.0264,0.0378 -0.0421,0.0567 -0.0471,0.0567 -0.005,-1e-5 -0.0115,-0.001 -0.019,-0.004 -0.005,-0.005 -0.008,-0.0103 -0.008,-0.0151 -4e-4,-0.0126 0.005,-0.0341 0.0168,-0.0643 0.0116,-0.0302 0.0172,-0.0504 0.0168,-0.0604 -4e-4,-0.0126 -0.002,-0.0214 -0.005,-0.0264 -0.003,-0.005 -0.0104,-0.008 -0.0228,-0.008 -0.0526,-6e-5 -0.14556,0.0728 -0.27944,0.21903 -0.13207,0.14442 -0.25023,0.31766 -0.35451,0.52018 -0.10497,0.20383 -0.15604,0.3947 -0.15268,0.57235 0.001,0.0629 0.0151,0.12202 0.0418,0.17732 0.0268,0.0554 0.0697,0.0831 0.12874,0.0831 0.18743,5e-5 0.35631,-0.16186 0.50553,-0.48325 0.15016,-0.32071 0.27593,-0.68019 0.37748,-1.0771 l -0.0191,-0.31507 c -0.0173,-0.27496 -0.0262,-0.42013 -0.0268,-0.4373 -0.005,-0.14686 -0.003,-0.25167 0.007,-0.31485 0.004,-0.0243 0.008,-0.0412 0.0129,-0.0509 0.007,-0.01 0.0203,-0.0145 0.04,-0.0145 0.0246,5e-5 0.0495,0.009 0.0747,0.0256 0.0251,0.0146 0.0382,0.0353 0.0393,0.062 z m -1.88855,0.21016 c 3e-4,0.037 -0.0405,0.0554 -0.12255,0.0553 -0.0423,-7e-5 -0.0858,-0.0174 -0.13069,-0.052 -0.0424,-0.0345 -0.0636,-0.0629 -0.0636,-0.085 -8e-5,-0.027 0.0122,-0.0528 0.0369,-0.0773 0.0272,-0.0245 0.0543,-0.0366 0.0816,-0.0366 l 0.0261,0.011 c 0.0199,0.005 0.0423,0.021 0.0672,0.0479 0.0199,0.0196 0.0424,0.0455 0.0674,0.0775 0.0251,0.0321 0.0376,0.0518 0.0377,0.0591 z m 0.11648,2.41469 c 2.5e-4,0.0266 -0.0112,0.0465 -0.0342,0.0598 -0.0205,0.016 -0.045,0.0227 -0.0734,0.02 -0.0362,-0.003 -0.0637,-0.0627 -0.0826,-0.17941 -0.0162,-0.1164 -0.0343,-0.33617 -0.0541,-0.6572 -0.0114,-0.20967 -0.0215,-0.41284 -0.0302,-0.60962 -0.009,-0.19811 -0.0145,-0.34966 -0.0175,-0.45531 -1.5e-4,-0.0276 0.003,-0.0477 0.0109,-0.0602 0.01,-0.015 0.0274,-0.0225 0.0524,-0.0225 0.0575,7e-5 0.094,0.0239 0.10947,0.0716 0.0154,0.0477 0.0237,0.13962 0.0249,0.27608 l -1.1e-4,0.45138 c 0.002,0.26047 0.0116,0.47091 0.0283,0.63031 7e-5,0.008 0.0123,0.0918 0.0369,0.25247 0.0191,0.11108 0.0288,0.18534 0.0292,0.22252 z m -0.68049,-0.56555 c -9e-5,0.11519 -0.0464,0.22682 -0.13914,0.33488 -0.0905,0.10578 -0.21082,0.19066 -0.36104,0.25447 -0.15056,0.0666 -0.30749,0.1 -0.47055,0.1 -0.11133,-1e-5 -0.18622,-0.0107 -0.22465,-0.032 -0.0384,-0.0213 -0.0572,-0.0507 -0.0564,-0.088 4.8e-4,-0.0239 0.031,-0.0651 0.0914,-0.12353 0.0604,-0.061 0.10085,-0.0914 0.12149,-0.0914 0.0309,0 0.0463,0.007 0.0461,0.0198 -1.7e-4,0.0106 -0.007,0.0211 -0.0198,0.0317 -0.0131,0.0106 -0.0197,0.0199 -0.0198,0.0279 -1.8e-4,0.0106 0.0151,0.0212 0.0459,0.0318 0.0333,0.0106 0.0733,0.0159 0.11973,0.0159 0.10835,2e-5 0.21691,-0.0198 0.32558,-0.0596 0.1111,-0.0423 0.20153,-0.0965 0.27131,-0.16238 0.0696,-0.0658 0.1045,-0.13535 0.10475,-0.20874 2.4e-4,-0.0706 -0.0213,-0.12671 -0.0646,-0.16842 -0.0432,-0.0417 -0.0979,-0.0716 -0.16413,-0.0899 -0.0636,-0.0208 -0.17173,-0.0494 -0.3243,-0.0858 -0.16766,-0.0389 -0.29832,-0.0727 -0.39204,-0.10116 -0.091,-0.0311 -0.16408,-0.0685 -0.21909,-0.11235 -0.0549,-0.0464 -0.0815,-0.1042 -0.0799,-0.17337 0.003,-0.12266 0.0648,-0.23463 0.18553,-0.33598 0.12036,-0.10103 0.25756,-0.18029 0.41167,-0.23795 0.15379,-0.0576 0.27192,-0.0863 0.35463,-0.0862 0.0852,1.1e-4 0.12765,0.0252 0.12734,0.0754 -1.8e-4,0.0302 -0.0104,0.0641 -0.0308,0.10186 -0.0203,0.0353 -0.0506,0.0529 -0.0909,0.0528 -0.0151,-2e-5 -0.0314,-0.005 -0.0489,-0.0152 -0.0175,-0.0126 -0.035,-0.019 -0.0526,-0.019 -0.0503,-6e-5 -0.12968,0.0162 -0.23828,0.0489 -0.10874,0.0327 -0.2078,0.0819 -0.29723,0.14779 -0.0896,0.066 -0.13545,0.14615 -0.13735,0.24066 -0.001,0.0614 0.0321,0.10762 0.10004,0.13852 0.0706,0.0283 0.20085,0.0645 0.39086,0.10839 0.0228,0.008 0.0456,0.0142 0.0684,0.0194 0.0228,0.003 0.0431,0.007 0.0609,0.0116 0.19544,0.0466 0.34527,0.0997 0.44944,0.15934 0.10436,0.0597 0.15656,0.14941 0.15646,0.26942 z m -2.8138,-0.001 c -0.005,0.1154 -0.0565,0.22724 -0.15436,0.33549 -0.0955,0.10597 -0.21997,0.191 -0.37352,0.25493 -0.15404,0.0667 -0.31302,0.10014 -0.47669,0.10013 -0.11173,0 -0.18642,-0.0107 -0.22405,-0.0321 -0.0376,-0.0214 -0.0552,-0.0508 -0.0528,-0.0882 0.002,-0.024 0.034,-0.0652 0.0972,-0.12375 0.0634,-0.0611 0.10531,-0.0915 0.12596,-0.0915 0.031,1e-5 0.0462,0.007 0.0454,0.0199 -6.4e-4,0.0106 -0.008,0.0212 -0.0213,0.0318 -0.0136,0.0106 -0.0206,0.0199 -0.0211,0.0279 -6.4e-4,0.0106 0.0143,0.0212 0.0447,0.0318 0.033,0.0106 0.0728,0.0159 0.11947,0.016 0.10875,2e-5 0.21858,-0.0199 0.32938,-0.0597 0.11338,-0.0424 0.20652,-0.0967 0.27944,-0.16268 0.0728,-0.0659 0.11084,-0.1356 0.11431,-0.20911 0.003,-0.0707 -0.0158,-0.12694 -0.0574,-0.16873 -0.0416,-0.0417 -0.0951,-0.0717 -0.16079,-0.09 -0.0629,-0.0208 -0.17018,-0.0495 -0.3217,-0.086 -0.16656,-0.039 -0.29621,-0.0728 -0.38902,-0.10134 -0.09,-0.0311 -0.16167,-0.0686 -0.21496,-0.11255 -0.0531,-0.0465 -0.0772,-0.10438 -0.0726,-0.17367 0.008,-0.12288 0.0753,-0.23504 0.20097,-0.33657 0.12523,-0.1012 0.26641,-0.1806 0.4236,-0.23836 0.15689,-0.0577 0.27671,-0.0864 0.3597,-0.0863 0.0855,1.2e-4 0.12701,0.0253 0.12449,0.0756 -0.001,0.0302 -0.0133,0.0642 -0.0353,0.10203 -0.0219,0.0353 -0.0531,0.053 -0.0935,0.0529 -0.0152,-2e-5 -0.0313,-0.005 -0.0484,-0.0152 -0.017,-0.0127 -0.0343,-0.019 -0.052,-0.019 -0.0505,-7e-5 -0.13086,0.0162 -0.24131,0.049 -0.11056,0.0327 -0.21213,0.0821 -0.30478,0.14805 -0.0928,0.0661 -0.14237,0.14641 -0.14844,0.24108 -0.004,0.0615 0.0275,0.10781 0.0943,0.13876 0.0696,0.0284 0.19873,0.0646 0.3875,0.10859 0.0225,0.008 0.0451,0.0142 0.0678,0.0194 0.0228,0.003 0.043,0.007 0.0606,0.0116 0.19412,0.0467 0.34216,0.0999 0.44409,0.15962 0.10211,0.0598 0.15056,0.14968 0.14519,0.2699 z m -1.83426,-1.85653 c -0.003,0.0371 -0.0455,0.0556 -0.12803,0.0555 -0.0426,-7e-5 -0.085,-0.0175 -0.12723,-0.0522 -0.0398,-0.0346 -0.0587,-0.0631 -0.0569,-0.0852 0.002,-0.0271 0.0167,-0.053 0.0436,-0.0775 0.0294,-0.0245 0.0578,-0.0368 0.0852,-0.0367 l 0.0253,0.0111 c 0.0195,0.005 0.0407,0.0211 0.0636,0.048 0.0184,0.0197 0.0389,0.0456 0.0614,0.0778 0.0225,0.0322 0.0335,0.052 0.033,0.0593 z m -0.0853,2.42277 c -0.002,0.0267 -0.0151,0.0467 -0.0395,0.0601 -0.022,0.0161 -0.0471,0.0227 -0.0756,0.02 -0.0362,-0.003 -0.0589,-0.0629 -0.0681,-0.18003 -0.007,-0.11682 -0.006,-0.33734 6.8e-4,-0.65946 0.006,-0.21038 0.013,-0.41423 0.0208,-0.61167 0.008,-0.19877 0.0148,-0.35082 0.0205,-0.45682 0.002,-0.0277 0.008,-0.0478 0.0161,-0.0604 0.0113,-0.0151 0.0295,-0.0226 0.0547,-0.0226 0.058,8e-5 0.0927,0.024 0.10421,0.0718 0.0115,0.0479 0.0122,0.14008 0.002,0.27699 l -0.038,0.45288 c -0.0197,0.26135 -0.0278,0.4725 -0.0244,0.63245 -5.8e-4,0.008 0.005,0.0921 0.0159,0.25333 0.01,0.11147 0.0135,0.18599 0.0107,0.2233 z m -0.83767,0.044 c -0.003,0.0321 -0.0155,0.0589 -0.0382,0.0803 -0.0229,0.0241 -0.0513,0.0362 -0.0852,0.0362 -0.0261,0 -0.0476,-0.007 -0.0647,-0.0201 -0.0173,-0.0107 -0.025,-0.0268 -0.0231,-0.0483 l 0.0328,-0.27587 c 0.0421,-0.32481 0.0721,-0.58778 0.0902,-0.7904 0.0263,-0.29385 0.0242,-0.49719 -0.006,-0.61175 -0.0299,-0.11668 -0.0714,-0.1749 -0.12455,-0.17497 -0.11889,-1.5e-4 -0.28611,0.18466 -0.50359,0.55777 -0.21985,0.37502 -0.43965,0.79018 -0.65977,1.24695 -0.0171,0.0375 -0.0393,0.0736 -0.0665,0.10852 -0.0247,0.0349 -0.0489,0.0523 -0.0724,0.0523 -0.0575,0 -0.0841,-0.0188 -0.08,-0.0564 0.0182,-0.16331 0.0454,-0.46631 0.0814,-0.9051 0.0358,-0.43545 0.0573,-0.71864 0.0648,-0.85359 0.0279,-0.45152 0.0376,-0.72707 0.0292,-0.83119 -0.008,-0.10377 -0.0119,-0.15923 -0.0111,-0.16661 0.003,-0.0246 0.0186,-0.043 0.0475,-0.0552 0.0289,-0.0122 0.0645,-0.0183 0.10692,-0.0182 0.0349,7e-5 0.0512,0.0788 0.0488,0.23671 4.1e-4,0.15625 -0.009,0.35828 -0.0288,0.60698 l -0.008,0.10611 c -0.003,0.0785 -0.0243,0.30512 -0.0632,0.68295 -0.0388,0.37975 -0.0683,0.66226 -0.0883,0.84491 0.15198,-0.30379 0.29137,-0.57212 0.41854,-0.80584 0.12878,-0.23199 0.27033,-0.44694 0.42461,-0.64518 0.15353,-0.1995 0.28667,-0.29868 0.40015,-0.29852 0.0958,1.3e-4 0.16928,0.0807 0.22062,0.24227 0.0518,0.15986 0.0638,0.40109 0.0356,0.72555 -0.0126,0.14528 -0.0277,0.34874 -0.0452,0.61148 z m -1.69706,-2.41539 c -0.002,0.0198 -0.0136,0.0409 -0.0338,0.0633 -0.02,0.0198 -0.0438,0.0297 -0.0714,0.0297 -0.008,-2e-5 -0.0332,-0.006 -0.077,-0.0188 -0.0409,-0.015 -0.0802,-0.0225 -0.11792,-0.0226 -0.12063,-2e-4 -0.2584,0.006 -0.41337,0.018 -0.15506,0.0122 -0.28444,0.0294 -0.38815,0.0516 -0.009,0.11984 -0.028,0.31051 -0.0582,0.57332 -0.0277,0.26246 -0.0613,0.5413 -0.10097,0.83693 -0.0168,0.1253 -0.0383,0.26553 -0.0645,0.4209 -0.0237,0.15612 -0.0419,0.25308 -0.0546,0.29035 -0.009,0.0293 -0.0308,0.0533 -0.0644,0.072 -0.0312,0.0187 -0.0625,0.0281 -0.0937,0.0281 -0.0183,-1e-5 -0.0328,-0.008 -0.0437,-0.0241 -0.0108,-0.016 -0.0148,-0.0347 -0.0118,-0.056 l 0.0233,-0.13964 c 0.044,-0.20635 0.0865,-0.45852 0.12726,-0.75542 0.0291,-0.21186 0.0595,-0.45172 0.091,-0.71894 0.0316,-0.26749 0.0492,-0.43166 0.0529,-0.49409 -0.51225,0.0542 -0.85706,0.10497 -1.03374,0.15233 -0.0319,0.01 -0.0669,0.0149 -0.10481,0.0149 -0.0455,-6e-5 -0.0873,-0.0164 -0.12516,-0.049 -0.0379,-0.0326 -0.0538,-0.0677 -0.0478,-0.10517 0.004,-0.025 0.0143,-0.0424 0.031,-0.0523 0.0171,-0.0124 0.037,-0.0186 0.0597,-0.0186 0.14491,-0.007 0.26706,-0.0146 0.36649,-0.0219 0.22718,-0.0195 0.51366,-0.0501 0.85911,-0.0918 0.0106,-0.0768 0.0194,-0.13121 0.0264,-0.16331 0.01,-0.032 0.0206,-0.048 0.033,-0.048 0.0476,9e-5 0.0876,0.0187 0.12021,0.0557 0.006,0.007 0.0101,0.0272 0.0108,0.0593 0.001,0.0297 0.001,0.0495 -2.7e-4,0.0594 0.0556,-0.002 0.14764,-0.0147 0.27603,-0.0367 0.27624,-0.0416 0.46428,-0.0623 0.56448,-0.0621 0.12021,2.1e-4 0.19858,0.0152 0.23515,0.0449 0.0252,0.0199 0.0348,0.0558 0.0287,0.10778 z"
         inkscape:path-effect="#path-effect40248"
         inkscape:original-d="m 888.47718,235.52275 q 0,0.066 -0.0582,0.1009 -0.0543,0.0349 -0.20179,0.0543 -0.35701,0.0621 -0.3997,0.0699 l -0.25223,0.0427 q 0,0.20179 0.004,0.42298 0.008,0.22119 0.0194,0.38806 0.0155,0.22507 0.0543,0.34537 0.0388,0.12029 0.0427,0.13582 0,0.0388 -0.0504,0.0699 -0.0466,0.0349 -0.0893,0.0349 -0.0233,0 -0.0388,-0.0155 -0.0155,-0.0116 -0.0272,-0.0427 -0.0233,-0.0543 -0.0466,-0.20179 -0.0194,-0.14746 -0.0311,-0.32596 -0.0116,-0.15911 -0.0194,-0.36866 -0.004,-0.21343 -0.004,-0.41134 -0.21731,0.0349 -0.44626,0.0854 -0.20567,0.0427 -0.24448,0.0427 -0.0466,0 -0.0892,-0.0272 -0.0388,-0.0272 -0.0388,-0.0737 0,-0.0504 0.0349,-0.066 0.0349,-0.0155 0.11641,-0.0155 0.0582,0 0.17075,-0.0194 0.11254,-0.0233 0.14358,-0.031 0.26,-0.0505 0.35313,-0.066 0,-0.0815 -0.008,-0.21343 -0.008,-0.17851 -0.008,-0.27164 0,-0.15134 0.008,-0.23283 0.0116,-0.0854 0.0388,-0.15135 0.031,-0.0776 0.11641,-0.0776 0.0349,0 0.0466,0.0116 0.0116,0.0117 0.0116,0.0427 0,0.0233 -0.0194,0.13582 -0.0194,0.11254 -0.0194,0.2988 0,0.14358 0.008,0.32209 l 0.004,0.10478 q 0.17462,-0.0272 0.69074,-0.14359 0.031,-0.008 0.0504,-0.0543 0.0233,-0.0466 0.0466,-0.0466 0.0427,0 0.0854,0.0504 0.0466,0.0466 0.0466,0.097 z m -2.03729,1.54058 q 0,0.0621 -0.0349,0.097 -0.0349,0.0349 -0.097,0.0349 -0.0776,0 -0.14358,-0.16298 -0.0621,-0.16298 -0.0776,-0.33761 -0.0155,-0.16686 -0.0233,-0.67522 -0.004,-0.0815 -0.004,-0.16298 0,-0.0854 -0.004,-0.14358 -0.11254,0.26776 -0.30657,0.60925 -0.19403,0.34149 -0.39194,0.58596 -0.19402,0.24448 -0.3182,0.24448 -0.12806,0 -0.17075,-0.13582 -0.0388,-0.13582 -0.0388,-0.43075 0,-0.27552 0.0698,-0.62477 0.0737,-0.34925 0.16686,-0.53163 0.0388,-0.0815 0.066,-0.10866 0.0272,-0.031 0.0621,-0.031 0.097,0 0.097,0.0388 0,0.0194 -0.0388,0.0893 -0.10478,0.19402 -0.18239,0.46566 -0.0776,0.27164 -0.0776,0.72955 0,0.30656 0.0854,0.30656 0.1009,0 0.27164,-0.22119 0.17463,-0.22507 0.34537,-0.53552 0.17075,-0.31044 0.26,-0.53939 0.031,-0.0776 0.0698,-0.2406 0.0116,-0.066 0.0233,-0.0931 0.0117,-0.031 0.0272,-0.031 0.0427,0 0.0931,0.0349 0.0505,0.0349 0.0505,0.0737 0,0.18627 0.0116,0.64029 0.0155,0.45015 0.0349,0.62477 0.0155,0.15134 0.0543,0.23672 0.0427,0.0854 0.0815,0.13582 0.0388,0.0466 0.0388,0.0582 z m -1.93252,-0.7373 q 0,0.15134 -0.11253,0.34925 -0.11254,0.19791 -0.31821,0.34149 -0.20567,0.1397 -0.46955,0.1397 -0.25999,0 -0.38417,-0.14358 -0.12418,-0.14358 -0.12418,-0.35702 0,-0.18626 0.066,-0.46178 0.0698,-0.27552 0.19403,-0.49283 0.008,-0.0155 0.0621,-0.11254 0.0582,-0.10089 0.12806,-0.15134 0.0698,-0.0543 0.14746,-0.0543 0.0349,0 0.0621,0.0194 0.031,0.0155 0.031,0.0427 0,0.008 -0.0233,0.0388 -0.0194,0.0272 -0.0311,0.0427 -0.13194,0.1591 -0.21343,0.31433 -0.10865,0.19791 -0.17074,0.39193 -0.0582,0.19403 -0.0582,0.42298 0,0.30657 0.37253,0.30657 0.17463,0 0.32209,-0.1009 0.15134,-0.10089 0.24059,-0.24447 0.0893,-0.14746 0.0893,-0.26776 0,-0.13582 -0.0893,-0.23671 -0.0892,-0.1009 -0.24447,-0.21343 -0.1009,-0.0737 -0.14746,-0.1203 -0.0466,-0.0466 -0.0466,-0.0776 0,-0.0466 0.066,-0.0737 0.066,-0.031 0.15522,-0.031 0.0504,0 0.066,0.008 0.0155,0.004 0.0155,0.0194 0,0.008 -0.0155,0.0272 -0.0116,0.0155 -0.0116,0.0272 0,0.0117 0.0776,0.0776 0.15522,0.12806 0.26,0.26 0.10477,0.13194 0.10477,0.31045 z m -2.79399,-0.18627 q 0.0272,0 0.0272,0.0582 0,0.0699 -0.10477,0.30656 -0.1009,0.23672 -0.31045,0.43851 -0.20567,0.20179 -0.50835,0.20179 -0.24835,0 -0.41522,-0.15523 -0.16686,-0.15522 -0.16686,-0.47731 0,-0.30268 0.1397,-0.5976 0.1397,-0.29881 0.36477,-0.48507 0.22507,-0.19015 0.46567,-0.19015 0.14358,0 0.24059,0.066 0.1009,0.0621 0.1009,0.18239 0,0.13582 -0.15523,0.26387 -0.15134,0.12806 -0.39581,0.22508 -0.24448,0.097 -0.50448,0.1397 -0.0466,0.1785 -0.0466,0.34925 0,0.22507 0.10477,0.34925 0.10866,0.12418 0.30657,0.12418 0.2988,0 0.48507,-0.21344 0.18626,-0.21343 0.31044,-0.48118 0.008,-0.0155 0.0272,-0.0582 0.0194,-0.0466 0.0349,-0.0466 z m -0.34149,-0.60925 q 0,-0.0621 -0.066,-0.097 -0.0621,-0.0349 -0.14746,-0.0349 -0.14746,0 -0.28328,0.097 -0.13582,0.097 -0.22895,0.23283 -0.0893,0.13582 -0.11642,0.2406 0.17851,-0.0194 0.37641,-0.1009 0.19791,-0.0815 0.32985,-0.1785 0.13582,-0.097 0.13582,-0.15911 z m -1.57938,-1.05551 q 0,0.0776 -0.008,0.30656 -0.008,0.22508 -0.008,0.45403 0,0.44238 0.0194,0.90417 0.0194,0.45791 0.031,0.60149 0,0.0233 0.004,0.0504 0.004,0.0272 0.008,0.0505 0.0155,0.10866 0.0155,0.13194 0,0.0388 -0.0582,0.0737 -0.0543,0.0349 -0.0854,0.0349 -0.0427,0 -0.0582,-0.031 -0.0116,-0.0349 -0.0116,-0.0931 0,-0.21343 0.0116,-0.44627 l 0.004,-0.21731 q 0,-0.10865 -0.004,-0.28328 -0.004,-0.1785 -0.0116,-0.2988 -0.19791,0.63641 -0.45015,1.05551 -0.24835,0.41522 -0.5394,0.41522 -0.13193,0 -0.22507,-0.12418 -0.0892,-0.12418 -0.0892,-0.35701 0,-0.30656 0.20567,-0.66745 0.20955,-0.3609 0.47343,-0.62089 0.26776,-0.26 0.39581,-0.26 0.12418,0 0.12418,0.0815 0,0.0543 -0.0388,0.12806 -0.0349,0.0699 -0.0815,0.12806 -0.0427,0.0582 -0.0505,0.0582 -0.008,0 -0.0194,-0.004 -0.008,-0.008 -0.008,-0.0155 0,-0.0194 0.0194,-0.066 0.0194,-0.0466 0.0194,-0.0621 0,-0.0194 -0.004,-0.0272 -0.004,-0.008 -0.0233,-0.008 -0.0815,0 -0.29493,0.22507 -0.20955,0.22119 -0.37641,0.52776 -0.16687,0.30656 -0.16687,0.57044 0,0.0931 0.0388,0.17462 0.0388,0.0815 0.12806,0.0815 0.28328,0 0.52387,-0.47731 0.24448,-0.48119 0.42299,-1.09044 l -0.008,-0.32597 q -0.0116,-0.43074 -0.0116,-0.4579 0,-0.23284 0.0194,-0.33373 0.008,-0.0388 0.0155,-0.0543 0.0116,-0.0155 0.0427,-0.0155 0.0388,0 0.0776,0.0272 0.0388,0.0233 0.0388,0.066 z m -1.97908,0.22507 q 0,0.0582 -0.12806,0.0582 -0.066,0 -0.13582,-0.0543 -0.066,-0.0543 -0.066,-0.0892 0,-0.0427 0.0388,-0.0815 0.0427,-0.0388 0.0854,-0.0388 0,0 0.0272,0.0116 0.0311,0.008 0.0699,0.0504 0.031,0.031 0.0698,0.0815 0.0388,0.0505 0.0388,0.0621 z m 0.097,2.44087 q 0,0.0388 -0.0349,0.0582 -0.0311,0.0233 -0.0737,0.0194 -0.0543,-0.004 -0.0815,-0.17463 -0.0233,-0.17074 -0.0504,-0.64805 -0.0155,-0.31433 -0.0272,-0.61313 -0.0116,-0.30268 -0.0155,-0.46567 0,-0.0427 0.0116,-0.0621 0.0155,-0.0233 0.0543,-0.0233 0.0892,0 0.11254,0.0737 0.0233,0.0737 0.0233,0.28328 l -0.004,0.45791 q 0,0.39193 0.0233,0.62865 0,0.0116 0.0349,0.24835 0.0272,0.16299 0.0272,0.21731 z m -0.68296,-0.55492 q 0,0.17075 -0.1397,0.32985 -0.13582,0.15522 -0.3609,0.24836 -0.22507,0.097 -0.46954,0.097 -0.16687,0 -0.22508,-0.031 -0.0582,-0.031 -0.0582,-0.0854 0,-0.0349 0.0892,-0.1203 0.0892,-0.0893 0.1203,-0.0893 0.0466,0 0.0466,0.0194 0,0.0155 -0.0194,0.031 -0.0194,0.0155 -0.0194,0.0272 0,0.0155 0.0466,0.031 0.0504,0.0155 0.1203,0.0155 0.16298,0 0.32597,-0.0582 0.16686,-0.0621 0.27164,-0.1591 0.10477,-0.097 0.10477,-0.20567 0,-0.10477 -0.066,-0.16686 -0.066,-0.0621 -0.16686,-0.0893 -0.097,-0.031 -0.32985,-0.0854 -0.25612,-0.0582 -0.3997,-0.10089 -0.1397,-0.0466 -0.22507,-0.11254 -0.0854,-0.0699 -0.0854,-0.17462 0,-0.18627 0.18238,-0.34149 0.18239,-0.15523 0.41911,-0.24448 0.23671,-0.0893 0.36477,-0.0893 0.13194,0 0.13194,0.0776 0,0.0466 -0.0311,0.10478 -0.031,0.0543 -0.0931,0.0543 -0.0233,0 -0.0504,-0.0155 -0.0272,-0.0194 -0.0543,-0.0194 -0.0776,0 -0.24447,0.0504 -0.16687,0.0504 -0.30269,0.15134 -0.13581,0.10089 -0.13581,0.24447 0,0.0931 0.10477,0.1397 0.10866,0.0427 0.3997,0.10866 0.0349,0.0116 0.0698,0.0194 0.0349,0.004 0.0621,0.0116 0.2988,0.0698 0.4579,0.15911 0.15911,0.0892 0.15911,0.26775 z m -2.84057,0 q 0,0.17075 -0.1397,0.32985 -0.13582,0.15522 -0.36089,0.24836 -0.22507,0.097 -0.46955,0.097 -0.16686,0 -0.22507,-0.031 -0.0582,-0.031 -0.0582,-0.0854 0,-0.0349 0.0892,-0.1203 0.0893,-0.0893 0.1203,-0.0893 0.0466,0 0.0466,0.0194 0,0.0155 -0.0194,0.031 -0.0194,0.0155 -0.0194,0.0272 0,0.0155 0.0466,0.031 0.0504,0.0155 0.1203,0.0155 0.16298,0 0.32596,-0.0582 0.16687,-0.0621 0.27164,-0.1591 0.10478,-0.097 0.10478,-0.20567 0,-0.10477 -0.066,-0.16686 -0.066,-0.0621 -0.16687,-0.0893 -0.097,-0.031 -0.32984,-0.0854 -0.25612,-0.0582 -0.3997,-0.10089 -0.1397,-0.0466 -0.22507,-0.11254 -0.0854,-0.0699 -0.0854,-0.17462 0,-0.18627 0.18239,-0.34149 0.18239,-0.15523 0.4191,-0.24448 0.23672,-0.0893 0.36477,-0.0893 0.13194,0 0.13194,0.0776 0,0.0466 -0.031,0.10478 -0.031,0.0543 -0.0931,0.0543 -0.0233,0 -0.0504,-0.0155 -0.0272,-0.0194 -0.0543,-0.0194 -0.0776,0 -0.24448,0.0504 -0.16686,0.0504 -0.30268,0.15134 -0.13582,0.10089 -0.13582,0.24447 0,0.0931 0.10478,0.1397 0.10865,0.0427 0.39969,0.10866 0.0349,0.0116 0.0698,0.0194 0.0349,0.004 0.0621,0.0116 0.29881,0.0698 0.45791,0.15911 0.1591,0.0892 0.1591,0.26775 z m -1.98684,-1.88595 q 0,0.0582 -0.12806,0.0582 -0.066,0 -0.13582,-0.0543 -0.066,-0.0543 -0.066,-0.0892 0,-0.0427 0.0388,-0.0815 0.0427,-0.0388 0.0854,-0.0388 0,0 0.0272,0.0116 0.031,0.008 0.0699,0.0504 0.031,0.031 0.0698,0.0815 0.0388,0.0505 0.0388,0.0621 z m 0.097,2.44087 q 0,0.0388 -0.0349,0.0582 -0.031,0.0233 -0.0737,0.0194 -0.0543,-0.004 -0.0815,-0.17463 -0.0233,-0.17074 -0.0504,-0.64805 -0.0155,-0.31433 -0.0272,-0.61313 -0.0116,-0.30268 -0.0155,-0.46567 0,-0.0427 0.0117,-0.0621 0.0155,-0.0233 0.0543,-0.0233 0.0893,0 0.11254,0.0737 0.0233,0.0737 0.0233,0.28328 l -0.004,0.45791 q 0,0.39193 0.0233,0.62865 0,0.0116 0.0349,0.24835 0.0272,0.16299 0.0272,0.21731 z m -0.83042,0.0427 q 0,0.0466 -0.031,0.0776 -0.031,0.0349 -0.0815,0.0349 -0.0388,0 -0.066,-0.0194 -0.0272,-0.0155 -0.0272,-0.0466 l 0.008,-0.26776 q 0.0194,-0.47731 0.0194,-0.77999 0,-0.44239 -0.0621,-0.61701 -0.0621,-0.17851 -0.14358,-0.17851 -0.18239,0 -0.45791,0.56656 -0.27552,0.56268 -0.53164,1.23014 -0.0194,0.0543 -0.0543,0.10478 -0.0311,0.0504 -0.066,0.0504 -0.0854,0 -0.0854,-0.0543 0,-0.23672 -0.0194,-0.88477 -0.0194,-0.65194 -0.031,-0.85761 -0.0349,-0.69462 -0.066,-0.8576 -0.031,-0.16298 -0.031,-0.17462 0,-0.0388 0.0427,-0.0582 0.0427,-0.0194 0.10866,-0.0194 0.0543,0 0.0776,0.24836 0.0272,0.24447 0.0388,0.62865 l 0.004,0.10866 q 0.008,0.12029 0.0116,0.69074 0.004,0.56656 0.004,0.83432 0.1785,-0.44627 0.33372,-0.79552 0.15911,-0.34925 0.36478,-0.65193 0.20567,-0.30657 0.38029,-0.30657 0.14746,0 0.24836,0.24836 0.10089,0.24447 0.10089,0.73342 0,0.21732 0.008,0.60537 z m -1.96744,-2.42535 q 0,0.031 -0.0272,0.066 -0.0272,0.031 -0.0699,0.031 -0.0116,0 -0.0815,-0.0194 -0.066,-0.0233 -0.12417,-0.0233 -0.18627,0 -0.42299,0.0194 -0.23671,0.0194 -0.39193,0.0543 0.0116,0.18627 0.0194,0.58984 0.0116,0.3997 0.0116,0.84209 0,0.18626 -0.008,0.41522 -0.004,0.22895 -0.0155,0.28328 -0.008,0.0427 -0.0543,0.0699 -0.0427,0.0272 -0.0892,0.0272 -0.0272,0 -0.0466,-0.0233 -0.0194,-0.0233 -0.0194,-0.0543 l 0.004,-0.13582 q 0.0233,-0.30268 0.0233,-0.74507 0,-0.3182 -0.008,-0.72566 -0.008,-0.41134 -0.0155,-0.50836 -0.77611,0.0854 -1.03611,0.15911 -0.0466,0.0155 -0.10478,0.0155 -0.0698,0 -0.13581,-0.0504 -0.066,-0.0504 -0.066,-0.10865 0,-0.0388 0.0233,-0.0543 0.0233,-0.0194 0.0582,-0.0194 0.22119,-0.0117 0.37253,-0.0233 0.34537,-0.031 0.86925,-0.097 0,-0.1203 0.004,-0.17075 0.008,-0.0504 0.0272,-0.0504 0.0737,0 0.13194,0.0582 0.0116,0.0116 0.0194,0.0621 0.008,0.0466 0.008,0.0621 0.0854,-0.004 0.2794,-0.0388 0.4191,-0.066 0.57433,-0.066 0.18626,0 0.24835,0.0466 0.0427,0.0311 0.0427,0.11254 z" />
    </g>
    <g
       id="g9895"
       style="stroke-width:0.79374998;stroke-dasharray:none"
       class="drawing__outline_light">
      <path
         id="path14262-6-9"
         style="font-variation-settings:normal;fill:none;fill-opacity:1;stop-color:#000000;stroke-width:0.79374998;stroke-dasharray:none"
         d="m 28.524567,10.81994 -2e-5,18.05898"
         sodipodi:nodetypes="cc" />
      <path
         id="path21905-80"
         style="font-variation-settings:normal;fill:none;fill-opacity:1;stop-color:#000000;stroke-width:0.79374998;stroke-dasharray:none"
         d="m 35.358727,10.81994 -2e-5,18.05898"
         sodipodi:nodetypes="cc" />
    </g>
    <g
       id="g40998"
       transform="translate(-748.96174,-127.49443)"
       style="stroke-width:0.26458333;stroke-dasharray:none"
       class="drawing__outline">
      <path
         id="path40212"
         style="font-variation-settings:normal;fill:#c4ffff;fill-opacity:0.287206;stop-color:#000000;stroke-width:0.26458333;stroke-dasharray:none"
         d="m 805.85965,186.72733 c -0.0593,1.02908 -1.87159,1.8495 -4.00183,1.8495 h -42.015 c -2.12607,0 -3.93625,-0.81795 -4.00079,-1.84484 v 5.87767 c -0.0782,1.08345 1.791,1.96732 4.00079,1.96732 h 42.015 c 2.21078,0 4.07999,-0.88387 4.00183,-1.96732 z" />
      <path
         id="path40226"
         style="font-variation-settings:normal;fill:#c4ffff;fill-opacity:0.287206;stop-color:#000000;stroke-width:0.26458333;stroke-dasharray:none"
         d="m 755.84171,183.69724 v 2.91249 c -0.0782,1.08345 1.79152,1.96732 4.0013,1.96732 h 42.01501 c 2.21078,0 4.07999,-0.88387 4.00182,-1.96732 v -2.91249 c -0.0593,1.02908 -1.87158,1.8495 -4.00182,1.8495 h -42.01501 c -2.12928,0 -3.94196,-0.82042 -4.0013,-1.8495 z" />
      <g
         id="g40236"
         transform="translate(20.429387,52.813237)"
         style="stroke-width:0.26458333;stroke-dasharray:none">
        <path
           style="font-variation-settings:normal;opacity:1;fill:#c4ffff;fill-opacity:0.287206;stop-color:#000000;stop-opacity:1;stroke-width:0.26458333;stroke-dasharray:none"
           d="m 740.66538,105.1155 c -2.07813,4.9e-4 -3.6846,0.8835 -3.76279,1.96738 l -1.49004,20.6534 c -0.0782,1.08345 1.79139,1.96713 4.00118,1.96713 h 42.01492 c 2.21078,0 4.07986,-0.88368 4.00169,-1.96713 l -1.49004,-20.6534 c -0.0782,-1.08388 -1.68421,-1.96689 -3.76327,-1.96738 z"
           id="path40228" />
        <path
           id="path40230"
           style="font-variation-settings:normal;opacity:1;fill:#c4ffff;fill-opacity:0.287206;stop-color:#000000;stop-opacity:1;stroke-width:0.26458333;stroke-dasharray:none"
           d="m 735.41212,127.85369 v 2.91249 c -0.0782,1.08345 1.79152,1.96732 4.0013,1.96732 h 42.01501 c 2.21078,0 4.07999,-0.88387 4.00182,-1.96732 v -2.91249 c -0.0593,1.02908 -1.87158,1.8495 -4.00182,1.8495 h -42.01501 c -2.12928,0 -3.94196,-0.82042 -4.0013,-1.8495 z" />
        <path
           style="font-variation-settings:normal;opacity:1;fill:#c4ffff;fill-opacity:0.287206;stop-color:#000000;stop-opacity:1;stroke-width:0.26458333;stroke-dasharray:none"
           d="m 763.84622,116.43936 c 0.54319,-0.0103 1.07134,0.0886 1.46348,0.27393 0.39214,0.18539 0.61361,0.44123 0.61361,0.70874 0,0.26702 -0.22147,0.52258 -0.61361,0.70797 -0.39214,0.18539 -0.92029,0.28426 -1.46348,0.27394 -1.07437,-0.0202 -1.9236,-0.45377 -1.9246,-0.98191 0.001,-0.49962 0.76222,-0.91953 1.77158,-0.97658 0.051,-0.003 0.102,-0.005 0.15302,-0.006 z"
           id="path40232" />
        <path
           style="font-variation-settings:normal;opacity:1;fill:#c4ffff;fill-opacity:0.287206;stop-color:#000000;stop-opacity:1;stroke-width:0.26458333;stroke-dasharray:none"
           d="m 756.84364,116.43936 c 0.5432,-0.0103 1.07186,0.0886 1.464,0.27393 0.39214,0.18539 0.61314,0.44123 0.61414,0.70874 -0.002,0.5424 -0.89724,0.98191 -2.00162,0.98191 -1.10339,0 -1.99911,-0.43951 -2.00111,-0.98191 10e-4,-0.52863 0.85022,-0.96251 1.92459,-0.98267 z"
           id="path40234" />
      </g>
    </g>
    <g
       id="g16604-7-3"
       transform="translate(-697.0672,-62.93259)"
       style="stroke-width:0.26458333;stroke-dasharray:none"
       class="drawing__outline">
      <path
         style="font-variation-settings:normal;fill:#c4ffff;fill-opacity:0.287206;stop-color:#000000;stroke-width:0.26458333;stroke-dasharray:none"
         d="m 738.88602,84.29145 c 0,1.74986 -1.89293,3.36744 -4.96507,4.24212 -1.53607,0.43734 -3.25072,0.65577 -4.96507,0.65577 -1.71435,0 -3.42849,-0.21843 -4.96456,-0.65577 -3.07213,-0.87468 -4.96507,-2.49226 -4.96507,-4.24212 v 2.93057 c 0,1.74986 1.89294,3.36744 4.96507,4.24212 1.53607,0.43734 3.25021,0.65577 4.96456,0.65577 1.71435,0 3.429,-0.21843 4.96507,-0.65577 3.07214,-0.87468 4.96507,-2.49226 4.96507,-4.24212 z"
         id="path14767-1-0" />
      <path
         style="font-variation-settings:normal;fill:#c4ffff;fill-opacity:0.287206;stop-color:#000000;stroke-width:0.26458333;stroke-dasharray:none"
         d="m 719.43154,82.908634 c -0.26466,0.443209 -0.40514,0.907866 -0.40514,1.382862 0,1.749858 1.89293,3.367439 4.96507,4.242118 1.53607,0.43734 3.2502,0.655774 4.96455,0.655774 1.71435,0 3.42901,-0.218434 4.96507,-0.655774 3.07214,-0.874679 4.96456,-2.49226 4.96456,-4.242118 0,-0.474996 -0.14049,-0.939653 -0.40514,-1.382862 -0.71043,1.189712 -2.32128,2.221513 -4.55942,2.858741 -1.53606,0.437339 -3.25072,0.655774 -4.96507,0.655774 -1.71435,0 -3.42848,-0.218435 -4.96455,-0.655774 -2.23813,-0.637228 -3.8495,-1.669029 -4.55993,-2.858741 z"
         id="path16590-7-3" />
      <path
         style="font-variation-settings:normal;fill:#c4ffff;fill-opacity:0.287206;stop-color:#000000;stroke-width:0.26458333;stroke-dasharray:none"
         d="m 720.94359,84.418103 c 0.13977,1.334412 1.63821,2.550357 4.00027,3.223059 1.24119,0.35349 2.62679,0.5302 4.01216,0.5302 1.38537,0 2.77097,-0.17671 4.01216,-0.5302 2.36205,-0.672702 3.86045,-1.888647 4.00027,-3.223059 -0.80208,0.540803 -1.83192,1.00322 -3.04736,1.349272 -1.53606,0.437339 -3.25072,0.655774 -4.96507,0.655774 -1.71435,0 -3.42848,-0.218435 -4.96455,-0.655774 -1.21555,-0.346085 -2.24576,-0.808401 -3.04788,-1.349272 z"
         id="path16583-2-0" />
      <path
         style="font-variation-settings:normal;fill:#c4ffff;fill-opacity:0.287206;stop-color:#000000;stroke-width:0.26458333;stroke-dasharray:none"
         d="m 738.88602,78.59469 c 0,1.74986 -1.89293,3.36744 -4.96507,4.24212 -1.53607,0.43734 -3.25072,0.65577 -4.96507,0.65577 -1.71435,0 -3.42849,-0.21843 -4.96456,-0.65577 -3.07213,-0.87468 -4.96507,-2.49226 -4.96507,-4.24212 v 2.93057 c 0,1.74986 1.89294,3.36744 4.96507,4.24212 1.53607,0.43734 3.25021,0.65577 4.96456,0.65577 1.71435,0 3.429,-0.21843 4.96507,-0.65577 3.07214,-0.87468 4.96507,-2.49226 4.96507,-4.24212 z"
         id="path14795-7-9" />
      <path
         style="font-variation-settings:normal;fill:#c4ffff;fill-opacity:0.287206;stop-color:#000000;stroke-width:0.26458333;stroke-dasharray:none"
         d="m 719.47185,77.144645 c -0.2913,0.463244 -0.44545,0.951036 -0.44545,1.450041 0,1.749858 1.89293,3.367439 4.96507,4.242118 1.53607,0.43734 3.2502,0.655774 4.96455,0.655774 1.71435,0 3.42901,-0.218434 4.96507,-0.655774 3.07214,-0.874679 4.96456,-2.49226 4.96456,-4.242118 0,-0.499005 -0.15416,-0.986797 -0.44545,-1.450041 -0.73027,1.161396 -2.32309,2.166327 -4.51911,2.791561 -1.53606,0.43734 -3.25072,0.655774 -4.96507,0.655774 -1.71435,0 -3.42848,-0.218434 -4.96455,-0.655774 -2.19603,-0.62524 -3.78936,-1.630152 -4.51962,-2.791561 z"
         id="path16577-2-2" />
      <path
         id="path16386-2-5"
         style="font-variation-settings:normal;fill:#c4ffff;fill-opacity:0.287206;stop-color:#000000;stroke-width:0.26458333;stroke-dasharray:none"
         d="m 736.93796,78.606571 c -0.79769,0.532076 -1.81666,0.987921 -3.01687,1.329635 -1.53606,0.43734 -3.25072,0.655774 -4.96507,0.655774 -1.71435,0 -3.42848,-0.218434 -4.96455,-0.655774 -1.19999,-0.341654 -2.21924,-0.797161 -3.01687,-1.329118 0.26206,1.254488 1.72668,2.382847 3.96926,3.021521 1.24119,0.35349 2.62679,0.5302 4.01216,0.5302 1.38537,0 2.77097,-0.17671 4.01216,-0.5302 2.24286,-0.638759 3.70793,-1.767349 3.96978,-3.022038 z"
         sodipodi:nodetypes="cssscsssc" />
      <path
         style="font-variation-settings:normal;fill:#c4ffff;fill-opacity:0.287206;stop-color:#000000;stroke-width:0.26458333;stroke-dasharray:none"
         d="m 738.88602,72.76329 c 0,1.74986 -1.89293,3.36744 -4.96507,4.24212 -1.53607,0.43734 -3.25072,0.65577 -4.96507,0.65577 -1.71435,0 -3.42849,-0.21843 -4.96456,-0.65577 -3.07213,-0.87468 -4.96507,-2.49226 -4.96507,-4.24212 v 2.93057 c 0,1.74986 1.89294,3.36744 4.96507,4.24212 1.53607,0.43734 3.25021,0.65577 4.96456,0.65577 1.71435,0 3.429,-0.21843 4.96507,-0.65577 3.07214,-0.87468 4.96507,-2.49226 4.96507,-4.24212 z"
         id="path16400-6-4" />
      <path
         style="font-variation-settings:normal;fill:#c4ffff;fill-opacity:0.287206;stop-color:#000000;stroke-width:0.26458333;stroke-dasharray:none"
         d="m 728.9567,77.662051 c 1.71435,0 3.4288,-0.21868 4.96487,-0.65602 3.07214,-0.87468 4.96486,-2.49204 4.96486,-4.2419 0,-1.74986 -1.89272,-3.3667 -4.96486,-4.24138 -3.07215,-0.87518 -6.85759,-0.87518 -9.92973,0 -3.07214,0.87468 -4.96487,2.49152 -4.96487,4.24138 0,1.74986 1.89273,3.36722 4.96487,4.2419 1.53607,0.43734 3.25051,0.65602 4.96486,0.65602 z"
         id="path16402-1-0" />
      <path
         style="font-variation-settings:normal;fill:#c4ffff;fill-opacity:0.287206;stop-color:#000000;stroke-width:0.26458333;stroke-dasharray:none"
         d="m 728.94063,71.03193 c -0.31753,-0.002 -0.62369,-0.0636 -0.85313,-0.17257 -0.24573,-0.11675 -0.38407,-0.27766 -0.38407,-0.44586 0.012,-0.33692 0.56972,-0.60694 1.25275,-0.60694 0.68404,0 1.24176,0.27002 1.25379,0.60694 0,0.33245 -0.53258,0.60555 -1.20559,0.61792 -0.0213,4.1e-4 -0.0426,4.9e-4 -0.0638,4.9e-4 z"
         id="path16404-0-5" />
      <path
         style="font-variation-settings:normal;fill:#c4ffff;fill-opacity:0.287206;stop-color:#000000;stroke-width:0.26458333;stroke-dasharray:none"
         d="m 725.42081,73.75266 c -0.50848,-0.003 -0.99756,-0.10126 -1.36522,-0.27611 -0.39317,-0.18652 -0.61575,-0.44391 -0.61575,-0.71304 0,-0.26864 0.22258,-0.52575 0.61575,-0.71226 0.39217,-0.18652 0.92271,-0.28599 1.46733,-0.2756 1.07721,0.0203 1.92862,0.45652 1.92862,0.98786 0,0.50265 -0.76423,0.92511 -1.77625,0.9825 -0.0502,0.003 -0.10122,0.005 -0.15237,0.006 -0.034,4.9e-4 -0.0682,4.9e-4 -0.10211,4.9e-4 z"
         id="path16406-6-9" />
      <path
         style="font-variation-settings:normal;fill:#c4ffff;fill-opacity:0.287206;stop-color:#000000;stroke-width:0.26458333;stroke-dasharray:none"
         d="m 732.4418,73.75266 c -0.50848,-0.003 -0.99756,-0.10126 -1.36522,-0.27611 -0.39317,-0.18652 -0.61575,-0.44391 -0.61575,-0.71304 10e-4,-0.54569 0.89956,-0.98786 2.00585,-0.98786 1.1073,0 2.00485,0.44217 2.00585,0.98786 0,0.53184 -0.85142,0.96835 -1.92862,0.98864 -0.034,4.9e-4 -0.0682,4.9e-4 -0.10211,4.9e-4 z"
         id="path16408-1-4" />
      <path
         style="font-variation-settings:normal;fill:#c4ffff;fill-opacity:0.287206;stop-color:#000000;stroke-width:0.26458333;stroke-dasharray:none"
         d="m 728.94063,75.73223 c -0.31753,-0.002 -0.62369,-0.0634 -0.85313,-0.17283 -0.24573,-0.11675 -0.38407,-0.27766 -0.38407,-0.44587 0.012,-0.33691 0.56972,-0.60693 1.25275,-0.60693 0.68404,0 1.24176,0.27002 1.25379,0.60693 0,0.33246 -0.53258,0.60558 -1.20559,0.61844 -0.0213,3.7e-4 -0.0426,4.1e-4 -0.0638,2.6e-4 z"
         id="path16410-5-6" />
      <g
         id="g43762"
         style="stroke-width:0.26458333;stroke-dasharray:none">
        <path
           id="path43735"
           style="font-variation-settings:normal;fill:none;fill-opacity:0.287206;stop-color:#000000;stroke-width:0.26458333;stroke-dasharray:none"
           d="m 727.70441,70.397763 c -4.7e-4,0.0052 -7.9e-4,0.01038 -9.8e-4,0.01564" />
        <path
           id="path43755"
           style="font-variation-settings:normal;fill:none;fill-opacity:0.287206;stop-color:#000000;stroke-width:0.26458333;stroke-dasharray:none"
           d="m 730.15498,70.594993 c -0.15847,-0.264359 -0.63953,-0.486076 -1.19776,-0.559825 -0.65221,-0.08616 -1.22364,0.03735 -1.25281,0.362595" />
        <path
           id="path43749"
           style="font-variation-settings:normal;fill:none;fill-opacity:0.287206;stop-color:#000000;stroke-width:0.26458333;stroke-dasharray:none"
           d="m 729.9823,70.768397 c -0.22805,-0.178396 -0.60468,-0.317857 -1.02508,-0.373397 -0.53909,-0.07122 -1.02299,8.11e-4 -1.19111,0.21161" />
        <path
           id="path43743"
           style="font-variation-settings:normal;fill:none;fill-opacity:0.287206;stop-color:#000000;stroke-width:0.26458333;stroke-dasharray:none"
           d="m 729.63724,70.932856 c -0.19669,-0.08261 -0.43066,-0.14508 -0.68002,-0.178024 -0.37542,-0.0496 -0.72408,-0.02972 -0.95795,0.05811" />
      </g>
      <g
         id="g43772"
         transform="translate(0,4.7003108)"
         style="stroke-width:0.26458333;stroke-dasharray:none">
        <path
           id="path43764"
           style="font-variation-settings:normal;fill:none;fill-opacity:0.287206;stop-color:#000000;stroke-width:0.26458333;stroke-dasharray:none"
           d="m 727.70441,70.397763 c -4.7e-4,0.0052 -7.9e-4,0.01038 -9.8e-4,0.01564" />
        <path
           id="path43766"
           style="font-variation-settings:normal;fill:none;fill-opacity:0.287206;stop-color:#000000;stroke-width:0.26458333;stroke-dasharray:none"
           d="m 730.15498,70.594993 c -0.15847,-0.264359 -0.63953,-0.486076 -1.19776,-0.559825 -0.65221,-0.08616 -1.22364,0.03735 -1.25281,0.362595" />
        <path
           id="path43768"
           style="font-variation-settings:normal;fill:none;fill-opacity:0.287206;stop-color:#000000;stroke-width:0.26458333;stroke-dasharray:none"
           d="m 729.9823,70.768397 c -0.22805,-0.178396 -0.60468,-0.317857 -1.02508,-0.373397 -0.53909,-0.07122 -1.02299,8.11e-4 -1.19111,0.21161" />
        <path
           id="path43770"
           style="font-variation-settings:normal;fill:none;fill-opacity:0.287206;stop-color:#000000;stroke-width:0.26458333;stroke-dasharray:none"
           d="m 729.63724,70.932856 c -0.19669,-0.08261 -0.43066,-0.14508 -0.68002,-0.178024 -0.37542,-0.0496 -0.72408,-0.02972 -0.95795,0.05811" />
      </g>
    </g>
    <g
       id="g9123"
       style="stroke-width:0.79374998;stroke-dasharray:none"
       class="drawing__outline">
      <path
         id="path14191-9-3"
         style="font-variation-settings:normal;fill:none;fill-opacity:1;marker-end:url(#Arrow2-4-7-2);stop-color:#000000;stroke-width:0.79374998;stroke-dasharray:none"
         d="m 28.524547,28.87892 2e-5,12.19927"
         sodipodi:nodetypes="cc" />
      <path
         id="path14260-9-6"
         style="font-variation-settings:normal;fill:none;fill-opacity:1;stop-color:#000000;stroke-width:0.79374998;stroke-dasharray:none"
         d="m 28.524587,3.01505 -2e-5,7.80489"
         sodipodi:nodetypes="cc" />
      <path
         id="path21907-2"
         style="font-variation-settings:normal;fill:none;fill-opacity:1;marker-end:url(#Arrow2-4-7-2);stop-color:#000000;stroke-width:0.79374998;stroke-dasharray:none"
         d="m 35.358707,28.87892 2e-5,12.19927"
         sodipodi:nodetypes="cc" />
      <path
         id="path21909-1"
         style="font-variation-settings:normal;fill:none;fill-opacity:1;stop-color:#000000;stroke-width:0.79374998;stroke-dasharray:none"
         d="m 35.358747,3.01505 -2e-5,7.80489"
         sodipodi:nodetypes="cc" />
    </g>
    <g
       id="g12236"
       style="fill-opacity:1;stroke-width:0.26458333;stroke-dasharray:none"
       class="drawing__annotation">
      <text
         xml:space="preserve"
         style="font-style:normal;font-variant:normal;font-weight:bold;font-stretch:normal;font-size:5.29167px;line-height:1.25;font-family:'Ink Free';-inkscape-font-specification:'Ink Free';font-variant-ligatures:normal;font-variant-position:normal;font-variant-caps:normal;font-variant-numeric:normal;font-variant-alternates:normal;font-variant-east-asian:normal;font-feature-settings:normal;font-variation-settings:normal;text-indent:0;text-align:start;text-decoration-line:none;text-decoration-style:solid;text-decoration-color:#000000;letter-spacing:0px;word-spacing:normal;text-transform:none;writing-mode:lr-tb;direction:ltr;text-orientation:mixed;dominant-baseline:auto;baseline-shift:baseline;white-space:normal;fill-opacity:1;stop-color:#000000;stroke-width:0.26458333;stroke-dasharray:none"
         x="70.057602"
         y="31.383602"
         id="text23457-0"
         transform="scale(1.0000509,0.99994911)"><tspan
           sodipodi:role="line"
           style="font-style:normal;font-variant:normal;font-weight:bold;font-stretch:normal;font-size:5.29167px;line-height:1.25;font-family:'Ink Free';-inkscape-font-specification:'Ink Free';font-variant-ligatures:normal;font-variant-position:normal;font-variant-caps:normal;font-variant-numeric:normal;font-variant-alternates:normal;font-variant-east-asian:normal;font-feature-settings:normal;font-variation-settings:normal;text-indent:0;text-align:start;text-decoration-line:none;text-decoration-style:solid;text-decoration-color:#000000;letter-spacing:0px;word-spacing:normal;text-transform:none;writing-mode:lr-tb;direction:ltr;text-orientation:mixed;dominant-baseline:auto;baseline-shift:baseline;white-space:normal;fill-opacity:1;stop-color:#000000;stop-opacity:1;stroke-width:0.26458333;stroke-dasharray:none"
           x="70.057602"
           y="31.383602"
           id="tspan23483-0">Glue the O-ring block</tspan><tspan
           sodipodi:role="line"
           style="font-style:normal;font-variant:normal;font-weight:bold;font-stretch:normal;font-size:5.29167px;line-height:1.25;font-family:'Ink Free';-inkscape-font-specification:'Ink Free';font-variant-ligatures:normal;font-variant-position:normal;font-variant-caps:normal;font-variant-numeric:normal;font-variant-alternates:normal;font-variant-east-asian:normal;font-feature-settings:normal;font-variation-settings:normal;text-indent:0;text-align:start;text-decoration-line:none;text-decoration-style:solid;text-decoration-color:#000000;letter-spacing:0px;word-spacing:normal;text-transform:none;writing-mode:lr-tb;direction:ltr;text-orientation:mixed;dominant-baseline:auto;baseline-shift:baseline;white-space:normal;fill-opacity:1;stop-color:#000000;stop-opacity:1;stroke-width:0.26458333;stroke-dasharray:none"
           x="70.057602"
           y="37.998188"
           id="tspan42251">to the Cap block.</tspan><tspan
           sodipodi:role="line"
           style="font-style:normal;font-variant:normal;font-weight:bold;font-stretch:normal;font-size:5.29167px;line-height:1.25;font-family:'Ink Free';-inkscape-font-specification:'Ink Free';font-variant-ligatures:normal;font-variant-position:normal;font-variant-caps:normal;font-variant-numeric:normal;font-variant-alternates:normal;font-variant-east-asian:normal;font-feature-settings:normal;font-variation-settings:normal;text-indent:0;text-align:start;text-decoration-line:none;text-decoration-style:solid;text-decoration-color:#000000;letter-spacing:0px;word-spacing:normal;text-transform:none;writing-mode:lr-tb;direction:ltr;text-orientation:mixed;dominant-baseline:auto;baseline-shift:baseline;white-space:normal;fill-opacity:1;stop-color:#000000;stop-opacity:1;stroke-width:0.26458333;stroke-dasharray:none"
           x="70.057602"
           y="44.612778"
           id="tspan42259" /><tspan
           sodipodi:role="line"
           style="font-style:normal;font-variant:normal;font-weight:bold;font-stretch:normal;font-size:5.29167px;line-height:1.25;font-family:'Ink Free';-inkscape-font-specification:'Ink Free';font-variant-ligatures:normal;font-variant-position:normal;font-variant-caps:normal;font-variant-numeric:normal;font-variant-alternates:normal;font-variant-east-asian:normal;font-feature-settings:normal;font-variation-settings:normal;text-indent:0;text-align:start;text-decoration-line:none;text-decoration-style:solid;text-decoration-color:#000000;letter-spacing:0px;word-spacing:normal;text-transform:none;writing-mode:lr-tb;direction:ltr;text-orientation:mixed;dominant-baseline:auto;baseline-shift:baseline;white-space:normal;fill-opacity:1;stop-color:#000000;stop-opacity:1;stroke-width:0.26458333;stroke-dasharray:none"
           x="70.057602"
           y="51.227364"
           id="tspan42261">You can pass drill bits</tspan><tspan
           sodipodi:role="line"
           style="font-style:normal;font-variant:normal;font-weight:bold;font-stretch:normal;font-size:5.29167px;line-height:1.25;font-family:'Ink Free';-inkscape-font-specification:'Ink Free';font-variant-ligatures:normal;font-variant-position:normal;font-variant-caps:normal;font-variant-numeric:normal;font-variant-alternates:normal;font-variant-east-asian:normal;font-feature-settings:normal;font-variation-settings:normal;text-indent:0;text-align:start;text-decoration-line:none;text-decoration-style:solid;text-decoration-color:#000000;letter-spacing:0px;word-spacing:normal;text-transform:none;writing-mode:lr-tb;direction:ltr;text-orientation:mixed;dominant-baseline:auto;baseline-shift:baseline;white-space:normal;fill-opacity:1;stop-color:#000000;stop-opacity:1;stroke-width:0.26458333;stroke-dasharray:none"
           x="70.057602"
           y="57.841949"
           id="tspan42263">through the openings</tspan><tspan
           sodipodi:role="line"
           style="font-style:normal;font-variant:normal;font-weight:bold;font-stretch:normal;font-size:5.29167px;line-height:1.25;font-family:'Ink Free';-inkscape-font-specification:'Ink Free';font-variant-ligatures:normal;font-variant-position:normal;font-variant-caps:normal;font-variant-numeric:normal;font-variant-alternates:normal;font-variant-east-asian:normal;font-feature-settings:normal;font-variation-settings:normal;text-indent:0;text-align:start;text-decoration-line:none;text-decoration-style:solid;text-decoration-color:#000000;letter-spacing:0px;word-spacing:normal;text-transform:none;writing-mode:lr-tb;direction:ltr;text-orientation:mixed;dominant-baseline:auto;baseline-shift:baseline;white-space:normal;fill-opacity:1;stop-color:#000000;stop-opacity:1;stroke-width:0.26458333;stroke-dasharray:none"
           x="70.057602"
           y="64.456535"
           id="tspan42265">to get a good alignment</tspan><tspan
           sodipodi:role="line"
           style="font-style:normal;font-variant:normal;font-weight:bold;font-stretch:normal;font-size:5.29167px;line-height:1.25;font-family:'Ink Free';-inkscape-font-specification:'Ink Free';font-variant-ligatures:normal;font-variant-position:normal;font-variant-caps:normal;font-variant-numeric:normal;font-variant-alternates:normal;font-variant-east-asian:normal;font-feature-settings:normal;font-variation-settings:normal;text-indent:0;text-align:start;text-decoration-line:none;text-decoration-style:solid;text-decoration-color:#000000;letter-spacing:0px;word-spacing:normal;text-transform:none;writing-mode:lr-tb;direction:ltr;text-orientation:mixed;dominant-baseline:auto;baseline-shift:baseline;white-space:normal;fill-opacity:1;stop-color:#000000;stop-opacity:1;stroke-width:0.26458333;stroke-dasharray:none"
           x="70.057602"
           y="71.071129"
           id="tspan42255" /></text>
      <text
         xml:space="preserve"
         style="font-style:normal;font-variant:normal;font-weight:bold;font-stretch:normal;font-size:5.29167px;line-height:1.25;font-family:'Ink Free';-inkscape-font-specification:'Ink Free';font-variant-ligatures:normal;font-variant-position:normal;font-variant-caps:normal;font-variant-numeric:normal;font-variant-alternates:normal;font-variant-east-asian:normal;font-feature-settings:normal;font-variation-settings:normal;text-indent:0;text-align:start;text-decoration-line:none;text-decoration-style:solid;text-decoration-color:#000000;letter-spacing:0px;word-spacing:normal;text-transform:none;writing-mode:lr-tb;direction:ltr;text-orientation:mixed;dominant-baseline:auto;baseline-shift:baseline;white-space:normal;fill-opacity:1;stop-color:#000000;stroke-width:0.26458333;stroke-dasharray:none"
         x="72.454231"
         y="14.456084"
         id="text23457-0-6-7-8-6-5"
         transform="scale(1.0000509,0.99994911)"><tspan
           sodipodi:role="line"
           style="font-style:normal;font-variant:normal;font-weight:bold;font-stretch:normal;font-size:5.29167px;line-height:1.25;font-family:'Ink Free';-inkscape-font-specification:'Ink Free';font-variant-ligatures:normal;font-variant-position:normal;font-variant-caps:normal;font-variant-numeric:normal;font-variant-alternates:normal;font-variant-east-asian:normal;font-feature-settings:normal;font-variation-settings:normal;text-indent:0;text-align:start;text-decoration-line:none;text-decoration-style:solid;text-decoration-color:#000000;letter-spacing:0px;word-spacing:normal;text-transform:none;writing-mode:lr-tb;direction:ltr;text-orientation:mixed;dominant-baseline:auto;baseline-shift:baseline;white-space:normal;fill-opacity:1;stop-color:#000000;stop-opacity:1;stroke-width:0.26458333;stroke-dasharray:none"
           x="72.454231"
           y="14.456084"
           id="tspan55804-7-5-07">7</tspan></text>
    </g>
    <path
       id="path69849-0-823"
       style="font-variation-settings:normal;fill:none;fill-opacity:1;fill-rule:evenodd;stop-color:#000000"
       d="m 78.645457,12.513316 c 1.4e-5,2.398038 -2.323779,5.55122 -4.786053,4.972646 -2.100059,-0.493484 -4.198955,-2.381769 -4.579781,-4.342026 -0.45732,-2.354037 2.050446,-4.3420274 4.579781,-4.3420274 2.52935,0 4.786067,1.3133694 4.786053,3.7114074 z"
       sodipodi:nodetypes="sssss"
       class="drawing__outline" />
  </g>
</svg>
