<?xml version="1.0" encoding="UTF-8" standalone="no"?>
<!-- Generator: Adobe Illustrator 19.2.0, SVG Export Plug-In . SVG Version: 6.00 Build 0)  -->

<svg
   version="1.1"
   id="Layer_1"
   x="0px"
   y="0px"
   viewBox="0 0 1920 1080"
   style="enable-background:new 0 0 1920 1080;"
   xml:space="preserve"
   xmlns="http://www.w3.org/2000/svg"
   xmlns:svg="http://www.w3.org/2000/svg"><defs
   id="defs25" />
<style
   type="text/css"
   id="style2">
	.st0{fill:#82D6F4;}
	.st1{fill:#29ABE2;}
	.st2{fill:#0071BC;}
	.st3{fill:none;stroke:#00A99D;stroke-width:10;stroke-miterlimit:10;}
	.st4{fill:none;stroke:#00A99D;stroke-width:10;stroke-miterlimit:10;stroke-dasharray:20.1304,20.1304;}
</style>
<polygon
   class="st0"
   points="1782,165 1367.9,391.8 1211.9,332.5 "
   id="polygon4"
   transform="translate(0,-63.7)" />
<polygon
   class="st1"
   points="1367.9,391.8 1434.4,533.5 1782,165 "
   id="polygon6"
   transform="translate(0,-63.7)" />
<polygon
   class="st0"
   points="1451.9,421.5 1584.6,603.7 1782,165 "
   id="polygon8"
   transform="translate(0,-63.7)" />
<polygon
   class="st2"
   points="1451.9,421.5 1490.3,474.2 1434.4,533.5 "
   id="polygon10"
   transform="translate(0,-63.7)" />
<g
   id="g20"
   transform="translate(0,-63.7)">
	<g
   id="g18">
		<path
   class="st3"
   d="m 1390.5,557.4 c 0,0 -2.5,2.5 -7.2,6.9"
   id="path12" />
		<path
   class="st4"
   d="M 1368.3,577.8 C 1305.7,632.9 1120.9,777.5 951.9,733.9 744.4,680.5 785.6,458.7 908.1,459.1 1030.6,459.5 1105.5,673 1039.5,814 973.5,955 769.5,1057 487.4,985 -316.74176,814.98197 296.15301,340.06438 264.79021,708.06157 209.89182,1055.8622 -699.64773,1011.2102 -740.31217,831.88257"
   id="path14" />
		
	</g>
</g>
</svg>
